<?xml version="1.0" encoding="utf-8"?>
<!-- Generator: Adobe Illustrator 22.0.1, SVG Export Plug-In . SVG Version: 6.00 Build 0)  -->
<svg version="1.1" id="Calque_1" xmlns="http://www.w3.org/2000/svg" xmlns:xlink="http://www.w3.org/1999/xlink" x="0px" y="0px"
	 viewBox="0 0 1280 1024" style="enable-background:new 0 0 1280 1024;" xml:space="preserve">
<style type="text/css">
	.st0{fill:none;stroke:#000000;stroke-width:7;stroke-miterlimit:10;}
	.st1{fill:none;stroke:#000000;stroke-width:5;stroke-miterlimit:10;}
	.st2{fill:none;}
	.st3{stroke:#000000;stroke-width:5;stroke-miterlimit:10;}
	.st4{font-family:'MyriadPro-Regular';}
	.st5{font-size:70px;}
	.st6{letter-spacing:9;}
</style>
<g>
	<path d="M660.5,682c19.2,0,37.9-2,55.9-5.9c-26.1,8.4-54,12.9-82.9,12.9C484.1,689,363,567.9,363,418.5S484.1,148,633.5,148
		c28.9,0,56.8,4.5,82.9,12.9c-18-3.9-36.7-5.9-55.9-5.9C515,155,397,273,397,418.5S515,682,660.5,682z"/>
</g>
<line class="st0" x1="859.2" y1="570.3" x2="824.6" y2="650.4"/>
<polygon class="st0" points="788.6,570.3 859.2,570.3 876.8,596.8 824.6,650.4 770.1,597.3 "/>
<line class="st0" x1="824.6" y1="650.4" x2="788.6" y2="570.3"/>
<line class="st0" x1="823.9" y1="570.3" x2="804" y2="597.5"/>
<line class="st0" x1="843.7" y1="597.5" x2="823.9" y2="570.3"/>
<path class="st0" d="M858.4,569.6"/>
<path class="st0" d="M770.2,596"/>
<line class="st0" x1="876.1" y1="597.5" x2="770.1" y2="597.3"/>
<line class="st0" x1="858.8" y1="444.9" x2="824.3" y2="525"/>
<polygon class="st0" points="788.2,444.9 858.8,444.9 876.4,471.4 824.3,525 769.7,471.9 "/>
<line class="st0" x1="824.3" y1="525" x2="788.2" y2="444.9"/>
<line class="st0" x1="823.5" y1="444.9" x2="803.7" y2="472.1"/>
<line class="st0" x1="843.4" y1="472.1" x2="823.5" y2="444.9"/>
<path class="st0" d="M858.1,444.2"/>
<path class="st0" d="M769.9,470.6"/>
<line class="st0" x1="875.7" y1="472.1" x2="769.7" y2="471.9"/>
<line class="st0" x1="858.4" y1="319.5" x2="823.9" y2="399.6"/>
<polygon class="st0" points="787.9,319.5 858.4,319.5 876.1,345.9 823.9,399.6 769.4,346.5 "/>
<line class="st0" x1="823.9" y1="399.6" x2="787.9" y2="319.5"/>
<line class="st0" x1="823.2" y1="319.5" x2="803.3" y2="346.7"/>
<line class="st0" x1="843" y1="346.7" x2="823.2" y2="319.5"/>
<path class="st0" d="M857.7,318.7"/>
<path class="st0" d="M769.5,345.2"/>
<line class="st0" x1="875.3" y1="346.7" x2="769.4" y2="346.5"/>
<line class="st0" x1="858.1" y1="194.1" x2="823.5" y2="274.2"/>
<polygon class="st0" points="787.5,194.1 858.1,194.1 875.7,220.5 823.5,274.2 769,221 "/>
<line class="st0" x1="823.5" y1="274.2" x2="787.5" y2="194.1"/>
<line class="st0" x1="822.8" y1="194.1" x2="802.9" y2="221.2"/>
<line class="st0" x1="842.6" y1="221.2" x2="822.8" y2="194.1"/>
<path class="st1" d="M767.3,173.3"/>
<path class="st0" d="M769.1,219.8"/>
<line class="st0" x1="875" y1="221.2" x2="769" y2="221"/>
<rect x="267.6" y="359.4" class="st2" width="666" height="169.5"/>
<text transform="matrix(1 0 0 1 464.7225 409.119)"><tspan x="0" y="0" class="st3 st4 st5 st6">Almasi </tspan><tspan x="21" y="84" class="st3 st4 st5 st6">Music</tspan></text>
</svg>
