<?xml version="1.0" encoding="utf-8"?>
<!-- Generator: Adobe Illustrator 22.0.1, SVG Export Plug-In . SVG Version: 6.00 Build 0)  -->
<svg version="1.1" id="Calque_1" xmlns="http://www.w3.org/2000/svg" xmlns:xlink="http://www.w3.org/1999/xlink" x="0px" y="0px"
	 viewBox="0 0 1280 1428" style="enable-background:new 0 0 1280 1428;" xml:space="preserve">
<style type="text/css">
	.st0{fill:#B713FF;}
</style>
<g>
	<path class="st0" d="M1388.5,739.8l-370.2-314.9c-18.9-16-21.2-44.6-5.1-63.4L1328.1-8.7c16-18.9,44.6-21.2,63.4-5.1l370.2,314.9
		c18.9,16,21.2,44.6,5.1,63.4l-314.9,370.2C1435.9,753.5,1407.3,755.9,1388.5,739.8z"/>
</g>
<g>
	<path class="st0" d="M-185.3,1500.7l-379.9-449.3c-19.4-22.8-16.5-57.5,6.4-76.7l449.3-379.9c22.8-19.4,57.5-16.5,76.7,6.4
		l379.9,449.3c19.4,22.8,16.5,57.5-6.4,76.7l-449.3,379.9C-131.4,1526.4-166,1523.7-185.3,1500.7z"/>
</g>
</svg>
