<?xml version="1.0" encoding="utf-8"?>
<!-- Generator: Adobe Illustrator 22.0.1, SVG Export Plug-In . SVG Version: 6.00 Build 0)  -->
<svg version="1.1" id="Calque_1" xmlns="http://www.w3.org/2000/svg" xmlns:xlink="http://www.w3.org/1999/xlink" x="0px" y="0px"
	 viewBox="0 0 1280 1024" style="enable-background:new 0 0 1280 1024;" xml:space="preserve">
<style type="text/css">
	.st0{display:none;}
	.st1{fill:url(#SVGID_1_);}
	.st2{fill:url(#SVGID_2_);}
	.st3{fill:url(#SVGID_3_);}
	.st4{fill:url(#SVGID_4_);}
	.st5{fill:url(#SVGID_5_);}
	.st6{fill:url(#SVGID_6_);}
	.st7{fill:url(#SVGID_7_);}
</style>
<g id="Calque_1_1_" class="st0">
	
		<image style="display:inline;overflow:visible;enable-background:new    ;" width="528" height="606" xlink:href="../../Capture.PNG"  transform="matrix(0.75 0 0 0.75 226 224)">
	</image>
</g>
<g id="Calque_2_1_">
	<g>
		<g>
			<linearGradient id="SVGID_1_" gradientUnits="userSpaceOnUse" x1="797.82" y1="380.515" x2="993.09" y2="380.515">
				<stop  offset="0" style="stop-color:#7B15FF"/>
				<stop  offset="1" style="stop-color:#C100E9"/>
			</linearGradient>
			<path class="st1" d="M988.2,401.8c-8.8,43.3-47.4,74.8-91.7,74.8c-51.6,0-93.6-42-93.6-93.6c0-47.2,34.7-86.6,81.1-92.8
				c1.1,3,4,5.2,7.4,5.2c4.4,0,7.9-3.5,7.9-7.9s-3.5-7.9-7.9-7.9c-3.6,0-6.6,2.4-7.6,5.6c-49.2,6.3-86,48-86,97.8
				c0,54.4,44.3,98.6,98.6,98.6c46.7,0,87.3-33.1,96.6-78.8L988.2,401.8z M891.4,284.5c1.6,0,2.9,1.3,2.9,2.9s-1.3,2.9-2.9,2.9
				s-2.9-1.3-2.9-2.9S889.8,284.5,891.4,284.5z"/>
		</g>
		<g>
			<linearGradient id="SVGID_2_" gradientUnits="userSpaceOnUse" x1="756.4" y1="378.015" x2="1033.55" y2="378.015">
				<stop  offset="0" style="stop-color:#7B15FF"/>
				<stop  offset="1" style="stop-color:#C100E9"/>
			</linearGradient>
			<path class="st2" d="M896.5,245.8c-75.6,0-137.1,61.5-137.1,137.1c0,5.4,0.3,10.4,0.8,15c-2.3,1.4-3.8,3.9-3.8,6.7
				c0,4.4,3.5,7.9,7.9,7.9s7.9-3.6,7.9-7.9c0-4.1-3.2-7.5-7.2-7.9c-0.5-4.3-0.7-8.9-0.7-13.9c0-72.8,59.3-132.1,132.1-132.1
				s132.1,59.3,132.1,132.1c0,54.3-32.6,102.4-82.9,122.6l1.9,4.6c25.1-10.1,46.5-27.2,61.9-49.6c15.8-22.9,24.1-49.8,24.1-77.7
				C1033.6,307.3,972,245.8,896.5,245.8z M767.3,404.7c0,1.6-1.3,2.9-2.9,2.9c-1.6,0-2.9-1.3-2.9-2.9c0-1.6,1.3-2.9,2.9-2.9
				C765.9,401.8,767.3,403.1,767.3,404.7z"/>
		</g>
		<g>
			<linearGradient id="SVGID_3_" gradientUnits="userSpaceOnUse" x1="896.46" y1="333.595" x2="1072.0601" y2="333.595">
				<stop  offset="0" style="stop-color:#7B15FF"/>
				<stop  offset="1" style="stop-color:#C100E9"/>
			</linearGradient>
			<path class="st3" d="M1060.5,445.9c7.7-20.1,11.6-41.2,11.6-63c0-64.5-35.2-123.6-91.9-154.4c-25.6-13.9-54.5-21.2-83.7-21.2v5
				c28.3,0,56.4,7.1,81.3,20.6h0c55.1,29.9,89.3,87.4,89.3,150c0,21.1-3.8,41.6-11.3,61.1c-0.1,0-0.3,0-0.4,0
				c-4.4,0-7.9,3.5-7.9,7.9s3.6,7.9,7.9,7.9c4.4,0,7.9-3.5,7.9-7.9C1063.3,449.5,1062.2,447.3,1060.5,445.9z M1055.4,454.9
				c-1.6,0-2.9-1.3-2.9-2.9s1.3-2.9,2.9-2.9c1.6,0,2.9,1.3,2.9,2.9S1057,454.9,1055.4,454.9z"/>
		</g>
		<g>
			<linearGradient id="SVGID_4_" gradientUnits="userSpaceOnUse" x1="824.56" y1="499.84" x2="1154.5" y2="499.84">
				<stop  offset="0" style="stop-color:#7B15FF"/>
				<stop  offset="1" style="stop-color:#C100E9"/>
			</linearGradient>
			<path class="st4" d="M1154.5,372.1c0-4.4-3.6-7.9-7.9-7.9c-4.4,0-7.9,3.5-7.9,7.9c0,3.5,2.3,6.5,5.4,7.5c0,1.1,0,2.2,0,3.3
				c0,136.5-111.1,247.6-247.6,247.6c-24,0-47.7-3.4-70.5-10.2l-1.4,4.8c23.2,6.9,47.4,10.4,71.9,10.4c67.5,0,130.9-26.3,178.6-74
				c47.7-47.7,74-111.1,74-178.6c0-1.1,0-2.2,0-3.3C1152.2,378.5,1154.5,375.6,1154.5,372.1z M1146.6,375c-1.6,0-2.9-1.3-2.9-2.9
				s1.3-2.9,2.9-2.9c1.6,0,2.9,1.3,2.9,2.9S1148.2,375,1146.6,375z"/>
		</g>
	</g>
	<g>
		<linearGradient id="SVGID_5_" gradientUnits="userSpaceOnUse" x1="682.36" y1="384.175" x2="1066.0901" y2="384.175">
			<stop  offset="0" style="stop-color:#7B15FF"/>
			<stop  offset="1" style="stop-color:#C100E9"/>
		</linearGradient>
		<path class="st5" d="M1058.2,510.9c-4.4,0-7.9,3.5-7.9,7.9c0,1.6,0.5,3.1,1.3,4.4c-39.6,43.8-96,68.8-155.1,68.8
			c-115.3,0-209.1-93.8-209.1-209.1c0-91.1,60.5-173.1,147.5-199.8c1.3,2.4,4,4.1,6.9,4.1c4.4,0,7.9-3.5,7.9-7.9s-3.5-7.9-7.9-7.9
			c-4,0-7.3,3-7.8,6.8c-42.8,13-81.2,40-108.3,75.8c-28.3,37.4-43.2,82-43.2,129c0,57.2,22.3,111,62.7,151.4
			c40.4,40.4,94.2,62.7,151.4,62.7c60.7,0,118.5-25.8,159.1-70.8c0.8,0.3,1.7,0.5,2.6,0.5c4.4,0,7.9-3.6,7.9-7.9
			S1062.5,510.9,1058.2,510.9z M841.8,176.3c1.6,0,2.9,1.3,2.9,2.9s-1.3,2.9-2.9,2.9s-2.9-1.3-2.9-2.9S840.1,176.3,841.8,176.3z
			 M1058.2,521.7c-1.6,0-2.9-1.3-2.9-2.9c0-1.6,1.3-2.9,2.9-2.9c1.6,0,2.9,1.3,2.9,2.9C1061.1,520.4,1059.8,521.7,1058.2,521.7z"/>
	</g>
	<g>
		<linearGradient id="SVGID_6_" gradientUnits="userSpaceOnUse" x1="720.87" y1="473.43" x2="909.2" y2="473.43">
			<stop  offset="0" style="stop-color:#7B15FF"/>
			<stop  offset="1" style="stop-color:#C100E9"/>
		</linearGradient>
		<path class="st6" d="M901.3,548.1c-3.5,0-6.5,2.3-7.5,5.4c-92.8-1.5-167.9-77.4-167.9-170.6h-5c0,95.9,77.3,174.1,172.9,175.6
			c1,3.2,4,5.5,7.5,5.5c4.4,0,7.9-3.6,7.9-7.9S905.7,548.1,901.3,548.1z M901.3,558.9c-1.6,0-2.9-1.3-2.9-2.9s1.3-2.9,2.9-2.9
			c1.6,0,2.9,1.3,2.9,2.9S902.9,558.9,901.3,558.9z"/>
	</g>
	<g>
		<linearGradient id="SVGID_7_" gradientUnits="userSpaceOnUse" x1="643.92" y1="315.87" x2="1131.25" y2="315.87">
			<stop  offset="0" style="stop-color:#7B15FF"/>
			<stop  offset="1" style="stop-color:#C100E9"/>
		</linearGradient>
		<path class="st7" d="M1123.3,269.9c-0.3,0-0.6,0-0.8,0c-20.5-40.9-51.6-75.4-90.3-100.1c-40.5-25.8-87.4-39.5-135.7-39.5
			c-67.5,0-130.9,26.3-178.6,74c-47.7,47.7-74,111.2-74,178.6c0,36.6,7.7,71.9,22.8,105c-1.4,1.4-2.2,3.3-2.2,5.5
			c0,4.4,3.5,7.9,7.9,7.9s7.9-3.6,7.9-7.9s-3.6-7.9-7.9-7.9c-0.5,0-0.9,0-1.3,0.1c-14.7-32.3-22.2-66.8-22.2-102.6
			c0-136.5,111.1-247.6,247.6-247.6c94.5,0,179.1,52.3,221.4,136.7c-1.6,1.4-2.5,3.5-2.5,5.8c0,4.4,3.5,7.9,7.9,7.9
			c4.4,0,7.9-3.5,7.9-7.9S1127.7,269.9,1123.3,269.9z M675.4,493.4c0,1.6-1.3,2.9-2.9,2.9c-1.6,0-2.9-1.3-2.9-2.9
			c0-1.6,1.3-2.9,2.9-2.9C674.1,490.5,675.4,491.8,675.4,493.4z M1123.3,280.8c-1.6,0-2.9-1.3-2.9-2.9c0-1.6,1.3-2.9,2.9-2.9
			c1.6,0,2.9,1.3,2.9,2.9C1126.3,279.4,1124.9,280.8,1123.3,280.8z"/>
	</g>
</g>
</svg>
