<?xml version="1.0" encoding="utf-8"?>
<!-- Generator: Adobe Illustrator 22.0.1, SVG Export Plug-In . SVG Version: 6.00 Build 0)  -->
<svg version="1.1" id="circle" xmlns="http://www.w3.org/2000/svg" xmlns:xlink="http://www.w3.org/1999/xlink" x="0px" y="0px"
	 viewBox="0 0 2161.7 1091.5" style="enable-background:new 0 0 2161.7 1091.5;" xml:space="preserve">
<style type="text/css">

	#circle {
		transform-origin:75% 50%;
		animation-name: rotation;
		animation-duration: 30s;
 -webkit-animation-name: rotation;
 -webkit-animation-duration: 30s;
 -webkit-animation-iteration-count: infinite;
 -webkit-animation-timing-function: linear;
 -moz-animation-name: rotation;
 -moz-animation-duration: 30s;
 -moz-animation-iteration-count: infinite;
 -moz-animation-timing-function: linear;
 -ms-animation-name: rotation;
 -ms-animation-duration: 30s;
 -ms-animation-iteration-count: infinite;
 -ms-animation-timing-function: linear;
		animation-iteration-count: infinite;
		animation-timing-function: linear; }

		@keyframes rotation {
		from { transform: rotate(0deg); }
		to { transform: rotate(360deg); } }

		@-ms-keyframes rotation {
    from { -ms-transform: rotate(0deg); }
    to { -ms-transform: rotate(360deg); } }

		@-moz-keyframes rotation {
    from { -moz-transform: rotate(0deg); }
    to { -moz-transform: rotate(360deg); } }

		@-webkit-keyframes rotation {
    from { -webkit-transform: rotate(0deg); }
    to { -webkit-transform: rotate(360deg); } }


	.st0{opacity:3.000000e-02;} .st1{fill:url(#SVGID_1_);} .st2{fill:url(#SVGID_2_);} .st3{fill:url(#SVGID_3_); }
	.st4{fill:url(#SVGID_4_);} .st5{fill:url(#SVGID_5_);} .st6{fill:url(#SVGID_6_);} .st7{fill:url(#SVGID_7_); }
	.st8{fill:url(#SVGID_8_);} .st9{fill:url(#SVGID_9_);} .st10{fill:url(#SVGID_10_);} .st11{fill:url(#SVGID_11_); }
</style>
<g>
	<circle class="st0" cx="1617.3" cy="545.9" r="542.9"/>
	<g id="un">
		<g>

				<linearGradient id="SVGID_1_" gradientUnits="userSpaceOnUse" x1="1122.8553" y1="611.8122" x2="2142.8586" y2="611.8122" gradientTransform="matrix(0.9351 0.3543 -0.3543 0.9351 312.5142 -599.9583)">
				<stop  offset="0" style="stop-color:#EA3CFF"/>
				<stop  offset="1" style="stop-color:#3095FF"/>
			</linearGradient>
			<path class="st1" d="M1617.1,1064.5c-62.3,0-123.6-11.3-182.5-33.6c-56.5-21.4-108.2-52.1-153.7-91.1
				c-43.9-37.7-80.9-82.4-110-132.8c-28.8-49.9-49-103.9-60-160.4c-11.2-57.6-12.5-116.2-3.8-174.1c0.4-2.8,3.1-4.8,5.9-4.4
				c2.8,0.4,4.8,3.1,4.4,5.9c-34.9,233.4,100,463.5,320.9,547.1c126.3,47.8,263.6,43.7,386.6-11.8c123.1-55.4,217.2-155.5,265-281.7
				c47.8-126.3,43.7-263.6-11.8-386.6c-55.4-123.1-155.5-217.2-281.7-265c-81.1-30.7-168.8-40.1-253.9-27.3
				c-2.8,0.4-5.5-1.5-5.9-4.4c-0.4-2.8,1.5-5.5,4.4-5.9c86.8-13.1,176.4-3.4,259.1,27.9c65.1,24.7,123.5,61.3,173.4,109
				c48.2,46,86.6,100.4,114.1,161.4c27.5,61.1,42.7,125.8,45.3,192.5c2.6,69-8.6,137-33.3,202.1c-24.7,65.1-61.3,123.5-109,173.4
				c-46,48.2-100.4,86.6-161.4,114.1c-61.1,27.5-125.8,42.7-192.5,45.3C1630.1,1064.4,1623.6,1064.5,1617.1,1064.5z"/>
		</g>
	</g>
	<g>

			<linearGradient id="SVGID_2_" gradientUnits="userSpaceOnUse" x1="716.3123" y1="375.8863" x2="815.5994" y2="375.8863" gradientTransform="matrix(-0.3543 0.9351 -0.9351 -0.3543 2090.9739 -443.9886)">
			<stop  offset="0" style="stop-color:#EA3CFF"/>
			<stop  offset="1" style="stop-color:#3095FF"/>
		</linearGradient>
		<path class="st2" d="M1404.2,167.6c-1.8,0-3.6-1-4.6-2.7c-1.4-2.5-0.5-5.7,2-7.1c40.5-22.4,84.1-38.2,129.4-47.1
			c2.8-0.6,5.6,1.3,6.1,4.1c0.6,2.8-1.3,5.6-4.1,6.1c-44.3,8.7-86.8,24.2-126.4,46C1405.9,167.4,1405,167.6,1404.2,167.6z"/>
	</g>
	<g>

			<linearGradient id="SVGID_3_" gradientUnits="userSpaceOnUse" x1="684.5258" y1="91.4242" x2="1542.3834" y2="91.4242" gradientTransform="matrix(-0.3543 0.9351 -0.9351 -0.3543 2090.9739 -443.9886)">
			<stop  offset="0" style="stop-color:#EA3CFF"/>
			<stop  offset="1" style="stop-color:#3095FF"/>
		</linearGradient>
		<path class="st3" d="M1616.9,995c-53.9,0-106.9-9.8-157.9-29.1c-56.3-21.3-106.8-53.1-150-94.3c-41.7-39.8-74.9-86.8-98.7-139.7
			c-23.8-52.8-37-108.9-39.1-166.5c-2.3-59.7,7.4-118.5,28.8-174.8c5.6-14.7,11.6-28.5,18.5-42.1c1.3-2.6,4.4-3.6,7-2.3
			c2.6,1.3,3.6,4.4,2.3,7c-6.7,13.3-12.6,26.8-18.1,41.1c-41.2,108.8-37.6,227.2,10.1,333.4c47.8,106.2,134.1,187.3,243,228.6
			c50.6,19.2,102.7,28.3,153.9,28.3c176,0,342.1-107.4,408.1-281.5c62.2-164.1,20.4-348.5-106.6-469.8c-2.1-2-2.2-5.3-0.2-7.4
			c2-2.1,5.3-2.2,7.4-0.2c62.7,59.8,106.3,136.2,126.3,220.7c20.5,86.7,14.6,176.7-17.1,260.3c-21.3,56.3-53.1,106.8-94.3,150
			c-39.8,41.7-86.8,75-139.7,98.8c-52.8,23.8-108.9,37-166.5,39.2C1628.2,994.9,1622.5,995,1616.9,995z"/>
	</g>
	<g>

			<linearGradient id="SVGID_4_" gradientUnits="userSpaceOnUse" x1="649.8508" y1="179.888" x2="697.2126" y2="179.888" gradientTransform="matrix(-0.3543 0.9351 -0.9351 -0.3543 2090.9739 -443.9886)">
			<stop  offset="0" style="stop-color:#EA3CFF"/>
			<stop  offset="1" style="stop-color:#3095FF"/>
		</linearGradient>
		<path class="st4" d="M1773.4,141.4c-0.6,0-1.2-0.1-1.8-0.3c-56.7-21.5-116.1-30.9-176.5-27.8c-2.9,0.1-5.3-2.1-5.5-4.9
			c-0.1-2.9,2.1-5.3,4.9-5.5c61.8-3.1,122.6,6.5,180.7,28.5c2.7,1,4,4,3,6.7C1777.5,140.2,1775.5,141.4,1773.4,141.4z"/>
	</g>
	<g>

			<linearGradient id="SVGID_5_" gradientUnits="userSpaceOnUse" x1="1214.569" y1="732.3835" x2="1859.2219" y2="732.3835" gradientTransform="matrix(0.3142 0.9494 -0.9494 0.3142 1617.8214 -1125.934)">
			<stop  offset="0" style="stop-color:#EA3CFF"/>
			<stop  offset="1" style="stop-color:#3095FF"/>
		</linearGradient>
		<path class="st5" d="M1454,886.5c-0.8,0-1.6-0.2-2.3-0.5c-44.4-21.8-83.5-51.6-116.1-88.5c-33.8-38.2-59.2-82.3-75.4-131.2
			c-29.3-88.6-24.8-184.3,12.7-269.7c37.2-84.7,103.7-152.5,187.4-190.9c2.6-1.2,5.7-0.1,6.9,2.6c1.2,2.6,0.1,5.7-2.6,6.9
			C1295,293,1211.4,485.6,1270.1,663c31.2,94.1,97.3,169.9,186.2,213.6c2.6,1.3,3.6,4.4,2.4,7C1457.7,885.4,1455.9,886.5,1454,886.5
			z"/>
	</g>
	<g>

			<linearGradient id="SVGID_6_" gradientUnits="userSpaceOnUse" x1="1248.2616" y1="394.0664" x2="1965.657" y2="394.0664" gradientTransform="matrix(0.3142 0.9494 -0.9494 0.3142 1617.8214 -1125.934)">
			<stop  offset="0" style="stop-color:#EA3CFF"/>
			<stop  offset="1" style="stop-color:#3095FF"/>
		</linearGradient>
		<path class="st6" d="M1627,924.5c-2.8,0-5.1-2.2-5.2-5.1c-0.1-2.9,2.2-5.3,5.1-5.3c35.7-0.8,71.3-7.1,106-18.5
			c191.7-63.5,296.1-271.2,232.7-462.9c-44.1-133.3-162.7-230.8-302.2-248.4c-2.9-0.4-4.9-3-4.5-5.8c0.4-2.8,3-4.9,5.8-4.5
			c69.6,8.8,135.3,36.8,190.1,80.9c56.2,45.4,98,105.7,120.7,174.6c16,48.3,22,98.2,17.9,148.5c-3.9,48.5-17.1,95.3-39,139
			c-22,43.7-51.7,82.2-88.3,114.3c-37.9,33.2-81.6,58.2-129.9,74.2c-35.7,11.8-72.4,18.2-109.1,19
			C1627.1,924.5,1627,924.5,1627,924.5z"/>
	</g>
	<g>

			<linearGradient id="SVGID_7_" gradientUnits="userSpaceOnUse" x1="1319.4319" y1="611.6735" x2="1934.1718" y2="611.6735" gradientTransform="matrix(0.9351 0.3543 -0.3543 0.9351 312.5142 -599.9583)">
			<stop  offset="0" style="stop-color:#EA3CFF"/>
			<stop  offset="1" style="stop-color:#3095FF"/>
		</linearGradient>
		<path class="st7" d="M1617,855.6c-82.1,0-159.2-32-217.2-90c-58-58-90-135.2-90-217.2c0-82.1,32-159.2,90-217.2s135.2-90,217.2-90
			c82.1,0,159.2,32,217.2,90c58,58,90,135.2,90,217.2c0,82.1-32,159.2-90,217.2C1776.2,823.6,1699.1,855.6,1617,855.6z M1617,251.6
			c-163.7,0-296.8,133.1-296.8,296.8c0,163.7,133.1,296.8,296.8,296.8c163.7,0,296.8-133.1,296.8-296.8
			C1913.8,384.7,1780.7,251.6,1617,251.6z"/>
	</g>
	<g>

			<linearGradient id="SVGID_8_" gradientUnits="userSpaceOnUse" x1="841.8132" y1="91.6667" x2="1317.6188" y2="91.6667" gradientTransform="matrix(-0.3828 0.9239 -0.9239 -0.3828 2115.0266 -414.1848)">
			<stop  offset="0" style="stop-color:#EA3CFF"/>
			<stop  offset="1" style="stop-color:#3095FF"/>
		</linearGradient>
		<path class="st8" d="M1617,786.1c-63.5,0-123.2-24.7-168.1-69.6c-44.9-44.9-69.6-104.6-69.6-168.1c0-63.5,24.7-123.2,69.6-168.1
			c44.9-44.9,104.6-69.6,168.1-69.6c63.5,0,123.2,24.7,168.1,69.6c44.9,44.9,69.6,104.6,69.6,168.1s-24.7,123.2-69.6,168.1
			C1740.3,761.3,1680.5,786.1,1617,786.1z M1617,320.9c-125.4,0-227.4,102-227.4,227.4s102,227.4,227.4,227.4
			c125.4,0,227.4-102,227.4-227.4S1742.4,320.9,1617,320.9z"/>
	</g>
	<g>

			<linearGradient id="SVGID_9_" gradientUnits="userSpaceOnUse" x1="1458.4845" y1="611.5625" x2="1795.0354" y2="611.5625" gradientTransform="matrix(0.9351 0.3543 -0.3543 0.9351 312.5142 -599.9583)">
			<stop  offset="0" style="stop-color:#EA3CFF"/>
			<stop  offset="1" style="stop-color:#3095FF"/>
		</linearGradient>
		<path class="st9" d="M1617,716.5c-92.8,0-168.3-75.5-168.3-168.3c0-92.8,75.5-168.3,168.3-168.3c92.8,0,168.3,75.5,168.3,168.3
			C1785.3,641.1,1709.8,716.5,1617,716.5z M1617,390.4c-87,0-157.9,70.8-157.9,157.9c0,87,70.8,157.9,157.9,157.9
			c87,0,157.9-70.8,157.9-157.9C1774.9,461.2,1704.1,390.4,1617,390.4z"/>
	</g>
	<g>

			<linearGradient id="SVGID_10_" gradientUnits="userSpaceOnUse" x1="1527.9736" y1="611.4516" x2="1725.4619" y2="611.4516" gradientTransform="matrix(0.9351 0.3543 -0.3543 0.9351 312.5142 -599.9583)">
			<stop  offset="0" style="stop-color:#EA3CFF"/>
			<stop  offset="1" style="stop-color:#3095FF"/>
		</linearGradient>
		<path class="st10" d="M1617,646.9c-54.4,0-98.7-44.3-98.7-98.7c0-54.4,44.3-98.7,98.7-98.7c54.4,0,98.7,44.3,98.7,98.7
			C1715.8,602.6,1671.5,646.9,1617,646.9z M1617,459.8c-48.7,0-88.3,39.6-88.3,88.3c0,48.7,39.6,88.3,88.3,88.3
			c48.7,0,88.3-39.6,88.3-88.3C1705.4,499.5,1665.7,459.8,1617,459.8z"/>
	</g>
	<g>

			<linearGradient id="SVGID_11_" gradientUnits="userSpaceOnUse" x1="1597.3519" y1="611.3825" x2="1655.7765" y2="611.3825" gradientTransform="matrix(0.9351 0.3543 -0.3543 0.9351 312.5142 -599.9583)">
			<stop  offset="0" style="stop-color:#EA3CFF"/>
			<stop  offset="1" style="stop-color:#3095FF"/>
		</linearGradient>
		<path class="st11" d="M1616.9,577.2c-16.1,0-29.2-13.1-29.2-29.2s13.1-29.2,29.2-29.2c16.1,0,29.2,13.1,29.2,29.2
			S1633,577.2,1616.9,577.2z M1616.9,529.2c-10.4,0-18.8,8.4-18.8,18.8c0,10.4,8.4,18.8,18.8,18.8c10.4,0,18.8-8.4,18.8-18.8
			C1635.7,537.7,1627.3,529.2,1616.9,529.2z"/>
	</g>
</g>
</svg>
