<?xml version="1.0" encoding="utf-8"?>
<!-- Generator: Adobe Illustrator 22.0.1, SVG Export Plug-In . SVG Version: 6.00 Build 0)  -->
<svg version="1.1" id="Calque_1" xmlns="http://www.w3.org/2000/svg" xmlns:xlink="http://www.w3.org/1999/xlink" x="0px" y="0px"
	 viewBox="0 0 186.8 185.6" style="enable-background:new 0 0 186.8 185.6;" xml:space="preserve">
<style type="text/css">
	.st0{fill:#FFFFFF;stroke:#000000;stroke-width:15;stroke-miterlimit:10;}
</style>
<path class="st0" d="M159,89.4l-52.8-47.3c-3.5-2.7-8.1,0.3-8.1,5.3v15.7c0,3.2-2.2,5.8-4.9,5.8c-13.8,0-29.3-3-42.5,3
	c-29.3,13.3-32.1,63.3-4.9,81.4c3.3,2.2,7.4-0.6,7.4-5.2l0-0.9c0-11.7,1.7-23.5,13.9-26.6c0.7-0.2,25.8-0.6,25.8-0.6
	c2.9,0,5.2,2.8,5.2,6.3v15.4c0,5,4.6,8,8.1,5.3L159,99.9C162.2,97.5,162.2,91.9,159,89.4z"/>
</svg>
