<?xml version="1.0" encoding="utf-8"?>
<!-- Generator: Adobe Illustrator 22.0.1, SVG Export Plug-In . SVG Version: 6.00 Build 0)  -->
<svg version="1.1" id="Calque_1" xmlns="http://www.w3.org/2000/svg" xmlns:xlink="http://www.w3.org/1999/xlink" x="0px" y="0px"
	 viewBox="0 0 118.1 110.3" style="enable-background:new 0 0 118.1 110.3;" xml:space="preserve">
<style type="text/css">
	.st0{fill:none;stroke:#000000;stroke-width:10;stroke-miterlimit:10;}
</style>
<g id="Calque_1_1_">
</g>
<g id="Calque_2_1_">
	<g>
		<path d="M58.3,10.2c0.3-0.8,1-0.8,1.5,0l13.6,27.6c0.3,0.8,1.5,1.6,2.3,1.6l30.4,4.4c0.8,0.2,1.1,0.8,0.5,1.3L84.5,66.8
			c-0.6,0.6-1,1.8-0.8,2.8l5.2,30.2c0.2,0.8-0.3,1.3-1.1,0.8L60.4,86.3c-0.8-0.5-2.1-0.5-2.9,0l-27.3,14.3c-0.8,0.5-1.3,0-1.1-0.8
			l5.2-30.4c0.2-0.8-0.3-2.1-0.8-2.8L11.5,45.3C10.9,44.7,11,44,12,44l30.4-4.4c0.8-0.2,1.9-0.8,2.3-1.6L58.3,10.2z"/>
		<path class="st0" d="M58.3,10.2c0.3-0.8,1-0.8,1.5,0l13.6,27.6c0.3,0.8,1.5,1.6,2.3,1.6l30.4,4.4c0.8,0.2,1.1,0.8,0.5,1.3
			L84.5,66.8c-0.6,0.6-1,1.8-0.8,2.8l5.2,30.2c0.2,0.8-0.3,1.3-1.1,0.8L60.4,86.3c-0.8-0.5-2.1-0.5-2.9,0l-27.3,14.3
			c-0.8,0.5-1.3,0-1.1-0.8l5.2-30.4c0.2-0.8-0.3-2.1-0.8-2.8L11.5,45.3C10.9,44.7,11,44,12,44l30.4-4.4c0.8-0.2,1.9-0.8,2.3-1.6
			L58.3,10.2z"/>
	</g>
</g>
</svg>
