<?xml version="1.0" encoding="utf-8"?>
<!-- Generator: Adobe Illustrator 22.0.1, SVG Export Plug-In . SVG Version: 6.00 Build 0)  -->
<svg version="1.1" id="Calque_1" xmlns="http://www.w3.org/2000/svg" xmlns:xlink="http://www.w3.org/1999/xlink" x="0px" y="0px"
	 viewBox="0 0 89 89" style="enable-background:new 0 0 89 89;" xml:space="preserve">
<style type="text/css">
	.st0{fill:url(#SVGID_1_);}
</style>
<g>
	
		<linearGradient id="SVGID_1_" gradientUnits="userSpaceOnUse" x1="28.2464" y1="56.2331" x2="65.8288" y2="34.5539" gradientTransform="matrix(1 0 0 -1 0 90)">
		<stop  offset="0" style="stop-color:#FF00FF"/>
		<stop  offset="0.1354" style="stop-color:#FB01FE"/>
		<stop  offset="0.2622" style="stop-color:#F003FB"/>
		<stop  offset="0.3857" style="stop-color:#DD07F6"/>
		<stop  offset="0.5072" style="stop-color:#C20DF0"/>
		<stop  offset="0.6272" style="stop-color:#A015E7"/>
		<stop  offset="0.7461" style="stop-color:#761EDD"/>
		<stop  offset="0.8641" style="stop-color:#4428D0"/>
		<stop  offset="0.9786" style="stop-color:#0B35C2"/>
		<stop  offset="1" style="stop-color:#0037BF"/>
	</linearGradient>
	<path class="st0" d="M62,57.9l-8.1-8.1c1.7-2.5,2.6-5.4,2.6-8.5c0-4-1.6-7.8-4.4-10.7c-2.8-2.9-6.7-4.4-10.7-4.4s-7.8,1.6-10.7,4.4
		c-2.9,2.8-4.4,6.7-4.4,10.7s1.6,7.8,4.4,10.7c2.9,2.8,6.7,4.4,10.7,4.4c2,0,4-0.4,5.8-1.2c0.9-0.4,1.8-0.9,2.7-1.4l8.1,8.1
		c0.6,0.6,1.3,0.8,2.1,0.8s1.5-0.3,2.1-0.8C63.1,60.8,63.1,59,62,57.9z M34.7,48C33,46.2,32,43.8,32,41.3s1-4.8,2.8-6.6
		c1.8-1.8,4.1-2.8,6.6-2.8s4.8,1,6.6,2.8c1.8,1.8,2.8,4.1,2.8,6.6c0,1.2-0.2,2.5-0.7,3.6s-1.2,2.1-2,3c-1.8,1.8-4.1,2.8-6.6,2.8
		C38.8,50.7,36.5,49.7,34.7,48z"/>
</g>
</svg>
