<?xml version="1.0" encoding="utf-8"?>
<!-- Generator: Adobe Illustrator 22.0.1, SVG Export Plug-In . SVG Version: 6.00 Build 0)  -->
<svg version="1.1" id="Calque_2_1_" xmlns="http://www.w3.org/2000/svg" xmlns:xlink="http://www.w3.org/1999/xlink" x="0px"
	 y="0px" viewBox="0 0 145 208" style="enable-background:new 0 0 145 208;" xml:space="preserve">
<style type="text/css">
	.st0{fill:#4A3055;}
	.st1{fill:#F5F2F9;}
	.st2{fill:#2D0D2D;}
</style>
<g>
	<g>
		<g>
			<path class="st0" d="M143.3,16.8v174.5c0,8.4-6.8,15.2-15.2,15.2H57.8c-8.4,0-15.2-6.8-15.2-15.2V16.8c0-8.4,6.8-15.2,15.2-15.2
				h70.3C136.5,1.6,143.3,8.4,143.3,16.8z"/>
		</g>
	</g>
	<g>
		<g>
			<path class="st1" d="M138.8,16.8v174.5c0,6-4.9,11-11,11H58.2c-6.1,0-11-4.9-11-11V16.8c0-6,4.9-11,11-11H68c0.5,0,1,0.4,1,1v0.7
				c0,3.5,2.6,6.4,5.8,6.4h36.6c3.2,0,5.8-2.9,5.8-6.4V6.8c0-0.6,0.4-1,1-1h9.8C133.9,5.8,138.8,10.8,138.8,16.8z"/>
		</g>
	</g>
	<path class="st2" d="M97.5,9.7h-9.6c-0.5,0-0.9-0.4-0.9-0.9l0,0c0-0.5,0.4-0.9,0.9-0.9h9.6c0.5,0,0.9,0.4,0.9,0.9l0,0
		C98.4,9.2,98,9.7,97.5,9.7z"/>
	<circle class="st2" cx="105" cy="8.7" r="1.3"/>
</g>
</svg>
