<?xml version="1.0" encoding="utf-8"?>
<!-- Generator: Adobe Illustrator 22.0.1, SVG Export Plug-In . SVG Version: 6.00 Build 0)  -->
<svg version="1.1" id="Calque_1" xmlns="http://www.w3.org/2000/svg" xmlns:xlink="http://www.w3.org/1999/xlink" x="0px" y="0px"
	 viewBox="0 0 1280 1024" style="enable-background:new 0 0 1280 1024;" xml:space="preserve">
<style type="text/css">
	.st0{fill:#C6D9F4;}
	.st1{opacity:0.56;fill:#6D1FE8;enable-background:new    ;}
	.st2{opacity:0.56;fill:#777777;enable-background:new    ;}
	.st3{fill:#D3D3D3;}
	.st4{fill:#1E1E1E;}
	.st5{fill:#E4EDF9;}
	.st6{fill:#070707;}
	.st7{fill:#B2B2B2;}
	.st8{fill:#AA7117;}
	.st9{fill:#19130A;}
	.st10{fill:#53A4C1;}
	.st11{fill:#3D3017;}
	.st12{fill:#FFD2B3;}
	.st13{fill:#FFBB88;}
	.st14{fill:#2088BC;}
	.st15{fill:#252D2A;}
	.st16{fill:#EFAD89;}
	.st17{opacity:0.67;fill:#96592F;enable-background:new    ;}
	.st18{fill:#D69013;}
	.st19{fill:#C48014;}
	.st20{fill:#D37B40;}
	.st21{fill:#090E16;}
	.st22{fill:#1C283F;}
	.st23{fill:#B6CBFF;}
	.st24{fill:#4564D6;}
	.st25{fill:#5A84F9;}
	.st26{fill:#2C3C6B;}
	.st27{fill:#E0A57E;}
	.st28{fill:#FFBB8D;}
	.st29{fill:#DB9667;}
	.st30{fill:#E55C00;}
	.st31{fill:#BF8C6A;}
	.st32{fill:#E26305;}
	.st33{fill:#FF7300;}
	.st34{fill:#FFA466;}
	.st35{fill:#E8E8E8;}
	.st36{fill:#FFFDFF;}
	.st37{fill:#E7ADEA;}
	.st38{fill:#E5E5E5;}
	.st39{fill:none;stroke:#D322DD;stroke-width:4;stroke-miterlimit:10;}
	.st40{fill:#F7F7F7;}
	.st41{fill:#9822FF;}
</style>
<g>
	<circle class="st0" cx="639.7" cy="512.3" r="471.7"/>
	<g>
		<path class="st1" d="M1015.4,654.4c37.2-17.5,37.4-45.9,0.5-63c-37-17.1-97.7-17-134.9,0.2c-37.2,17.3-37.4,45.6-0.5,63
			C917.4,672.1,978.1,672,1015.4,654.4z"/>
		<path class="st1" d="M354.4,706c37.2-17.5,37.4-45.9,0.5-63c-37-17.1-97.7-17-134.9,0.2s-37.4,45.6-0.5,63
			C256.5,723.6,317.2,723.5,354.4,706z"/>
		<g>
			<path class="st2" d="M704.4,572.2c-8.2-3.8-21.5-3.8-29.7,0l-136.8,63.4l69,31.7l5.1-2.4l7.1-3.3L758,597L704.4,572.2z
				 M764.5,600.1l-142.8,66.2l-6.9,3.2l-15.3,7.1c-8.2,3.8-21.5,3.8-29.7,0l-60.2-28l-11.2,5.2l71.5,33.2c8.2,3.8,21.5,3.8,29.7,0
				l17.7-8.2l6.6-3l152-70.5L764.5,600.1z"/>
			<path class="st1" d="M823.5,641.4L604.9,742.8c-8.2,3.8-21.5,3.8-29.7,0l-119.4-55.5c-8.2-3.8-8.2-10,0-13.8l42.4-19.7l71.5,33.2
				c8.2,3.8,21.5,3.8,29.7,0l17.7-8.2l6.6-3l152-70.5l47.9,22.3C831.7,631.4,831.7,637.6,823.5,641.4z"/>
			<path class="st3" d="M730.1,531c-4.3,0.8-7.8,2.7-8.6,5.6c2,7.3,20.3,8.1,25.7,2.3L730.1,531z M819.5,562.2
				c6.7,3.8,6.2,9.5-1.4,13.1l-8.8,4.1l-6.8,3.2l-38,17.6l-142.8,66.2l-6.9,3.2l-15.3,7.1c-8.2,3.8-21.5,3.8-29.7,0l-60.2-28
				l-59.2-27.5c-6.3-2.9-7.7-7.3-4.3-10.9c-2.7,2.2-4.4,5.5-4.4,9.3c0,4.3,2.3,8.1,5.7,10.2h0.1c0.8,0.6,1.8,1.2,3,1.8l47.9,22.3
				l71.5,33.2c8.2,3.8,21.5,3.8,29.7,0l17.7-8.2l6.6-3l152-70.5l28-13l6.4-3l7.9-3.7c2.6-1.2,4.4-2.6,5.3-4.2c1.9-2.2,3-5,3-8.1
				C826.3,568.5,823.5,564.3,819.5,562.2z M606.8,667.3l5.1-2.4l7.1-3.3L757.9,597l40.4-18.8l-131.7-60.6l-191.8,88.8l63.1,29
				L606.8,667.3z"/>
			<path class="st4" d="M818,575.3l-8.8,4.1l-6.8,3.2l-38,17.6h-0.1l-142.5,66l-6.9,3.2l-15.3,7.1c-8.2,3.8-21.5,3.8-29.7,0
				l-60.2-28L450.5,621c-6.3-2.9-7.7-7.3-4.3-10.9c1-1.1,2.4-2,4.3-2.9L669.3,506c8.2-3.8,21.5-3.8,29.7,0l119,55.5
				c0.4,0.1,0.8,0.3,1.2,0.5c0.1,0,0.2,0.1,0.2,0.1C826.2,566.1,825.7,571.7,818,575.3z"/>
			<polygon class="st5" points="793.9,579.5 753.5,598.3 614.6,662.8 607.5,666.1 602.4,668.5 533.5,636.7 470.4,607.7 465.8,605.6 
				657.3,516.6 662.2,518.9 			"/>
			<path class="st6" d="M750.2,536.9c-0.2,0.9-0.7,1.6-1.3,2.3c-5.4,5.7-23.7,4.9-25.7-2.3c0.8-2.9,4.3-4.8,8.6-5.6
				C739.2,529.9,748.8,531.8,750.2,536.9z"/>
		</g>
		<path class="st7" d="M623.7,675.8l-6.6,3c-0.2-3.4-1-6.5-2.4-9.3l6.9-3.2C622.9,669.2,623.6,672.5,623.7,675.8z"/>
		<path class="st7" d="M810.3,586.5c0,1,0,1.9-0.2,2.9l-6.4,3c0-0.6,0.1-1.2,0.1-1.9c0-2.8-0.4-5.5-1.3-8l6.8-3.2
			C809.9,581.6,810.3,584,810.3,586.5z"/>
		<g>
			<path class="st8" d="M968.1,210.3c0,0,4.9-1.3,6.7,1.3s4,5.9,3.7,8.6c-0.3,2.6-1.4,6.2-1.4,6.2s2.6-1.9,5.1-9.7
				s4.2-17.6,4.2-17.6s-9.6,2.6-12.2,3.4C971.7,203.3,968.1,210.3,968.1,210.3z"/>
			<path class="st9" d="M1010,593.4c0,0,5.4,6.8,4.3,10.9c-1.1,4.1-5,6.8-5.9,9.6s0.3,11.3-3,17.4c-3.3,6.1-8.3,19.4-23.8,27.4
				s-23.5,3.9-23.5,3.9s-2.2-2.7-2.6-5.1c-0.4-2.5,2.2-4.3,2.2-4.3s5.4,0.6,14.8-5.2c9.4-5.7,25.2-30.7,25.2-30.7L1010,593.4z"/>
			<path class="st10" d="M946.2,551.1c0,0-0.1,4,1.4,6.1s4,6.8,4.2,9.4c0.1,2.6-1.8,10.1-7.8,10.3c-6,0.1-13.2-5.8-13.2-8.5
				s0.7-5.8,0.7-8.7c0-2.8-0.7-6.9-0.7-6.9L946.2,551.1z"/>
			<path class="st10" d="M982.3,553.6c0,0,1.7,16.1,1.4,20.1s-0.7,8.2-0.7,8.2s6.6-3.2,9.8-2.4s8.3,5.3,8.3,5.3l4.1-3.7
				c0,0-2.2-11.2-3.2-17.1c-1-5.8-1.9-10.4-1.9-10.4L982.3,553.6L982.3,553.6z"/>
			<path class="st9" d="M875.7,618.4l-2.8,1.3l1.4,6.8c0,0,1.8,3.6,30.1-0.9c10-1.6,31.5-13.9,37.7-15.7c6.3-1.9,12.1-3.9,16.2-5.6
				c4.1-1.7,5.6-6.5,5.6-6.5l-1.1-5.4h-2.4l-26.8,10l-37.9,12L875.7,618.4z"/>
			<path class="st11" d="M930.8,566.7c0,0-13.5,15.8-23.6,22.5s-30.4,16.9-32.2,20.7c-1.8,3.7,0,11.4,0,11.4s28.3,3.3,43.3-5.1
				c15-8.5,20.3-11.7,27.5-13.6s15.4-4.4,15.8-7.6c0.4-3.2,0-15.4-4.6-22.5c-2.4-3.6-6.3-9.3-6.3-9.3s-1.4,7.9-5.7,7.9
				S930.8,566.7,930.8,566.7z"/>
			<path class="st12" d="M825.7,336.9c0,0-4.1-5.9-5.6-7.2c-1.5-1.2-3.2-5.8-4.2-9.3s-4.6-9.3-7.5-9.9s-5.3,1.7-4,6
				c1.2,4.3,3.6,8.6,4.2,11c0.6,2.4-0.4,8.2-2.8,8.7s-22.9-2.6-26.8-1.5c-3.9,1.1-7.1,6.5-3.5,7.5s18.3,2.8,18.3,2.8
				s-12.2,3.5-12.9,5.1c-0.7,1.7,3.9,8.3,7.6,11.7c3.7,3.3,13.6,10.8,21.8,8.3s11.1-4.6,16-10.2s7.2-9.3,5.8-12.5s-4.7-7.4-4.9-7.8
				S825.7,336.9,825.7,336.9z"/>
			<path class="st13" d="M903.4,280l-16.3,32.6L832,336.9h-6.3c0,0,0.9,1.9,0.9,6c0,1.7,4.4,2.8,4.2,6.2c-0.3,4.7-5.1,11.8-5.1,11.8
				s53.7-19.2,62.2-21.8c8.5-2.6,11.1-5.9,15.5-16.3s11.8-22.6,11.8-22.6l-2.6-20.3L903.4,280L903.4,280z"/>
			<path class="st14" d="M915.3,344.3c0,0-6.3,114-3,123.3s9.6,24.4,10.4,38.1c0.8,13.7,2.2,34.4,2.2,38.9c0,4.4,0.4,9.3,4.4,10.4
				c4.1,1.1,11.5,3,15.2,0s5.6-6.3,4.8-10.7c-0.7-4.4-3-5.6-3.7-14.4s1.1-42.2-1.1-49.6c-2.2-7.4-7.4-22.2-5.9-33.7
				s3.7-67.4,7.4-67.7c3.7-0.4,17.4,4.4,18.1,9.3s9.6,69.2,9.6,77.7s1.1,20,3.7,30.3s3,15.2,3,25.9s-3,28.9,0,31.8
				c3,3,12.2,7.4,17.8,5.6c5.6-1.9,5.9-1.9,6.7-15.9c0.7-14.1,1.1-33.3-1.9-48.5s-5.6-20.4-5.2-34.4s5.6-74.4,5.6-74.4l-6.3-27.4
				l-1.9-14.5L915.3,344.3L915.3,344.3z"/>
			<path class="st13" d="M1015.4,309c0,0,14.9,7.2,20.3,11.5s12.6,5.2,10.6,8.3c-2,3.1-19.6,19.6-22.9,23.9s-12.4,8.9-12.4,8.9
				l-10.5-6.7c0,0-1.8-3.8-4.1-3.4s-4.3,0.3-3.7,3.2c0.6,2.9,1.7,5.6,1.7,5.6s-20.7,3.3-21.3,4.8s-2.6,5.6,1.1,5.7
				c3.7,0.2,14.8-3.3,15.4,0s-11.1,9.8-12.2,10.5s-1.9,7,1.7,7.4s8.5,2,10.9,0.9s11.8-8,11.8-8s-2.2,6.3-4.1,8.3
				c-1.9,2-8.1,5-7.4,7.2c0.7,2.2,1.9,3.5,6.5,1.9c4.6-1.7,6.8-3.1,8.5-5.4c1.7-2.2,9.3-20.7,12.4-21.8s49.8-27.8,54.2-33.1
				s5.6-13,1.1-18.1c-4.4-5.2-40.7-30.5-40.7-30.5L1015.4,309z"/>
			<path class="st15" d="M957.6,237c0,0-29.8,2.8-33.7,6.1s-12.2,13.5-17.8,24.6s-5.6,11.1-5.6,11.1s0.6,3.9,5.2,5.6
				c4.6,1.7,5.9,2,5.9,2l3,55.7c0,0-0.9,5,12,10.2c13,5.2,31.8,12.4,42.6,11.1c10.7-1.3,24.8-6.1,24.8-6.1s-1.5-3.9,0-5.4
				s3.9,0.4,3.9,0.4s-0.6-18.3,1.1-25.5c1.7-7.2,6.3-20.4,6.3-20.4s1.3,7.4,3.5,7s7.2-1.9,12.4-5.6s13.3-9.4,14.2-13.3
				s-3.7-7-8.1-13.5s-7.6-11.7-8.5-13.9c-0.9-2.2-39.9-21.3-39.9-21.3l-7.5-2L957.6,237z"/>
			<path class="st16" d="M975.4,213.5l-6.7,8.9l-5,6.7l-11.5,10.3c0,0,1-0.3,1.2,3.3c0.3,3.6-1.2,16.9-1.2,16.9s8.2,5.4,14,2.8
				s11.7-12.1,12.1-13.2c0.4-1.1-3.5-4.9-3.5-9.2s3.5-17.1,3.7-20c0.3-2.9-2.4-6.6-2.4-6.6h-0.7L975.4,213.5L975.4,213.5z"/>
			<path class="st13" d="M931.4,177.4c1.4-0.8-8.7,6.4-9.8,17.1c-1.1,10.7-0.3,23.6,1.5,30.7c1.8,7.1,6.9,17.9,10.3,18.6
				c3.3,0.7,14-0.6,22.2-4.3s9.3-6.7,9.3-6.7s2.6-2.2,3.6-5.7c0.6-2.1,0.8-3.4,0.8-4.1c0-0.3,0.3-0.6,0.6-0.7
				c1.3-0.3,4.2-1.2,5.5-3.5c1.7-2.9,4.2-9.4,3.5-11c-0.7-1.5-5-4-8.2,0s-2.1,8.3-4.7,11.1c-2.6,2.8-4.9,2.8-5.3,1.1
				c-0.4-1.7,0-8.3-0.4-10c-0.3-1.2-0.8-2-1.2-2.5c-0.1-0.2-0.3-0.3-0.6-0.3c-0.7-0.1-2.4-0.2-3.7-0.7c-1.7-0.6-1.7-0.6-1.7-0.6
				s1.6,4.3-0.6,5.1c-2.6,1-10.8-2.6-18.6-24.2C932.2,181.7,931.4,177.4,931.4,177.4z"/>
			<path class="st17" d="M929.3,195.4c0,0,4.3,4.3,4.8,8.7s-2.1,10.8-2.9,12.5s-0.7,3.7,0.9,4.2c1.6,0.5,4.4,0.8,5.8,0
				c1.4-0.8,1.5,0,0.3,0.5s-3.9,1.6-6.5,0.6s-3.1-2.4-2.4-4.4s3.3-8.2,3.1-10.8s-1.5-5.1-3.5-6.5c-1.9-1.4-3.9-2.5-3.9-2.5
				L929.3,195.4z"/>
			<path class="st8" d="M955.8,204.6c0,0,3.9,2,3.6,8.6s0.4,10.1,3.4,9.1s6.1-6.6,6.3-8.7c0.2-2.1,4.3-9.6,4.3-9.6h-18L955.8,204.6z
				"/>
			<path class="st18" d="M929.1,194.9c2.3,2.1,4.6,6.4,2.5,6c-2.2-0.3-3.7-2.7-6.7-2.6c-2.1,0-3.3,0.7-4.3-0.1
				C919.6,197.3,919.3,185.7,929.1,194.9z"/>
			<ellipse cx="928.3" cy="208.6" rx="1" ry="2"/>
			<ellipse cx="948.5" cy="211.6" rx="1" ry="2"/>
			<path class="st19" d="M967.9,204.7c0,0,9.4,1.3,13,0s11.3-6.1,11.3-7.3s-2.7-17-6.2-21.8s-8.9-12-18.8-13.2
				c-9.9-1.2-14.7-1.8-22.7,0.6c-8,2.3-15.9,5.4-15.9,5.4l22.3,6.4L967.9,204.7z"/>
			<path class="st20" d="M944.7,229.3c-1.2-1.2-7.2-0.5-9.6-0.8c-2.4-0.2-4.6-1.7-4.6-1.7s0.7,1.3,1,2.6s0.3,1.7,1.2,3.6
				c0.9,1.9,4.2,2.7,6.4,2.8s4.9-0.6,6.3-2.1C946.7,232.3,945.9,230.6,944.7,229.3z"/>
			<path class="st18" d="M931.1,179.2c0,0-2.8,10.7,2.6,17.9s13.2,14.3,16.9,14.5c3.7,0.1,3.9-1.1,3.7-2.7c-0.1-1.6-1.1-2.2-1.1-2.2
				s0.9,0.7,5.2,0.6c4.2-0.1,15.7-0.9,19.1-3.2c3.3-2.2,9.7-5.5,9.2-7.9c-0.6-2.4-6.5-1.3-10.8-3.6c-4.3-2.4-9.6-12.1-15.3-16.5
				s-11.5-8.5-16.8-8.5s-6.8,0-6.8,0s-5-1.9-9.7,0s-10.1,5.6-11.9,9.7c-1.8,4.2-0.8,8.5-2.8,10.8c-1.9,2.4-5.1,3.3-4.9,5
				c0.3,1.7,3.7,2.4,3.7,2.4s-3.9,5.3-3.1,6.9c0.8,1.7,3.9,2.6,7.6,0.1s6.7-5.7,9.6-11.8C928.6,184.6,931.1,179.2,931.1,179.2z"/>
			<path class="st11" d="M983.4,577.1c0,0-9.4,34.1-15.2,48.1c-5.7,14.1-11.7,24.1-11.5,26.6c0.2,2.6-0.2,4.6,5.1,5.6
				c5.3,0.9,30.4-10.9,34.9-16.7c4.4-5.7,9-15.3,8.7-20.2s-0.5-4.9,3-10.1c3.5-5.2,5.4-8.7,4.1-14.1c-1.3-5.4-2-12.7-4.8-16.1
				s-2,0.2-3.5,1.9s-2.6,3.3-5.6-0.6c-3-3.9-7.6-6.7-10.5-5.9C985,576.4,983.4,577.1,983.4,577.1z"/>
		</g>
		<g>
			<path class="st21" d="M235.8,456.9c0,0-3.8-3.5-6.1-2.3s-4.8,1.4-4.2,8s9.7,31.3,10.3,34c0.6,2.8,2.7,11.8,3.5,15
				c0.8,3.2,2.7,8.5,6.9,10.7s7.7,4.2,9.7,4.1c2-0.1,4.9,1,3.7-1.2C258.3,523.1,235.8,456.9,235.8,456.9z"/>
			<path class="st21" d="M249.8,552c0,0-5.1,0.4-8,4s-4.4,7.4,0,14.6c4.4,7.2,9.4,8.3,12.3,13.1c2.9,4.8,16.5,30.2,22.2,34.4
				s17.4,10.5,22.6,9c5.2-1.4,6.4-2.9,6.7-5.2c0.3-2.2-2-4.2-2-4.2l-31.3-34.8L249.8,552z"/>
			<path class="st22" d="M255.7,461.1c0,0-3.9-3.2-8.4-3.7s-11.5-0.6-11.5-0.6s6.7,36.7,8.1,42.3c1.4,5.6,3.3,14.6,5,17.1
				s8.2,9.1,9.3,9.2c1.1,0.1,4.5-0.1,3.9-3.9s-1.2-4.3-1.5-6.6s1.5-40.6,1.5-40.6l-5.9-8.3L255.7,461.1z"/>
			<path class="st23" d="M265.3,458.6l-10.4,2c0,0-0.7,8.3,1.7,10.9c2.4,2.6,4.7,4.6,4.7,4.6l11.1-4.8L265.3,458.6z"/>
			<path class="st23" d="M267.2,530.4c0,0-12.3,18.5-12.5,20.4c-0.2,1.8-1.7,7.8,1,8.3c2.7,0.6,6.8-2.5,9.6-3.4s10.9-2.8,12.8-2.4
				c1.8,0.5,7-16.2,7-16.2L267.2,530.4z"/>
			<path class="st24" d="M295.4,439.5c0,0-9.6,3.6-15.1,7.3c-5.5,3.7-9.9,6.6-12.4,7.6s-4.3,1-3.4,5.1c0.8,4.1,6.3,13.4,8.7,14.2
				c2.3,0.8,1.9-1.8,5.4-2.2c3.4-0.4,21.1-5.6,21.1-5.6l-2.6-27.1L295.4,439.5z"/>
			<path class="st24" d="M366.4,336.9c0,0-3.7,37.7-9,56.8c-5.4,19.1-9.2,30-10.2,39.1s0.1,12.7-3.6,15.8
				c-3.7,3.2-14.9,9.8-14.9,9.8l10.7-122.2L366.4,336.9z"/>
			<path class="st25" d="M339.3,344.8c0,0-5.2,69.8-6.5,82.4c-1.2,12.7-5,50-7.2,55.3s-25.3,35.4-28.8,40.5
				c-3.4,5.1-9.1,19.7-10.3,20c-1.2,0.3-15.8-3.6-19.1-9.4c-3.3-5.8-1.2-4,1.2-8.7s6.5-17.1,7.2-21.1s7.3-17.8,12.8-24.5
				s8.7-7.7,8.9-10.9c0.3-3.2-5.6-67.1-6.2-74.1s-0.6-20.7,0.8-28.6c1.4-7.8,9.2-21.1,9.2-21.1h38V344.8z"/>
			<path class="st26" d="M304.4,238.9c0,0-14.9,11.9-17.8,14.3c-2.9,2.3-12.9,18.9-14.5,33.9c-1.5,15-7.8,53.1-5.4,60.1
				c2.5,7,19.8,18.2,39.9,27.3c20.1,9.1,27.9,14.7,27.9,14.7s-4.8-12.1-3.6-15.1c1.2-3-0.1-3-0.1-3s-12.8-9.1-19.3-14.7
				s-20.9-17.1-23.4-20.6c0,0-1.2-1.7,0.4-7.8c1.7-6.2,3.3-10.9,3.3-10.9l3.2,29.7c0,0,6.1,4.4,9.5,6.5s24.5,3.4,35.8-0.1
				s27.4-14.5,27.9-16.5c0.6-2.1,1.9-27,2.5-29.3s1.2-4.5,1.2-4.5s2.6,9.1,8.1,14c5.5,5,7.4,5.8,13.9,7s41,7,41,7s-0.6-6.5,0.7-8.9
				c1.2-2.5,4.5-4.3,4.5-4.3s-41.7-12.4-45.3-15s-6.1-6.9-8.8-15.8c-2.8-8.9-10.5-28.1-11-33.7c-0.6-5.6-5.2-16.2-8.8-20.6
				c-3.6-4.4-8.6-4.7-13.2-5c-4.6-0.2-12.6,0.8-13.7,0s-12.5-2.1-12.5-2.1L304.4,238.9z"/>
			<path class="st27" d="M330.3,223.4c0,0-0.9,9.9,0,12.8s4.6,8.9,4.6,11.5c0,4.5-8.5,10.9-15.8,7.4c-7.3-3.5-9.4-7-12.8-11
				s1.6-7.2,0.2-19.6c-0.7-6.6-2.7-16.9-2.7-16.9l9,7.5l11.9,5.4L330.3,223.4z"/>
			<path class="st28" d="M354,179.2c0,0,0.9,22.9,0,29.2c-0.9,6.2-2.8,16.6-5.2,18.7c-2.5,2.1-14.4,1.6-21.5-0.9s-15.1-5.8-17.5-8.6
				c-1.6-1.9-1.4-4.8-3.4-5.7s-8.3-5-8.8-8.5s3.4-6.7,6-5.3s3.5,1.6,5.1,4.7c1.7,3.1,3.6,6,5.1,4.8s0-7.4,0.4-9.4
				c0.4-1.9,1.6-4.5,1.9-4.5c0.4,0,3.8-0.3,5.1-2.4c1.4-2.1,1.8-3.6,3.1-2.9c1.3,0.6,6.7,2.6,10.6,0.6s6.2-4.2,6.9-6.2
				c0.6-2,0.3-4.1,1.7-3.4c1.4,0.7,3.4,2.2,6.5,1.6C353.1,180.1,354,179.2,354,179.2z"/>
			<ellipse cx="332.7" cy="204.7" rx="1" ry="2"/>
			<ellipse cx="350.6" cy="196.2" rx="1" ry="2"/>
			<path class="st29" d="M344.7,186.5c0,0-0.1,8.1,0.9,11.3s3.2,7.2,3.5,8.3c0.4,1.5,0.3,3.1-0.8,4c-1.1,0.9-3.3,1-4.6,0.8
				c-1.3-0.2-3.4-0.4-3.3-0.1c0.1,0.3,4.8,2.2,7.1,1.1c2.3-1.2,4.6-3.4,2.6-7.7c-0.8-1.8-3.2-6-3.1-8.4s0.6-6.1,1.9-8.2
				s-1.1-1.6-1.1-1.6L344.7,186.5z"/>
			<path class="st30" d="M321.5,195c-1.1,1.7-2.9,5.6-0.6,6c3.5,0.7,5-4.4,8.2-5.7c3.6-1.5,4.9-0.9,5.8-1.7c1.8-1.3,0.7-3.9-1.9-3.8
				C330.4,190,325.4,189.1,321.5,195z"/>
			<path class="st30" d="M344.7,185.5c-0.7,1.9,1,4,2.6,3.3s2.7-3,4.3-3.4c1.6-0.4,3-0.8,3.4-2.1s0-3.1-1.4-3.4
				C352.7,179.7,346.5,180.7,344.7,185.5z"/>
			<path class="st31" d="M348.6,213.9c0,0-1.4,1.9-3.8,3.2c-2.5,1.4-4.4,2.1-5.4,1.6c-1-0.4-1.8-1.3-2.6-0.9
				c-0.8,0.4-1.4,1.7-0.4,2.4s2,0,2.6,0s5.1-0.8,6.7-2.1s3.5-3.3,3.6-4C349.5,213.5,348.6,213.9,348.6,213.9z"/>
			<path class="st32" d="M317.3,192.3c0,0-3,4.4-2.6,8.2s0.8,7.8-0.6,8c-1.5,0.2-4-1.9-5.7-4.7s-4.4-5.9-6.4-5.6c-2,0.3-4.2,3-4.2,3
				s-3.3-3.8-3.3-5.6c0-1.9-1-4.5-1-4.5s6.2-1.6,7.5-2.8c1.3-1.3,0.7-1.6,2-0.5s4.6,4.2,7.2,5S317.3,192.3,317.3,192.3z"/>
			<path class="st33" d="M286.4,164.7c0,0-6,1.4-7,8.2c-0.9,6.2,1.4,7.8,3,9.7c1.7,1.9-0.6,3.1,0.9,5.1s6.9,5.7,11.7,3.7
				c4.9-2,5.5-4.5,8.5-1.9s3.9,6,12.8,4.7c5.8-0.8,5.2-6.3,7.1-5.3c10.1,5.6,18.4-2.2,19.1-5.2s0.6-3.5,1.9-3.2
				c2,0.5,9.2,0.7,10.6-0.6c1.4-1.4,2.8-2.5,3.5-4.6c0.6-2.1,0-2.7,0-2.7s7.2,0.5,7.2-5.6c0-10.6-8.2-9.4-8.2-9.4s3.6-6.3-2.6-10.4
				c-9.4-6.2-14.4,1.5-15.7,0.3c-1.3-1.2-4.6-8-11.6-8c-6.1,0-9.7,1.5-13,5.2c-3.3,3.8-4.9,3.8-4.9,3.8s-4.5-4.2-10.9-1.8
				C284,152.2,286.4,164.7,286.4,164.7z"/>
			<path class="st28" d="M333.4,388.4c0,0,2.6,5.4,5.1,5.9c2.6,0.6,4.8-1.7,5-3.7c0.3-2.1-3.7-5.2-3.3-10.3c0.4-5.1,0.6-8.8,2.1-8.9
				s4.4,5.5,5.7,0c0.3-1.2,0.7-3.4,1.1-5.2c0.4-1.8,1.8-1.7,2.8,0s0.3,7.2,2,8s-1.9-7.6-1.9-8.8s4.2,0.6,6.6-0.5
				c1.8-0.7,3.1-0.9,6.5-3.5c1.8-1.4,7.2-6.1,5.2-7.4c-1.9-1.4-9.5-0.3-14.5,2.1c-5,2.3-11.7,6.5-11.7,6.5s-6.3-0.4-8.8,0.9
				s-2.1,4.6-2.1,6.4s-2.2,1.4-3,4.1C329.6,376.5,333.4,388.4,333.4,388.4z"/>
			<path class="st34" d="M339.9,393.8c0,0,1.9-2.1,1.4-5.4c-0.6-3.3-4-6.1-3.3-10.5s1-7.4,3.4-7c2.5,0.4,5.9-0.1,5.8-1.8
				s-2.9-4.7-1.4-5.5s7.3,0,8.4,1.2s-0.4,6.1,0.8,7.7c1.2,1.7,5.6,1.5,6.7-0.3s5.6-2.8,4.4,1.7c-1.2,4.4-4,12.1-7.6,13.4
				c-3.6,1.2-8,1.1-8,1.1s-3.9,3.7-6.5,4.5C341.5,393.8,339.9,393.8,339.9,393.8z"/>
			<g>
				<path class="st35" d="M540.5,319.4c0-11-8.2-16.2-18.1-11.6l-163.5,75.8c-10,4.6-18.2,17.4-18.2,28.4l-0.4,208
					c0,11,8.1,16.2,18.1,11.6l164.1-76.1c10-4.6,18.1-17.4,18.1-28.4L540.5,319.4z"/>
			</g>
			<g>
				<path class="st36" d="M544.8,321.4c0-11-8.2-16.2-18.1-11.6l-163.5,75.8c-10,4.6-18.2,17.4-18.2,28.4l-0.4,208
					c0,11,8.1,16.2,18.1,11.6l164.1-76.1c10-4.6,18.1-17.4,18.1-28.4L544.8,321.4z"/>
			</g>
			<g>
				<path class="st37" d="M512,343.1c4.9-2.3,8.9,0.3,8.9,5.7v20.8c0,5.4-4,11.6-8.9,13.9L377.3,446c-4.9,2.3-8.9-0.3-8.9-5.7v-20.8
					c0-5.4,4-11.6,8.9-13.9L512,343.1z"/>
				<path class="st38" d="M501.5,406.8c2.4-1.1,4.4,0.1,4.4,2.8V420c0,2.7-2,5.8-4.4,6.9l-122.1,57.3c-2.4,1.1-4.4-0.1-4.4-2.8V471
					c0-2.7,2-5.8,4.4-6.9L501.5,406.8z"/>
				<path class="st38" d="M522.8,425.3c2.4-1.1,4.4,0.1,4.4,2.8v10.4c0,2.7-2,5.8-4.4,6.9l-122.1,57.3c-2.4,1.1-4.4-0.1-4.4-2.8
					v-10.4c0-2.7,2-5.8,4.4-6.9L522.8,425.3z"/>
				<path class="st38" d="M508.3,459c2.4-1.1,4.4,0.1,4.4,2.8v10.4c0,2.7-2,5.8-4.4,6.9l-122.1,57.3c-2.4,1.1-4.4-0.1-4.4-2.8v-10.4
					c0-2.7,2-5.8,4.4-6.9L508.3,459z"/>
				<path class="st38" d="M522.8,479.7c2.4-1.1,4.4,0.1,4.4,2.8v10.4c0,2.7-2,5.8-4.4,6.9l-122.1,57.3c-2.4,1.1-4.4-0.1-4.4-2.8
					v-10.4c0-2.7,2-5.8,4.4-6.9L522.8,479.7z"/>
				<path class="st39" d="M512,343.1c4.9-2.3,8.9,0.3,8.9,5.7v20.8c0,5.4-4,11.6-8.9,13.9L377.3,446c-4.9,2.3-8.9-0.3-8.9-5.7v-20.8
					c0-5.4,4-11.6,8.9-13.9L512,343.1z"/>
			</g>
			<path class="st28" d="M440.3,317.5c0,0-4.7,1.1-5.9,5.6c-1.2,4.5,0.7,7.6,0.7,7.6s6.2,0.6,9.9,3s11.7,6.1,14.2,5.5s2.1-3.3,0-5.5
				s-1.4-5.9,2.3-5.3c3.7,0.5,7.8,7.4,11.8,8s13.8,1.2,15-0.6c1.2-1.8,2.2-2.9-1.9-8.4s-8.7-12.7-10.6-13.2
				c-1.9-0.6-26.3,2.9-28.9,3.2S440.3,317.5,440.3,317.5z"/>
			<path class="st22" d="M259.3,542.5c0,0-6.1,3.7-7.7,5.2c-1.6,1.5-3.8,6.6-3.8,6.6s4.8,14.8,9.4,22.7c4.6,7.9,16.2,26.2,18.8,29.3
				c2.5,3.1,12.3,13,15.7,14.2s9.3,3.1,11.2,1.7c1.9-1.4,2.8-4,1.3-8c-1.4-4.1-21.7-61-22.8-63.2c-1.1-2.2-0.4-2.2-2.1-2.8
				c-6.4-2.3-9.8,1.5-13.6,1.6C261.9,550,259.3,542.5,259.3,542.5z"/>
		</g>
		<path class="st40" d="M716.2,141.1c0-9,6.7-13.3,14.9-9.5l107,49.6c8.2,3.8,14.9,14.3,14.9,23.3v43.3c0,9-6.7,13.3-14.9,9.5
			l-106.9-49c-8.2-3.8-14.9-14.2-14.9-23.2L716.2,141.1L716.2,141.1z"/>
		<path class="st41" d="M610.3,190.6c0-9,6.7-13.3,14.9-9.5l107,49.6c8.2,3.8,14.9,14.3,14.9,23.3v43.3c0,9-6.7,13.3-14.9,9.5
			l-106.9-49c-8.2-3.8-14.9-14.2-14.9-23.2L610.3,190.6L610.3,190.6z"/>
		<path class="st40" d="M639.7,306.6c0-9,6.7-13.3,14.9-9.5l107,49.6c8.2,3.8,14.9,14.3,14.9,23.3v43.3c0,9-6.7,13.3-14.9,9.5
			l-106.9-49c-8.2-3.8-14.9-14.2-14.9-23.2L639.7,306.6L639.7,306.6z"/>
		<path class="st41" d="M571.4,371.6c0-9,6.7-13.3,14.9-9.5l107,49.6c8.2,3.8,14.9,14.3,14.9,23.3v43.3c0,9-6.7,13.3-14.9,9.5
			l-106.9-49c-8.2-3.8-14.9-14.2-14.9-23.2L571.4,371.6L571.4,371.6z"/>
	</g>
</g>
</svg>
