<?xml version="1.0" encoding="utf-8"?>
<!-- Generator: Adobe Illustrator 22.0.1, SVG Export Plug-In . SVG Version: 6.00 Build 0)  -->
<svg version="1.1" id="Calque_1" xmlns="http://www.w3.org/2000/svg" xmlns:xlink="http://www.w3.org/1999/xlink" x="0px" y="0px"
	 viewBox="0 0 1280 1024" style="enable-background:new 0 0 1280 1024;" xml:space="preserve">
<style type="text/css">
	.st0{fill:#C6D9F4;}
	.st1{opacity:0.56;fill:#6D1FE8;enable-background:new    ;}
	.st2{fill:#D922FF;}
	.st3{fill:#5D3068;}
	.st4{fill:#8D3DA0;}
	.st5{fill:#712484;}
	.st6{fill:#5B2C66;}
	.st7{fill:#34193A;}
	.st8{fill:#D312DD;}
	.st9{fill:#F739F7;}
	.st10{fill:#D3D3D3;}
	.st11{fill:#B2B2B2;}
	.st12{fill:#C9C9C9;}
	.st13{fill:#F7F7F7;}
	.st14{fill:#B055C6;stroke:#AAAAAA;stroke-width:2;stroke-miterlimit:10;}
	.st15{fill:#D731FF;}
	.st16{fill:none;stroke:#9316B2;stroke-width:5;stroke-miterlimit:10;}
	.st17{fill:#EAEAEA;}
	.st18{fill:none;stroke:#D3D3D3;stroke-width:4;stroke-linecap:round;stroke-miterlimit:10;}
	.st19{fill:none;stroke:#FF00ED;stroke-width:7;stroke-linecap:round;stroke-miterlimit:10;}
	.st20{fill:#69DBF9;}
	.st21{fill:#D8D8D8;}
	.st22{fill:#141616;}
	.st23{fill:#172C56;}
	.st24{fill:#FFB41F;}
	.st25{fill:#9330D8;}
	.st26{fill:#712CA8;}
	.st27{fill:#E58645;}
	.st28{fill:#FFA466;}
	.st29{fill:#6D4123;}
	.st30{fill:#232323;}
	.st31{fill:#33094C;}
	.st32{fill:#FF0031;}
	.st33{fill:#FFA05F;}
	.st34{fill:#932439;}
	.st35{fill:#353B3D;}
	.st36{fill:#D67F43;}
	.st37{fill:#333333;}
	.st38{fill:#00D876;}
	.st39{fill:#A53700;}
	.st40{fill:#FF6008;}
	.st41{fill:#22223A;}
	.st42{fill:#352238;}
	.st43{fill:#FFB069;}
	.st44{fill:#462B49;}
	.st45{fill:#F2A566;}
	.st46{fill:#EA8947;}
	.st47{fill:#EFEFEF;}
	.st48{fill:#E5E5E5;}
</style>
<g>
	<circle class="st0" cx="631.1" cy="516.3" r="471.7"/>
	<g>
		<path class="st1" d="M940.1,970.5c37.2-17.5,37.4-45.9,0.5-63c-37-17.1-97.7-17-134.9,0.2c-37.2,17.3-37.4,45.6-0.5,63
			C842.2,988.1,902.9,988,940.1,970.5z"/>
		<path class="st1" d="M325.9,907.8c37.2-17.5,37.4-45.9,0.5-63s-97.7-17-134.9,0.2s-37.4,45.6-0.5,63S288.6,925.3,325.9,907.8z"/>
		<path class="st1" d="M1128.5,612.4c37.2-17.5,37.4-45.9,0.5-63c-37-17.1-97.7-17-134.9,0.2c-37.2,17.3-37.4,45.6-0.5,63
			C1030.6,630,1091.3,629.9,1128.5,612.4z"/>
		<path class="st2" d="M847.7,390.2"/>
		<g>
			<path class="st3" d="M584.4,77.4c-0.7-0.2-1.4-0.4-2.1-0.6c0.9,0.2,1.4,0.3,1.4,0.3l0,0C583.7,77,583.9,77.1,584.4,77.4z"/>
			<path class="st4" d="M567.4,73.2c2.9,1.7,5.8,3.5,8.5,5.4c-6-2.7-12.4-5.1-19.1-7.2C560.4,71.9,563.9,72.5,567.4,73.2z"/>
			<path class="st5" d="M542.3,66.2c6.7,1,13.2,2.2,19.3,3.7L542.3,66.2z"/>
			<path class="st4" d="M569,64.8c-0.4-0.1-0.9-0.2-1.3-0.3c0.4,0.1,0.7,0.1,1.1,0.2C568.8,64.7,568.9,64.8,569,64.8z"/>
			<path class="st6" d="M584.9,77.5c-0.1,0-0.3-0.1-0.5-0.1c4.2,2.1,24.5,12.2,34.1,19.5C608.7,89.2,597.5,82.7,584.9,77.5z"/>
			<path class="st6" d="M686.9,246.8c0,9-0.4,18-1.2,27.2v89.8l-45.1-19.3v-90.7c0-71.9-19.9-134.7-55.4-168.4
				c-2.1-2-5.8-5.3-9.4-8.6c-3-2.7,9,1.9,7.3,0.2c-0.2-0.2-0.4-0.4-0.5-0.6c-1-1-1.3-1.6-0.7-1.5l0,0c0.8,0.2,3.2,1.1,6.5,2.6
				c10.5,4.6,30.2,14.1,37.8,20.1C670.1,132.2,686.9,189,686.9,246.8z"/>
			<path class="st6" d="M569,64.8c-0.4-0.1-0.9-0.2-1.3-0.3c0.4,0.1,0.7,0.1,1.1,0.2C568.8,64.7,568.9,64.8,569,64.8z"/>
			<path class="st6" d="M569,64.8c-0.4-0.1-0.9-0.2-1.3-0.3c0.4,0.1,0.7,0.1,1.1,0.2C568.8,64.7,568.9,64.8,569,64.8z"/>
			<path class="st6" d="M584.5,77.4c-0.3-0.1-0.7-0.3-1-0.4h0.1l0,0C583.9,77.1,584.2,77.2,584.5,77.4z"/>
			<path class="st6" d="M434.4,37"/>
			<path class="st7" d="M577.7,382.1c0-53.9,40.8-79.1,90.7-56c49.8,23.1,90.6,86.2,90.6,140.1s-40.8,79.1-90.7,56
				C618.5,499.1,577.7,436,577.7,382.1z"/>
			<path class="st8" d="M759,495.3c0,17.4-3.5,32.4-9.7,44.5c-9.1,30.9-37.6,53.5-71.5,53.5c-35.8,0-65.8-25.3-72.9-59
				c-23.6-21.8-43-50.3-54.9-80.2c-24.8-13.1-41.4-37.4-41.4-65.1c0-41.7,37.5-75.5,83.8-75.5c2.2,0,4.3,0.1,6.5,0.2l0,0
				c14.8-1.1,31.6,2.1,49.2,10.3C709.1,352.2,759,429.4,759,495.3z"/>
			<path class="st9" d="M499.9,408.1c0-70.1,53.1-102.9,117.8-72.8s117.8,112,117.8,182.1s-53,102.9-117.8,72.8
				S499.9,478.2,499.9,408.1z"/>
			<path class="st6" d="M541.3,438.8c0-35.8,27.1-52.5,60.2-37.2c33.1,15.4,60.2,57.2,60.2,93s-27.1,52.5-60.2,37.2
				C568.3,516.4,541.3,474.6,541.3,438.8z"/>
			<path class="st1" d="M408.1,593.6c-15-6.9-39.5-7-54.5-0.1l-162,74.5c-15,6.9-15,18.2,0,25.1l352.1,163c15,6.9,39.5,7,54.5,0.2
				l163.1-74.2c15-6.8,15.1-18.1,0.1-25L408.1,593.6z"/>
			<path class="st10" d="M786.9,604c0,8.8-5.5,16.4-13.3,19.4l0,0c-1,0.6-2.1,1.1-3.3,1.7l-163.1,74.2c-15,6.8-39.6,6.8-54.5-0.2
				l-32.8-15.2l-7.2-3.3L200.5,536.1c-15-6.9-15-18.2,0-25.1l162-74.5c15-6.9,39.5-6.9,54.5,0.1l333,154.1c3.8-4.6,9.6-7.5,16-7.5
				C777.6,583.2,786.9,592.5,786.9,604z"/>
			<path class="st11" d="M534.9,662c-2.1,0.2-4.2,0.8-6.1,1.8c-7.2,3.7-11.4,14-5.7,21.8l-7.2-3.3c-5.4-6.8-3.4-16.5,3.1-19.8
				C523.1,660.4,530.7,660.7,534.9,662z"/>
			<path class="st12" d="M417.1,419c-15-6.9-39.5-7-54.5-0.1l-162,74.5c-15,6.9-15,18.2,0,25.1l352.1,163c15,6.9,39.5,7,54.5,0.2
				l163.1-74.2c15-6.8,15.1-18.1,0.1-25L417.1,419z"/>
			<path class="st13" d="M416.1,413.8c-15-6.9-39.5-7-54.5-0.1l-162,74.5c-15,6.9-15,18.2,0,25.1l352.1,163c15,6.9,39.5,7,54.5,0.2
				l163.1-74.2c15-6.8,15.1-18.1,0.1-25L416.1,413.8z"/>
			<polygon class="st14" points="731.9,566.1 433.6,426.8 237,525.7 526.2,659.6 			"/>
			<path class="st9" d="M175.3,593.5c0-72.2,54.6-105.9,121.3-74.9S417.8,633.9,417.8,706s-54.6,105.9-121.3,74.9
				S175.2,665.7,175.3,593.5z"/>
			<path class="st8" d="M127.5,604.7c0-78.1,59.1-114.5,131.2-81.1c72.1,33.5,131.1,124.7,131.1,202.8s-59,114.5-131.2,81.1
				S127.5,682.8,127.5,604.7z"/>
			<path class="st7" d="M567.7,64.5c0.4,0.1,0.7,0.1,1.1,0.2c0.1,0,0.2,0.1,0.3,0.2C568.6,64.7,568.1,64.6,567.7,64.5z M699.5,250.6
				c0-101.9-45.1-146.3-83.6-165.6c-3.4-2-7.2-4.2-11.4-6.5c-1.5-0.8-2.9-1.6-4.4-2.3C593,72,555.4,52,526.8,48.7
				c-10.5-1.2-21.3-2.8-32.6-2.4c-25.9,0.9-54.1,8.3-83.6,22.6c-126.4,61.7-229.8,232-229.8,378.4c0,1,0,2,0,2.9v105.9l61.8,27.9
				l0.2,0.1l0.1,0.1V476.9c0-1.1,0-2.3,0-3.4C244.5,327.9,348,161.3,472.7,98.6c57.8-29.1,101.5-23.3,109.7-21.8l0,0
				c0.4,0.1,0.7,0.1,0.9,0.2c0.3,0.1,0.5,0.1,0.5,0.1l0,0c0,0,0.3,0.1,0.8,0.4c0.1,0,0.3,0.1,0.4,0.1c10.9,4.4,20.7,9.9,29.5,16.2
				c0.2,0.1,0.3,0.2,0.4,0.3c0.5,0.4,1,0.7,1.5,1.1c0.1,0,0.1,0.1,0.2,0.1c0.2,0.2,0.4,0.3,0.5,0.4s0.1,0.1,0.1,0.1
				c0.3,0.3,0.7,0.5,1,0.8c0.1,0.1,0.2,0.1,0.2,0.2c0.1,0,0.2,0.1,0.3,0.2c0.3,0.3,0.7,0.5,1,0.8c1.1,0.8,1.9,2.1,3.2,2.6
				c85.7,35.3,62.6,223.6,63.1,235.8c0,1.4,6.4,6.8,5,7.2l-3.6,1.1l12.3,10.1C699.7,354.6,699.5,254.6,699.5,250.6z"/>
			<path class="st15" d="M692.7,342.5l-7-6.6c-0.3-38.4,1.8-77.5-2.4-115.8c-4.9-45.6-23.5-91.4-60.7-120c-1.1-0.9-2.3-1.7-3.4-2.6
				c-0.4-0.3-0.9-0.6-1.3-1c-0.1-0.1-0.2-0.1-0.2-0.2c-0.3-0.3-0.7-0.5-1-0.8c0,0,0,0-0.1-0.1s-0.3-0.2-0.5-0.4
				c-0.1,0-0.1-0.1-0.2-0.1c-0.5-0.4-1-0.8-1.5-1.1c-0.2-0.1-0.3-0.2-0.4-0.3c-6.9-4.7-16.3-7.8-23.7-9.7c-3.4-0.9-6.3-1.5-8.4-1.9
				h-0.1c-31.3-4.1-66.4,2.9-96.7,17.9c-126,62.5-230.4,209.2-231.4,380.9c0,1,0,1.9,0,2.9v95.3l-11,4.8l-0.1,0.1l-0.2,0.1v-0.1
				V472.4c1.5-145,78.9-297.2,230.3-375.7c32.8-17,72.7-26.7,109.6-20.5c1.9,0.3,3.9,0.5,5.8,1.1c56.2,17.7,89.3,62.2,100.1,118.8
				c5.6,29.2,4.2,58.9,4.3,88.5C692.6,304,692.7,323.2,692.7,342.5z"/>
			<path class="st7" d="M121.3,619c0-72.2,54.6-105.9,121.3-74.9c66.7,30.9,121.2,115.3,121.2,187.4s-54.6,105.9-121.3,74.9
				S121.2,691.1,121.3,619z"/>
			<path class="st15" d="M115.1,649c0-59.6,45.1-87.5,100.2-61.9s100.1,95.2,100.1,154.8s-45.1,87.4-100.2,61.9
				S115.1,708.6,115.1,649z"/>
			<g>
				<g>
					<path class="st16" d="M150,665.3c0-38.8,29.4-56.9,65.2-40.3s65.2,62,65.2,100.8s-29.3,56.9-65.2,40.3
						C179.4,749.4,150,704.1,150,665.3z"/>
				</g>
			</g>
		</g>
		<path class="st17" d="M680.6,615.9c-10.7-4.8-28-4.9-38.4-0.1c-10.4,4.8-10.2,12.7,0.3,17.6c10.5,4.9,27.8,4.9,38.4,0.1
			C691.4,628.6,691.3,620.7,680.6,615.9z"/>
		<g>
			<path class="st9" d="M373.4,479.7c-8.5-3.9-21.3-4.4-28.4-1.1c-7.2,3.3-6,9.2,2.5,13l20.9,9.4c8.5,3.8,21.1,4.3,27.9,1
				s5.4-9.2-3.1-13.2L373.4,479.7z"/>
		</g>
		<g>
			<path class="st9" d="M438.4,479.7c-8.5-3.9-21.3-4.4-28.4-1.1s-6,9.2,2.5,13l20.9,9.4c8.5,3.8,21.1,4.3,27.9,1s5.4-9.2-3.1-13.2
				L438.4,479.7z"/>
		</g>
		<g>
			<path class="st9" d="M433.4,509.2c-8.5-3.9-21.3-4.4-28.4-1.1c-7.2,3.3-6,9.2,2.5,13l20.9,9.4c8.5,3.8,21.1,4.3,27.9,1
				s5.4-9.2-3.1-13.2L433.4,509.2z"/>
		</g>
		<g>
			<path class="st9" d="M497.4,539.3c-8.5-3.9-21.3-4.4-28.4-1.1c-7.2,3.3-6,9.2,2.5,13l20.9,9.4c8.5,3.8,21.1,4.3,27.9,1
				s5.4-9.2-3.1-13.2L497.4,539.3z"/>
		</g>
		<g>
			<path class="st9" d="M503.4,510.7c-8.5-3.9-21.3-4.4-28.4-1.1c-7.2,3.3-6,9.2,2.5,13l20.9,9.4c8.5,3.8,21.1,4.3,27.9,1
				s5.4-9.2-3.1-13.2L503.4,510.7z"/>
		</g>
		<g>
			<path class="st9" d="M562.4,539.3c-8.5-3.9-21.3-4.4-28.4-1.1c-7.2,3.3-6,9.2,2.5,13l20.9,9.4c8.5,3.8,21.1,4.3,27.9,1
				c6.8-3.3,5.4-9.2-3.1-13.2L562.4,539.3z"/>
		</g>
		<g>
			<path class="st9" d="M557.4,568.8c-8.5-3.9-21.3-4.4-28.4-1.1c-7.2,3.3-6,9.2,2.5,13l20.9,9.4c8.5,3.8,21.1,4.3,27.9,1
				s5.4-9.2-3.1-13.2L557.4,568.8z"/>
		</g>
		<g>
			<path class="st9" d="M625.2,568.8c-8.5-3.9-21.3-4.4-28.4-1.1c-7.2,3.3-6,9.2,2.5,13l20.9,9.4c8.5,3.8,21.1,4.3,27.9,1
				c6.8-3.3,5.4-9.2-3.1-13.2L625.2,568.8z"/>
		</g>
		<line class="st18" x1="341.6" y1="446.3" x2="292.1" y2="469.2"/>
		<line class="st19" x1="207.3" y1="519.8" x2="207.3" y2="457.8"/>
		<g>
			<path class="st20" d="M1039.7,505.4l1.1,8.1c0,0,3.2,5.1,8.3,4.9c5.1-0.2,7.7-5.1,7.7-5.1l-1.3-9.3L1039.7,505.4z"/>
			<path class="st20" d="M1088.7,533.6c0,0-0.7,9.3,1.2,11s9.1,1.1,11.5,0c2.5-1.1,4.2-3.4,4.2-3.4v-4.5l-2.3-4.3L1088.7,533.6z"/>
			<path class="st21" d="M1077.7,169.7c0,0-4.3,12.9-3.2,13.2c1.1,0.4,9.1,2.3,9.1,2.3s10.7,4.2,11.5,3.1c0.9-1,1.8-13.5,1.8-13.5
				s-2.6-2.1-3.8-1.8S1077.7,169.7,1077.7,169.7z"/>
			<path class="st22" d="M978.7,551.6c0,0-1.6,4.8-1.1,5.8c0.4,1,8.2,8.2,16.2,8.6s26.6-3.3,31.9-6.4c5.2-3.1,11.8-7.7,19-9.2
				c7.2-1.6,20.4-5.2,23.5-8.4c3.1-3.1,3.3-3.6,2.7-6.2c-0.6-2.6-3.3-4.9-3.3-4.9l-4.5,2.8l-27.6,5.1l-23.5,9.6l-29.6,6.3
				L978.7,551.6z"/>
			<path class="st22" d="M1078.9,596.5c0,0-2.3,2-3.7,6.7c-1.4,4.7-4.1,16.8,0.8,21.8c4.7,4.8,13.4,7.9,22.8-1.1
				c9.4-9.1,13.9-15.5,16.5-23.7s-0.6-26.2-0.9-30.5s3.3-11.3,1.9-17.3s-1.9-11.2-5.3-10.9s-2.3,4-2.4,5.4c0,1.4-5.6,35.4-5.8,37.3
				C1102.5,586,1078.9,596.5,1078.9,596.5z"/>
			<path class="st23" d="M1014,305.6c0,0,3.1,82.2,8.1,102.6c4.9,20.4,12.4,97.5,12.4,97.5s8.3,4.5,16.6,2.8s7.7-7.4,7.7-7.4
				s-4.5-29.5-3.4-43.7c2.3-28.3-3.6-30.6-5-43.1c-1.3-12.5,0.4-21.9,3.3-37.1c2.8-15.1,2.8-33.9,2.8-33.9l4.8,2.3
				c0,0,5.4,32.1,6.5,54s0.3,53.1,2.4,69s17,60.1,15.5,62.9c-1.5,2.8,3,6.2,10.4,5.7c7.4-0.6,11.9-6.2,11.9-6.2s-1.7-31.8-3.4-50.5
				c-1.7-18.7-5.1-28.3-6.2-40.3s0-33.5,2.3-48.2s5.1-33.7,7.4-44.1c2.3-10.3-4.5-38.1-4.5-38.1l-81.5-18.7L1014,305.6z"/>
			<path class="st24" d="M1046.9,183c0,0-16.3,17.2-17.6,23.6s2.1,21,2.1,21l-2.4,18.7l1.1,52.4c0,0,11.5,9.6,17.6,11.3
				s16.4,5.1,16.4,5.1l7.7-39.3l-6.2-51.2l4.7-16.4l-9.8-6l-13.6-4L1046.9,183L1046.9,183z"/>
			<path class="st25" d="M1048.3,184.3c0,0-4.3,5.9-4,12.3s0.8,13.6,5.1,14.7c4.3,1.1,11.3,0.4,15.4-1.7c4.1-2.1,10.3-9.6,10.3-9.6
				l3.4-11.2v-3l-18.4-1.5H1048.3z"/>
			<polygon class="st26" points="1061.4,254.9 1061.9,282.7 1079.2,254.9 1074.9,251.4 			"/>
			<path class="st26" d="M1045.2,184.3c0,0-10.2,4.3-16.6,13.8s-5.8,19.4-5.8,19.4l3.9,6.7c0,0-4,0.2-4.5,1.3s10,46.9,10,46.9
				s-0.2-66.6,2.7-71.5c2.8-4.9,12.1-16.6,12.1-16.6L1045.2,184.3L1045.2,184.3z"/>
			<path class="st27" d="M1051,182.3c0,0,3.2,2.6,3.5,6.1s0,6.1,0,6.1s3.6,3.3,7.9,1.7s11.1-5.2,11.1-6.7s-0.1-4.6-0.9-8
				s1.3-10.8,2.9-12.2s3.1-2.1,3.1-2.1l-5.1-7.6c0,0-6.1,8.3-10.5,12.2C1058.6,175.6,1051,182.3,1051,182.3z"/>
			<path class="st28" d="M1030.2,116.7c0,0-7.2,10.9-6.9,17.6c0.3,6.7-0.1,21,2,22.8c4.8,4.3,8.4,0.3,12.8,2s14.7,9.1,20.4,7.9
				c5.7-1.1,10.1-3.4,10.4-9.9s0.9-11.4,0.9-11.4s-6.8-2.9-7.4-5.3s0.7-9.4,2.4-11.6c1.7-2.3,13.1-1.7,13.1-1.7s-4-6.2-27.6-1.9
				c-6,1.1-10.5-0.7-13.7-3.7C1033,118.5,1030.2,116.7,1030.2,116.7z"/>
			<path class="st29" d="M1033,132.9c0,0,2.9,2.8,3.9,5.5c1.5,3.9,1.8,7.6,0.3,10.9c-1.5,3.3-3.5,5.8-3.2,7.2s0.7,2.3,3.9,1.9
				c3.2-0.4,5.3-1.7,5.2-1.2c0,0.5-1.9,2.3-6,2.3c-5.4,0-5-3.7-3.7-6.7s2.9-7,2.5-9.4c-0.5-3.4-2.3-5.8-4.4-7
				c-2.1-1.3-3.4-2.2-3.4-2.2L1033,132.9z"/>
			<ellipse cx="1031.8" cy="145.7" rx="1.2" ry="2.3"/>
			<ellipse cx="1052.2" cy="149.3" rx="1.2" ry="2.3"/>
			<path class="st30" d="M1034.3,133.3c0,0,1.6,1.2,0.4,2.4c-1.1,1.1-2.7-0.5-5-0.6s-5.7,0.1-7.3-1c-1-0.8-1.6-4.1,0.8-5.4
				c2.4-1.4,5.7,0.4,7.3,1.5S1034.3,133.3,1034.3,133.3z"/>
			<path class="st30" d="M1053.4,133.2c-3.9-0.8-6.2-2.1-7.8,0.7s0.2,4.6,3,5.5s4.8,1.4,7.7,0.8c2.9-0.6,4.2-0.5,5.2-2.4
				C1064.7,132.1,1057.2,134.1,1053.4,133.2z"/>
			<path class="st31" d="M1024.4,178c0,0-9.2,7.2-13.3,14.9s-12.5,38.8-14.9,44.9c-2.4,6.1-6.4,16.9-11.1,19.7
				c-4.7,2.8-53,23.2-53,23.2l4.8,3.1l-3.7,5.4h8.1c0,0,1.7,3.3,1.7,6.5c0,3.3-0.9,6.7-0.9,6.7s52.3-17.3,54.7-19s6.2-7.1,8.4-11.2
				c2.1-4.1,5-12.6,5-12.6s0.7,14.6,0.6,20.4c-0.1,5.8-1.6,14-2.7,16.2c-1.1,2.1-3.1,2.8-0.7,6.2c2.4,3.4,8.8,10.8,12.8,12.9
				s7.1,3.4,11.1,3.3s4.5-1.1,4.5-1.1l-4-50.5l-8.8-41l6-1l-6.1-7.5c0,0,4.3-16.7,8.6-20.8c4.4-4.1,10.8-10.1,10.8-10.1
				s-10.1-0.6-13.3-3.6S1024.4,178,1024.4,178z"/>
			<path class="st21" d="M1084.1,133.2c0,0,0.5,2.8,0,2.8s-3.5,2.1-3.5,2.1s-3.9,0-5.4,0.9c-1.5,1-1,4.4-0.9,6.4s1.3,1.8,1.5,3.2
				s-0.6,14-1,17.2c-0.5,3.2-7.9,8.9-19.5,16.5c-11.5,7.6-26.6,2.6-30.4-1c-3.8-3.6-2.7-15.7-2.4-19.1c0.3-3.4,1-8.2,2.4-6
				s0.9,1.1,4.4,1.7c3.5,0.6,6-1.1,15.7,4.2c3.5,1.9,5.1,2.9,10.2,4c5.1,1,7.7-2.8,11-5.7c3.2-2.8,1.6-9.5,1.6-12.2
				c0-2.8-2.6-4-5.4-6.6c-2.8-2.7-0.9-8.3,0-11.1c0.9-2.7,3.2-4.2,9.4-4.5c-3-1.1-6.6-2-9.5-1.6c-7.1,0.9-18.8,3.4-22.7,0.9
				c-3.9-2.4-10.4-9.1-12.4-10c-2-1-6.9-7-4-11.7s5.8-1.2,7-3.5c1.1-2.3,2.2-7.6,4.9-8.1c2.7-0.6,5.5-2.3,9.2,1.7s2.4,5.8,6.5,6.1
				s10.3-1.3,13.7,2.1c3.4,3.4,8.4,6.9,9.6,10.4s2.8,2.3,5.7,7.2c2.8,4.9,4.6,8.1,4.4,11c-0.1,1-0.2,2-0.3,2.7
				C1084,133.2,1084.1,133.2,1084.1,133.2z"/>
			<path class="st21" d="M1089.3,119.5c0,0,2.5,4.4,3.5,7c2.1,5.2,1.3,9.8,1.3,9.8l-2.6-0.3l-1.3-1.5L1089.3,119.5z"/>
			<path class="st32" d="M1084.1,136.1c0,0,0.3-9.3-2.8-14.3s-6.4-6.5-7-7.4c-0.6-1,0.1-3.1-2.1-5.4c-2.2-2.2-4.4-4.3-4.4-4.3
				s7.5,1.2,11.2,3.5s8.6,6.2,10.3,11.2c1.7,5,2.3,16.6,2.3,16.6s-1.8-0.4-2.3,0.3C1088.9,137.1,1084.1,136.1,1084.1,136.1z"/>
			<path class="st33" d="M1080.5,171.7"/>
			
				<ellipse transform="matrix(0.1679 -0.9858 0.9858 0.1679 748.4252 1197.4717)" class="st34" cx="1083.5" cy="155.4" rx="16.4" ry="10.8"/>
			
				<ellipse transform="matrix(0.1679 -0.9858 0.9858 0.1679 750.7961 1202.256)" class="st32" cx="1087.6" cy="156.4" rx="16.4" ry="10.8"/>
			<path class="st28" d="M1079.7,171l1-7.7c0,0-2.3-2.8-2.3-7.4s0.4-11.3,0.4-11.3l-2-1.9c0,0,0.6,1.3,0,2.1s-1.8,2.6-3.1,1.5
				c-1.2-1.1-2-7.6-0.6-8.2c1.4-0.7,6.5-0.7,6.5-0.7s2.1-2.3,3.5-2.1c1.4,0.3,3.3,0.8,4.3,0.5s0.7-0.8,3.3-0.6
				c2.6,0.3,4.3,1.5,4.3,1.5s7.6-4,7.6,5s-6.5,19.9-6.9,25s-0.7,7.9-0.7,7.9s-6.2,0.1-9.4-1.1S1079.7,171,1079.7,171z"/>
			<path class="st31" d="M1119.7,226.2c-0.4,2.3-3.4,5.4-6.9,8c-0.4,11.2-2.4,63.5-2.5,69.5c-0.2,6.8,0.7,10.6-2.3,14.9
				c-3,4.4-18.1,9.3-28,11.2c-9.8,1.9-18.5-3.4-19.5-4.4s1.5-45.5,1.5-45.5l13.3-24.9c-0.5,0.2-0.9,0.5-1.2,0.7
				c-6.2,4-16.1,4-20.9,0c-4.9-4-0.2-18,2.4-28.7c2.7-10.8,22.1-44.6,22.1-44.6l6.6,1.3l3.3-4.2v5.5l6.6,1.5l-1.9,8.4
				c0,0,16.8,7.7,23.6,13C1122.7,213.2,1120.3,222.7,1119.7,226.2z"/>
			<path class="st35" d="M1056.7,511.4c0,0,6.9,8,9.5,14.6s5.7,7.4-1.7,10.4s-16.8,6-26.1,11s-30.1,15.5-40.8,12.5
				c-10.8-3-18.9-4.2-20.2-6.4c-1.3-2.3,0.2-4.9,6.8-7s22.7-8.1,28.7-11.9c6-3.8,25.3-21.7,25.9-21.5s3.4-2.2,6,0.8
				C1050.1,519.6,1056.7,511.4,1056.7,511.4z"/>
			<path class="st35" d="M1088.8,541.7c0,0-2.9,30-5.2,38.5c-2.3,8.5-9.1,29.5-8.3,34s5.5,11.7,12.3,10.2s16.8-11.2,21.9-18.1
				c5.1-7,6.8-17.4,5.3-27.2s-1.9-18.3-3-25.9s-1.7-14.6-4-15.6s-2.6,4.3-2.6,4.3s-4.2-3-11-3
				C1091.4,538.9,1088.8,541.7,1088.8,541.7z"/>
			<path class="st28" d="M927.2,308.9c0,0,5.2-5.4,3.8-11.5s-5.7-9.2-7.2-12.8c-1.6-3.5,0-4.4-1.8-5.2c-1.8-0.9-10.1-6-12.5-9.1
				s-6.4-9.6-8.1-10.9c-1.7-1.3-9.6-3.3-11.9-5.4c-2.3-2.1-6.8-3.4-6.9-1.8c-0.1,1.6,2.7,6.5,4.8,7.8s7.4,2.8,8.5,4
				c1.1,1.1,1.4,4,1.4,4s-5.1,0.6-8.8-0.7c-3.7-1.3-8.2-5-10.5-3s0,5,2.6,6.1s10.2,3.7,11.2,3.7s-4.3,2.1-5.2,3
				c-1,0.9-3,3.7-1.4,4.3c1.6,0.6,7.8-0.4,10.1-1.1c2.3-0.6,4.8,0,4.8,0s2.6,1.5,2.7,2.9c0.1,1.4,0.4,7.8,3.7,11.5s7.8,6.4,7.8,6.4
				s2.8,4.4,4.5,5.2S927.2,308.9,927.2,308.9z"/>
			<path class="st36" d="M914.1,300.9c0,0-0.5-4.3-1.7-6.3s-5-5.7-5.4-8c-0.4-2.4-1.9-5.2-3.8-6c-1.9-0.8-3.3-0.5-3.3-0.5
				s2.6,2.2,2.7,2.9c0.1,0.7,0.3,4.6,1.2,6.8c0.9,2.2,2.8,5.5,5.5,7.6S914.1,300.9,914.1,300.9z"/>
			<path class="st36" d="M907,286.6c0,0-1-3.4,0.6-4.3s3.7,1.8,5.6,3c1.9,1.2,5,2.1,6.1,4.2s2.6,3.8,2.6,3.8s3.4,0.8,1.6-1.6
				c-1.8-2.4-7.7-8.9-8.6-9.5c-0.9-0.6-5-2-6.3-2s-8.6,0-8.6,0"/>
			<path class="st21" d="M932.1,280.8c0,0-1.4-0.8-2.9,0s-6.7,3.4-6.7,3.4s6.1,5.8,6.2,11.7c0.1,6-0.8,9.5-1.4,11.2s0.4,3.5,2.2,3.3
				s9.6-3.8,11.5-5.5s3.5-5.3,2.8-9.5s-0.9-6.9-2.8-6.6c-2,0.4-5.4-0.6-5.4-0.6l2.2-5L932.1,280.8z"/>
			<path class="st37" d="M1033,168.7c0,0,1.3,2.8,4.5,2.8c3.2-0.1,4.9-0.6,4.8-1.4s-0.6-0.2-2.1,0s-3.4,0.8-4.5,0
				c-1.2-0.8-1.7-2.1-2.4-2.1S1033,168.7,1033,168.7z"/>
		</g>
		<g>
			<path class="st38" d="M920.7,895.2c0,0,2.2,11.5,1,13.8s-6.7,5.5-11,3.2s-7-4.7-7.4-8.1c-0.3-3.4,2.1-8.9,2.1-8.9H920.7z"/>
			<path class="st39" d="M883.4,889.5c0,0-2.1,1.3-2.4,7.5c-0.4,6.2,2.1,17.3,6.7,20.4c4.6,3.1,9.5,3.8,10.9,6
				c1.4,2.1,0.8,8.5,5.8,11.5s13.7,5.8,17.6,3.2c3.9-2.6,4-1.8,4.4-6.1s-0.3-8.1-1.9-7.4c-1.7,0.7-1.8,4.5-5.7,2.8s-8.5-3.8-10.6-8
				c-2.1-4.1-7.6-14.3-9.4-15.5c-1.8-1.1-9.3-8.9-9.3-8.9L883.4,889.5z"/>
			<path class="st39" d="M809,953.2c0,0-1.4,0.1-2,3.1s0,11.1,0,11.1s10.2,11.8,20.2,13.1s19.5-1.7,24.7,0s9.4,5.1,17.1,3
				s11.2-3.1,12.7-5.3c1.6-2.1,0-9.5,0-9.5s-2.6-2.5-2.9-2.3c-0.4,0.3-3.9,2.8-6,4s-11.7,4.1-14.3,4.4c-2.6,0.3-12.9-6.1-12.9-6.1
				l-9.8-3.8l-13.8-6L809,953.2z"/>
			<path class="st40" d="M903.3,896.5c0,0-6.1-4.9-9.9-7.8c-3.8-2.8-6-4.4-9.1-2.1s-3.6,12.7,0,19.7s10.1,12.7,14.3,14
				c4.1,1.3,4.3,7,7.6,9.3s5.2,3.8,11,3.4c5.8-0.4,8.1-2.3,8.4-4.2s0.3-8.7-1-13.8c-1.4-5.1-1.5-11.2-4-9.8
				c-2.4,1.3-2.3,4.4-7.8,4.1C907.1,909,903.3,896.5,903.3,896.5z"/>
			<path class="st38" d="M855.2,939.5v12.1c0,0,4.1,2.7,9.4,1.1c5.3-1.5,8.2-2.5,8.1-4.5c-0.2-2.1-2.6-13.3-2.6-13.3L855.2,939.5z"
				/>
			<path class="st41" d="M842,716.7c0,0,1.5,16.7,0,33.3c-1.5,16.7-6,73.8-4,93.5c2.1,19.7,11.3,93.6,14.1,96
				c2.7,2.4,9.6,5.4,14.8,2.4s6.2-6.1,6.2-13.6s-3.8-28-2.7-37.5c1-9.5,2.4-21.2,0.7-32.6c-1.7-11.3-4.8-15.1-4.1-23.1
				s10.6-74.9,10.6-74.9l8.6-2.8c0,0,1,37.9,1.7,51.9s12,68.1,12.7,75.3s2.4,15.9,2.4,15.9s7.6,3.8,13.7,0.8c6.2-3,7.2-5.7,5.5-8.7
				s-2.7-25.7-1-30.1c1.7-4.4,3.1-17.7,0.3-29.8c-2.7-12.1-3.8-22-4.5-27.6c-0.7-5.7,5.5-46.6,6-51.5s0.2-32.9-1.9-44.7
				c-2.1-11.7-6.9-22-6.9-22l-11,5.7l-7.9,10.6l-23,10.6L842,716.7z"/>
			<path class="st42" d="M798.6,518.9c0,0-5.8,3.2-7.7,5.1c-1.9,1.9-2.4,1.9,0,7.4s21,53.8,24.4,56.2s8.3,2.3,18,4.5
				c11.6,2.7,12.4,1.7,12.4,1.7s0.5-5.1,3.9-8.3s40.1-16.5,40.1-16.5s-27.7-2.3-32.3-6.3s-28.2,5.4-28.2,5.4s-20.5-42.4-21.2-44.3
				c-0.7-1.9-2.1-7.4-3.1-8s-3.6-0.2-5,0C798.4,516.1,798.6,518.9,798.6,518.9z"/>
			<path class="st43" d="M747.5,640.6c0,0-9.3-3.8-14.9-13.9c-5.7-10.1-6.2-13.3-7.3-14.3s-8-3.1-8.5-4.3s-0.8-4.1,2.3-3.4
				c3.1,0.7,5,0.9,5.9,2s3.1,4,3.3,2.4c0.3-1.6,0.1-4.1-2.2-6.1s-5.4-5.4-2.8-6.5c2.6-1.1,9,1.7,10.2,2.4s3.9,7.5,4.1,6.2
				c0.3-1.3-3-11.2-3.5-12.4s0.4-4.5,2.3-2.6c1.9,2,5.9,13.5,7.1,15c1.2,1.6,2.2,4.3,2.2,4.3s0.4-2,1.8,0c1.4,2,3.6,5.5,3.5,7.1
				s0.1,9.9,0.9,11.8s2.7,4.4,2.7,4.4L747.5,640.6z"/>
			<path class="st44" d="M889.6,569.1c0,0,5.5-4,10.8-1.9s10.5,1.1,11.2,17.6s-1.2,41.6,0,48.8s8.1,44.7,7.7,49.2
				c-0.3,4.5-7,17.6-7,17.6l-2.9-8.3l-2.2,14.6c0,0-15.8,19.5-34,18.2s-28.7-3.6-31.1-8.1c-2.4-4.5-11.3-62.5-11.3-62.5
				s-20.6,28.4-27,29s-27-10.4-34.7-18S746.9,646,746.9,646s-1.2-9.1,2.6-11.7s5.3-2.7,5.3-2.7s38.1,28.8,40.5,26.7
				s24.7-37.9,29.7-42.8c5-4.9,17.2-15.1,17.2-15.1s-1-7.8,9.2-16.9C876.6,561,889.6,569.1,889.6,569.1z"/>
			<path class="st45" d="M851.6,543.2l-7.3,1.8l-10.7,3.9l2.3,14.2l-1.9,6c0,0,4.4-3,8.7-1.6s7.6,6.8,8.6,9.8s1.6,5,1.6,5
				s11.6-8.9,14.9-10.1c3.3-1.2,4-1.3,4-1.3s-5.8-6.7-6.9-9.6s-1.5-9.1-1.5-9.1L851.6,543.2z"/>
			<path class="st46" d="M820.1,533.9c0,0-3,14.1-3.2,15.5c-0.2,1.5,0.4,1.8,3.2,2.1s3.7-1.4,3.7-1.4L820.1,533.9z"/>
			<path class="st47" d="M872.9,532.9c0,0-8.1,10-32.5-11c-5.9-5.1-12.6-4.6-13.4-2.3c-0.8,2.3-0.5,9.9,0.8,15.6
				c1.3,5.7,4.4,19.6-3.2,15.3c-2.7-1.5-3.7-3.3-3.7-3.3s0.3,3.1,1.6,7.6c0.8,2.8,0.1,6.8-1.9,8.8c-2.1,2-3.3,7-1.2,8.5
				s7.9,6.4,10.2,3.3c2.3-3.1,9.5-7,10-10.2c0.5-3.3-0.1-7.4-1.5-12.9c-1.4-5.4-1.9-14.7,0.4-15.7c2.3-1,8.5-2.8,9.8,1.6
				c1.3,4.4,0.8,8.3,0.8,8.3s4.6,9.3,9.4,9.5s7.3-0.4,9.9-6.2s3.2-8.1,3.9-11.2C872.9,535.3,872.9,532.9,872.9,532.9z"/>
			<path class="st48" d="M875.2,532.9c0,0-2.9,6.2-12.7,3c-9.8-3.3-9.5-1.8-14-5.4c-4.5-3.5-10.3-9.5-10.3-9.5s3.9-1.7,0-2.7
				s-9.9-2.8-9.9-2.8l-4.6,1l-4.1-1c0,0-1.2-0.6-2.6-4.7s-1.7-14.5,3.9-18.6s9.1-5,10.3-4s-0.8,2.8,2.4,3.1s16.7-3.8,29.9,2.6
				c13.1,6.4,16,8.1,17,14.5s0.3,12.2-1,15.3C878.2,526.8,875.2,532.9,875.2,532.9z"/>
			<path class="st43" d="M819.2,513.7c0,0-1.8,9.2-1.4,13.8c0.4,4.5,0.3,7.2,1.4,8.9c1.2,1.7,0.4,2.4,1,5s0.4,6.8,1.4,8.1
				s4.8,3.5,6.6,2s3.9-2.5,2.7-7s-4.1-14.5-3.1-20.3s-0.9-6.7,3.4-6.1c4.3,0.6,9.2,5,9.2,1.3c0-1.2-3.6-3.8-9.4-4s-8.1,0.1-9.7-0.4
				C819.8,514.4,819.2,513.7,819.2,513.7z"/>
			<path class="st30" d="M854,546.3c-0.4,1.2-1.3,2.4-2.1,1.1c-0.8-1.3-2.5-8.2-4.9-8c-2.1,0.1-24.5-1-31-1.3c0.4,1.9,1.1,4.1,1.8,5
				c0.9,1.1,3,1.7,3,1.7l0.1,1.6c0,0-2,0.7-3.3-0.3c-1.4-1-3.2-4.4-3.5-5.9c-0.4-1.5-1.5-1.6-1.5-2c-0.1-0.4,0.8-3.5,2.4-5.7
				c1.6-2.2,3.1-3.2,3.1-3.2l0.2,2.5c0,0-1.9,2.1-2.3,4l24.7,0.6c0,0,8.1-0.4,10.1,1.6C852.5,540,854.3,545.1,854,546.3z"/>
			<path class="st43" d="M836.6,550.1c0,0-1.8-12.8,0.3-14.5s11.6-2.1,12.1,0.5s1.2,12.3-2,15C843.9,553.7,836.6,550.1,836.6,550.1z
				"/>
			<path class="st43" d="M792.6,522.8c0,0-2.8-7.7-4-8.5c-1.2-0.9-7-4.5-8.2-6.4s-3.5-2.4-4.9-4s-3.5-6.8-4.6-8.5s-5.9-4.6-3.9-5.4
				c2.1-0.8,4.3-1,6,0.9c1.7,2,4.7,6.6,5.2,4.5s0.9-7.7-0.4-11c-1.3-3.3-4.6-14.6-4-16c0.7-1.4,3.2,0,4,1.3s1,1.8,1,1.8
				s0.9-3,2.3-2.2c1.4,0.9,6,4.4,6.5,5.2c0.5,0.8,3.5,6,3.5,6s1.8-2.1,0.3-5.2s-3.4-5.7-3.4-7.5s1.7-2.5,3.8,0.4s3.8,6.7,3.8,6.7
				l3.1,12.4c0,0-1.3,13.2-0.9,16.9c0.4,3.8,4.3,11.9,4.3,11.9s-2.2,3.4-4.3,4.5C795.8,521.9,792.6,522.8,792.6,522.8z"/>
			<path class="st40" d="M855.2,946.5c0,0-10.6,4.5-17,4.4c-6.4-0.2-18.7-3.2-22.7-2.1s-7.4,1.7-6.7,7.4s5,10,10.3,12.9
				c5.3,2.8,16.3,5.3,21.1,4.9s7,0.8,11.5,1.9c4.5,1.1,12.2,3.4,19.8,0s8.9-5.5,8.9-5.5s-0.1-12.7-2.7-17.1s-4.5-5.9-6-4.7
				s-3.5,3.7-7,4.2C855.2,954.3,855.2,946.5,855.2,946.5z"/>
			<path class="st39" d="M857.5,951.4c0,0-3.2,12.5,1.2,15.9s10.7,2,9.4-3.4s-2.1-11.4-2.1-11.4s-2.5,0.6-4.7,0.4
				C859.1,952.5,857.5,951.4,857.5,951.4z"/>
			<path class="st39" d="M912.7,909.4c0,0-2.6,4-2.6,7.4s-0.3,8-3.2,6c-4.6-3.1-2.7-8.9-2.1-11.1c0.6-2.1,2.1-7,2.1-7s1.3,2.1,2.5,3
				C910.6,908.5,912.7,909.4,912.7,909.4z"/>
		</g>
	</g>
</g>
</svg>
