<?xml version="1.0" encoding="utf-8"?>
<!-- Generator: Adobe Illustrator 22.0.1, SVG Export Plug-In . SVG Version: 6.00 Build 0)  -->
<svg version="1.1" id="Calque_1" xmlns="http://www.w3.org/2000/svg" xmlns:xlink="http://www.w3.org/1999/xlink" x="0px" y="0px"
	 viewBox="0 0 1280 1024" style="enable-background:new 0 0 1280 1024;" xml:space="preserve">
<style type="text/css">
	.st0{fill:#C6D9F4;}
	.st1{fill:#C5F8FF;}
	.st2{fill:#5979E2;}
	.st3{fill:#5979FC;}
	.st4{fill:#091916;}
	.st5{fill:#D6986E;}
	.st6{fill:#FFBB88;}
	.st7{fill:#1A3F38;}
	.st8{fill:#C16D34;}
	.st9{fill:#E2A379;}
	.st10{fill:#307F70;}
	.st11{fill:#102622;}
	.st12{fill:#318474;}
	.st13{fill:#FF8F43;}
	.st14{fill:#755642;}
	.st15{fill:#9B7051;}
	.st16{fill:#AA7D5C;}
	.st17{fill:#AF312E;}
	.st18{fill:#E1E1FF;}
	.st19{fill:#2F2F66;}
	.st20{opacity:0.56;enable-background:new    ;}
	.st21{fill:#6D1FE8;}
	.st22{fill:#D3D3D3;}
	.st23{fill:#232323;}
	.st24{fill:#D922FF;}
	.st25{opacity:0.4;fill:#2B2B2B;enable-background:new    ;}
	.st26{fill:#111111;}
	.st27{fill:#2B2B2B;}
	.st28{fill:#A3A3A3;}
	.st29{fill:#3A3A3A;}
	.st30{fill:none;stroke:#545454;stroke-miterlimit:10;}
	.st31{fill:#7F7F7F;}
	.st32{fill:#D8D8D8;}
	.st33{fill:#262D60;}
	.st34{fill:#E5E5E5;}
	.st35{fill:#1C2847;}
	.st36{opacity:0.82;fill:#EA3CFF;enable-background:new    ;}
	.st37{opacity:0.82;fill:#BA2FD3;enable-background:new    ;}
	.st38{fill:#B2B2B2;}
	.st39{fill:#BA2FD3;}
	.st40{opacity:0.56;fill:#6D1FE8;enable-background:new    ;}
	.st41{fill:#FF1FFA;}
	.st42{fill:#848484;}
	.st43{fill:#A0A0A0;}
	.st44{fill:#BCBCBC;}
	.st45{fill:#E2E2E2;}
	.st46{fill:#9B9B9B;}
	.st47{fill:#666666;}
	.st48{fill:#070707;}
	.st49{fill:#0E1028;}
	.st50{fill:#895837;}
	.st51{fill:#668EFF;}
	.st52{opacity:0.82;fill:#A733BC;enable-background:new    ;}
	.st53{fill:#1C274C;}
	.st54{fill:#7F5233;}
	.st55{fill:#A86B42;}
	.st56{fill:#1E130C;}
	.st57{fill:#381F0F;}
	.st58{fill:#2B1C11;}
	.st59{fill:#3E4E5B;}
	.st60{fill:#2F373F;}
	.st61{fill:none;stroke:#F42AEF;stroke-width:6;stroke-linecap:round;stroke-miterlimit:10;}
	.st62{fill:#D21AFF;}
	.st63{fill:#A36231;}
	.st64{fill:#515151;}
	.st65{fill:#A4C4F4;}
	.st66{fill:#1D282B;}
	.st67{fill:#A06030;}
	.st68{fill:#543114;}
	.st69{fill:#DB8D4D;}
	.st70{fill:#B77344;}
	.st71{fill:#2D2D2D;}
	.st72{fill:#0C0C0C;}
	.st73{fill:#155CCE;}
	.st74{fill:#441B6B;}
	.st75{fill:#912314;}
</style>
<g>
	<circle class="st0" cx="642.6" cy="513" r="471.7"/>
	<g>
		<g>
			<path class="st1" d="M246.1,581.8c0,0-3.6,9.7-7.4,14c-3.8,4.3-2.2,11.2,1.2,14.7s15.8,5.5,18.4,1.5c2.7-4,3.1-23,3.1-23
				L246.1,581.8z"/>
			<path class="st1" d="M246.8,511.4l-11.7,0.7c0,0,0.9,4.4,0,6.5s1.9,6.1,3.1,7.8c1.2,1.7,1.2,1.7,1.2,1.7l12-5L246.8,511.4z"/>
			<path class="st2" d="M294.1,399.3l48.1-24.1c0,0,6.1,6.8,5.4,14s-5,31.2-10.6,45.9c-5.6,14.7-9.5,33.7-11.7,43.1
				c-2.2,9.3-1.4,22.6-7.9,27.3c-6.5,4.7-19.4,7.5-19.4,7.5L294.1,399.3z"/>
			<path class="st3" d="M282.7,377.3c-1.3-1.9-4.2-1.5-5.1,0.6c-4.3,10-13.6,32.8-13.3,38.6c0.4,7.5,0.4,17.6,3.9,34.8
				c3.3,15.6,6.8,61.1,7.4,69.4c0.1,0.8-0.2,1.6-0.8,2.2c-2,2-6.7,7.2-10.6,12.7c-5,7.2-7.9,27.3-10.8,32.3c-2,3.5-5.7,8.7-7.8,11.6
				c-0.9,1.2-0.7,2.8,0.3,3.8c3.7,3.5,11.9,10.9,15.9,11.5c5.3,0.7,3.5-3.9,6.7-10.4s36.3-48.5,36.6-52.4c0.4-3.9,8.3-76.5,9-86.9
				c0.6-8.1,8.5-20.6,12-25.7c0.9-1.3,0.6-3.1-0.7-4c-7-5-27.3-19.6-28.2-19.2C296.6,396.7,287.5,384.1,282.7,377.3z"/>
			<path class="st4" d="M335.8,272.8l11.9,19.8l5.9,10.1c0,0,5.4,12.8,5.4,17.9s-5.9,16.4-5.9,17.2c0,0.8-3.2,7.3-3.2,7.3l-4.1,23.1
				l-2.1,11.6c0,0-24.1,16.4-31.5,16.4s-32.7-14-32.7-14l2.7-81.6l9.4-25.1l20.7-13.7l13.7,2.7L335.8,272.8z"/>
			<path class="st5" d="M451.2,316.6c0,0,15.5,6.9,16.7,8.8s0.4,3.8,0,5s-0.3,3-1.5,3.9s-16.3-1.1-16,0s7.4,6.2,7.9,7.9
				c0.5,1.8,2.3,3.4-1.9,3.1s-6.7-0.7-8.6-1.5s-3.4-3.4-7.1-3.4c-3.8,0-27.7,1.1-27.7,1.1l13.2-16.6L442,318L451.2,316.6z"/>
			<path class="st6" d="M413.6,341.4c0,0,10.1,1.2,14.3-2.4s11.7-9.3,11.7-9.3s4.8-0.5,6.1-1.1c1.2-0.5,4-1.3,4.6-3.5
				c0.5-2.2,1.1-3.9-1.5-3.5s-5.3,0.7-6.9,0.7s5.9-0.9,7.5-2.3c1.6-1.3,1.6-1.3,1.6-1.3s17-0.7,15.3-3.6c-1.6-3-14.3-3.1-17-3
				s-4.2,0.5-6.5,1.3s-26.9,11.3-26.9,11.3s-0.7,0.1-5.5,4.2c-4.8,4-2.8,10.5-2.8,10.5L413.6,341.4z"/>
			<path class="st7" d="M287.5,277.5c0,0-17.2,10.2-20.5,13c-3.2,2.9-10.1,14.9-7.4,30.5s19.7,68.7,23.5,77s5.4,16.2,23.5,19.7
				c18.1,3.6,47,9.5,47,9.5s-1.1-8.3,1.1-12.2c2.2-3.9,2.7-4.7,2.7-4.7s-41.7-11.7-49.2-22.4c-7.5-10.8-14-44.2-14-44.2
				s-5.2-10.9-4.3-16.3c0.9-5.4,2-16.2,2-16.2s-0.2-5.9-0.5-9.3S287.5,277.5,287.5,277.5z"/>
			<path class="st7" d="M337,272.9c0,0,9.9,24.6,13.1,27.7s6.8,10.5,6.5,14.4s-2.9,13.3-4.8,17.2s-1.8,16.7-1.8,16.7
				s4.1,11.8,9.5,13.3c5.4,1.4,12.7,2.7,29.8-5.2c17.1-7.9,29.6-12.7,29.6-12.7s-5.4-10.4-5.4-14.5s-0.2-3.2-0.2-3.2
				s-33,11.7-37.7,11.8c-4.7,0.2-10.9,0.7-13.8-12.2s-8.3-37.9-10.4-43.4c-2.2-5.6-3.2-7.4-6.5-9s-6.8-0.9-6.8-0.9L337,272.9
				L337,272.9z"/>
			<path class="st8" d="M310.8,269.4c0,0,4,0.1,9.6,4.5s11.8,13.4,11.8,13.4s-4.4-4.3-6.7-3.6c-2.2,0.7-3,2.1-3,2.1l-6.2-3.8
				l-5.1-4.2l-2.2-7.7L310.8,269.4z"/>
			<path class="st9" d="M313.5,266.8c0,0-1.8,3.1-1.6,6.1c0.2,3,1.1,6.3,3.9,8.1c2.9,1.8,3.3,2.7,2.8,4.4c-0.5,1.7-4.3,5.2-4.3,5.2
				l-7,2.9l-5.4-5.6c0,0,7.6-13.1,5.9-17.1s-1.6-6.7-1.3-7.1s6.7,0.9,6.7,0.9L313.5,266.8z"/>
			
				<ellipse transform="matrix(0.7969 -0.6041 0.6041 0.7969 -117.7425 251.3845)" class="st10" cx="315" cy="300.8" rx="9.6" ry="13.5"/>
			
				<ellipse transform="matrix(0.7969 -0.6041 0.6041 0.7969 -118.5409 250.7749)" class="st7" cx="313.7" cy="301.7" rx="9.6" ry="13.5"/>
			
				<ellipse transform="matrix(0.7969 -0.6041 0.6041 0.7969 -107.2517 257.9422)" class="st10" cx="330" cy="288.5" rx="8" ry="11.3"/>
			
				<ellipse transform="matrix(0.7969 -0.6041 0.6041 0.7969 -108.1228 257.3578)" class="st11" cx="328.7" cy="289.5" rx="8" ry="11.3"/>
			
				<ellipse transform="matrix(0.7969 -0.6041 0.6041 0.7969 -119.408 250.2006)" class="st12" cx="312.4" cy="302.7" rx="5.8" ry="8.2"/>
			<path class="st13" d="M291.1,267.7c0,0,2.2,10.9,1.8,13c-0.4,2.2-3.3,8.2-3.3,8.2l-2.8-7.7c0,0-2.8-5.4-2.4-6.4
				C286,270.7,291.1,267.7,291.1,267.7z"/>
			<path class="st13" d="M300.7,285.9l6.6,6.4c0,0-1.8,1.1-3.1,3.3c-1.2,1.9-1.1,3.8-1.1,3.8s-3.7-2.5-3.9-2.8
				S300.7,285.9,300.7,285.9z"/>
			<path class="st14" d="M329.5,210.8c0,0-0.1,7.3-8.6,20.4s-13.5,15.6-13,25c0.4,9.4,1.2,18.9-1,24.6s-4.7,10.1-5.2,12.6
				S299,302,299,302s-8.1-5.9-9.5-8.8s-1.4-2.9-1.4-2.9s4.1-6.3,3.9-10.6c-0.2-4.3-0.9-12-0.9-12s-2.3,1.8-3.1,2.7
				c-0.7,0.9-2.9,5.2-2.9,5.2l0.7,3.1c0,0-2.5,1.4-7,4.8s-6.1,3.8-6.1,3.8s5.6-20.3,5.7-24.9c0.2-4.7-3.4-23.3-2.9-34.3
				s2.7-23.3,9.2-28s12.2-9.7,24.1-8.3c11.8,1.4,19.9,6.3,25.7,12.6c5.7,6.3,9.5,10.8,9.3,21.7s-0.9,29.3-0.9,33.9s0.4,6.5-0.7,10.5
				s-2.1,5.9-2.1,5.9l-12.4-5.2l7.9-27.6l-2.2-22.8L329.5,210.8z"/>
			<path class="st6" d="M328.7,209.8c0,0,1.3,2.2,4.9,4.5s5.6,3.4,5.6,3.4s0.7,9,0.9,17c0.2,8,0.1,16.3-0.8,18.8
				c-0.9,2.4-3.1,6.3-3.7,8.3s-0.6,5.7-4.7,8.2c-3.6,2.2-6.7,1.6-12.1-0.2c-5.4-1.8-10.5-4-10.5-4l-0.4-16.7c0,0,4.6-8.1,6.7-10.9
				c2.2-2.8,8.3-12.1,9.8-15.2c1.4-3.1,3.6-6.7,3.9-8.7C328.5,212.3,328.7,209.8,328.7,209.8z"/>
			<path class="st15" d="M330.9,227.1c0,0-0.4,7.2-0.2,8.9c0.2,1.7,0.7,5.1,2.1,6.8s3.1,2.8,3.6,3.4c0.7,0.9,0.9,2.4-1,4.1
				c-2.6,2.3-9.1,0.8-9.1,0.8s-0.6,0.4,0,0.6c0.6,0.3,4.1,2.1,6.5,1.4c5.6-1.6,5.6-5.3,5-7c-0.5-1.2-3.4-3.2-4.3-5.6
				c-2.3-6.6,3.9-14.4,3.9-14.4L330.9,227.1z"/>
			<path class="st16" d="M336.9,218.9c-1.8,0.2-4.8,3.1-5.7,5.4c-0.8,2.3-0.8,6.3,0.7,6.3s2.3-2.1,4.2-3.2c1.9-1.1,3.8-0.8,4.3-2
				C341,224.4,342.1,218.3,336.9,218.9z"/>
			<path class="st16" d="M319.4,230.7c0,0,2.7,0.7,2.8,1.6c0,0.8,0.4,2.3-2.4,3.4s-4.8,1.4-4.8,1.4L319.4,230.7z"/>
			<ellipse cx="336.3" cy="237.3" rx="0.8" ry="1.7"/>
			<ellipse cx="318.9" cy="246" rx="0.8" ry="1.7"/>
			<path class="st17" d="M330.7,257.5c-3.7,3.1-6.2,1.8-7.6,2.4c-2,0.9-1.5,1.5-0.1,2.7c2.1,1.8,4.6,2.3,6.5,1.7s3.9-1.7,5.2-4.2
				C335.5,258.6,337.6,251.8,330.7,257.5z"/>
			<path class="st6" d="M355,412.8l2.4,1.1c0,0,16.8-13.7,18.8-14.7c2-0.9,5.4,0,5.4,0l17.9-4.6c0,0,7.8,1.3,10.2,0
				c2.4-1.3,6.5-2.3,6.6,0s-0.8,6.2-2.7,6.9c-1.9,0.7-6.1,1.2-6.1,1.2s4.7,3.5,4.2,5.9s-6.1,5.8-8.8,5.9c-2.7,0.1-13.6-3.4-13.6-3.4
				l-2.2,4.8c0,0,9.8-0.3,9.3,2.7s-3.5,3-8.8,4.3s-13.5,3.4-15.3,2.7c-1.9-0.7-6.6,3.8-12.3,3.4c-5.7-0.4-8.1-1.8-8.1-1.8L355,412.8
				z"/>
			<path class="st5" d="M381.8,408.5c0,0-5.5,9.2-11,14.5c-5.6,5.3-8.9,6.1-8.9,6.1s5-1.7,7.5-2.5s4.4-0.4,7.7-1.1
				s17.2-2.7,18.4-4.7c1.2-2,2.4-3,0-3.7s-8.1-1-8.1-1l2.2-4.8L381.8,408.5z"/>
			<path class="st3" d="M275.8,492.4c0,0-9.7,3.1-19.4,8.5c-9.7,5.4-12.2,7.9-12.2,7.9s-1.4,9.3,2.9,13.6c4.3,4.3,7.9,3.9,7.9,3.9
				s6.8-3.6,12.2-4.7c5.4-1.1,12.5-3.2,12.5-3.2L275.8,492.4z"/>
			<path class="st18" d="M214.4,509.4c0,0-8.3-2-8.7,0.7c-0.4,2.7,0.7,16.4,2.4,19.5c1.8,3.1,2.2,4.4,5.1,6.9c3,2.4,4.8,4.4,4.2,9.3
				c-0.7,4.8-1.8,10.2,2,17.2s3.6,8.9,8.7,11.7c5.1,2.8,8.4,2.8,8.4,2.8s3.2-0.1,2.6-1.8c-0.7-1.6-14.4-21.3-13.9-27.6
				s-4.4-22.5-4.7-27.5C220.3,515.7,214.4,509.4,214.4,509.4z"/>
			<path class="st18" d="M225.3,604.5c0,0-7.7,2.4-9.3,5.3c-1.6,2.8,3,15.9,6.3,20.1c3.4,4.2,14.1,10.5,17.9,15.2s8.3,13.9,13.6,19
				s16.3,11.2,20.9,13.5s12.5,1.8,13.7,0.7s-1.5-6.1-1.5-6.1l-35.4-42.8L225.3,604.5z"/>
			<path class="st19" d="M231.7,510.3c0,0,5.2,0.9,4.9,4.6c-0.3,3.7-0.8,7.1,0,8.8s3,3.3,3.1,5.8s-0.3,29.4,0,33.5
				c0.3,4,2.5,9,2.2,10.7c-0.4,1.7-1.8,4.6-4.5,2.7s-9.5-10-11.8-16.4c-2.3-6.5-1.1-15.9-1.5-17.8c-0.4-1.9-3.9-3.9-4.6-7.1
				s-0.1-12.5-1-14.9s-4.1-10.8-4.1-10.8L231.7,510.3z"/>
			<path class="st19" d="M236.6,595c-3.6,2.2-11.3,9.4-11.3,9.4s3.2,3,4.6,7.4s1.5,14.7,3.9,17.1c2.4,2.4,13.3,10.5,17.1,17.8
				s15.2,20.1,24,24.2c8.8,4.2,12.7,7,16,3.9c3.4-3.1,3.1-10.2-3.2-17.9s-12.3-15.8-17.6-31.5c-5.4-15.8-9.1-25.4-9.1-25.4
				s-1.4,8.4-8,9.8S245.1,589.6,236.6,595z"/>
		</g>
		<g class="st20">
			<path class="st21" d="M650.3,507.2c-20-9.2-52.7-9.1-72.7,0.1L111.2,722.7c-20,9.2-20,24.3,0.1,33.4l383.5,175.7
				c20,9.2,52.7,9.1,72.7-0.1L1034,716.5c20-9.2,20-24.3,0-33.4L650.3,507.2z"/>
		</g>
		<path class="st22" d="M1033.3,553.8c0,6.9-3,13-7.9,17.2c-1.2,1.3-2.9,2.4-5.1,3.5l-24.1,11.1l-6.2,2.8L497.7,815.9
			c-9.6,4.4-25.3,4.4-34.8,0L110.7,652.6c-9.6-4.4-9.6-11.7,0-16.1l522.5-241.7c9.6-4.4,25.3-4.4,34.8,0l321.9,149.4
			c3.6-7.8,11.5-13.2,20.6-13.2C1023.1,531,1033.3,541.2,1033.3,553.8z"/>
		<path class="st23" d="M1020.3,549.2L992.8,562l-7.1,3.3l-488,225.5c-9.6,4.4-25.3,4.4-34.8,0L110.7,627.4
			c-9.6-4.4-9.6-11.7,0-16.1l522.5-241.7c9.6-4.4,25.3-4.4,34.8,0l352.3,163.5C1029.9,537.6,1029.9,544.8,1020.3,549.2z"/>
		<polygon class="st24" points="596.7,394.2 964.7,564.1 535.9,762.1 168.1,592.4 		"/>
		<path class="st25" d="M757.1,475.3c-42.7-19.8-112.7-19.8-155.5,0s-42.8,52.3,0,72.1s112.7,19.8,155.5,0
			C799.9,527.6,799.9,495.1,757.1,475.3z"/>
		<path class="st25" d="M568.8,552.7c-42.7-19.8-112.7-19.8-155.5,0s-42.8,52.3,0,72.1s112.7,19.8,155.5,0S611.6,572.5,568.8,552.7z
			"/>
		<path class="st26" d="M566.8,482.7c-42.7-19.8-112.7-19.8-155.5,0s-42.8,52.3,0,72.1s112.7,19.8,155.5,0
			C609.6,534.9,609.6,502.5,566.8,482.7z"/>
		<path class="st27" d="M566.8,478.5c-42.7-19.8-112.7-19.8-155.5,0s-42.8,52.3,0,72.1s112.7,19.8,155.5,0S609.6,498.3,566.8,478.5z
			"/>
		<path class="st28" d="M511.8,504c-12.5-5.8-32.9-5.8-45.4,0s-12.5,15.3,0,21.1s32.9,5.8,45.4,0S524.3,509.8,511.8,504z"/>
		<path class="st29" d="M499.4,508.6c-5.7-2.6-15-2.6-20.7,0s-5.7,7,0,9.6c5.7,2.6,15,2.6,20.7,0S505.1,511.2,499.4,508.6z"/>
		<g>
			<path class="st30" d="M560.5,481.4c-39.3-18.2-103.5-18.2-142.8,0s-39.3,48,0,66.2s103.5,18.2,142.8,0S599.7,499.6,560.5,481.4z"
				/>
			<path class="st30" d="M554,484.4c-35.7-16.6-94.2-16.6-129.9,0s-35.7,43.7,0,60.2c35.7,16.6,94.2,16.5,129.9,0
				C589.8,528.1,589.8,501,554,484.4z"/>
			<path class="st30" d="M547.9,487.6c-32.3-14.6-85.3-14.6-117.6,0c-32.4,14.6-32.4,38.6,0,53.2s85.3,14.6,117.6,0
				S580.2,502.3,547.9,487.6z"/>
			<path class="st30" d="M540.4,491.2c-28.2-12.5-74.4-12.5-102.7,0c-28.2,12.5-28.2,32.9,0,45.4s74.4,12.5,102.7,0
				S568.6,503.7,540.4,491.2z"/>
			<path class="st30" d="M533.7,494.5c-24.6-10.2-64.8-10.1-89.3,0c-24.6,10.2-24.6,26.8,0,36.9c24.6,10.1,64.8,10.1,89.3,0
				C558.3,521.2,558.3,504.6,533.7,494.5z"/>
			<path class="st30" d="M526.2,498c-20.4-8.2-53.9-8.2-74.3,0s-20.4,21.6,0,29.8s53.9,8.2,74.3,0
				C546.7,519.6,546.7,506.2,526.2,498z"/>
		</g>
		<g>
			<g>
				<path class="st31" d="M340.7,682c-5.3,1.4-5.6,4.5-0.6,6.8l32.6,15.1c5,2.3,12.4,1.2,16.6-2.4l20.4-18.1
					c4.1-3.6,3.4-8.5-1.6-10.8l-3.1-1.4c-5-2.3-13.4-3-18.7-1.6L340.7,682z"/>
			</g>
			<g>
				<path class="st32" d="M340.7,679.3c-5.3,1.4-5.6,4.5-0.6,6.8l32.6,15.1c5,2.3,12.4,1.2,16.6-2.4l20.4-18.1
					c4.1-3.6,3.4-8.5-1.6-10.8l-3.1-1.4c-5-2.3-13.4-3-18.7-1.6L340.7,679.3z"/>
			</g>
			<g>
				<g>
					<path class="st33" d="M302.9,476.1c0.1-5.5,4.3-8,9.2-5.5L492,560.7c4.9,2.5,8.9,9,8.7,14.5L498,709.6c-0.1,5.5-4.2,8-9.2,5.6
						l-180.9-89.7c-4.9-2.4-8.8-8.9-8.7-14.4L302.9,476.1z"/>
				</g>
				<path class="st34" d="M497.7,576.3l-2.4,120.3l-0.3,14.1c-0.1,5.5-4.2,8-9.2,5.6L305,626.5c-4.9-2.4-8.8-8.9-8.7-14.4l0.3-13.3
					l3.2-121.5c0.1-5.5,4.3-8,9.2-5.5l180,90.1C493.9,564.3,497.9,570.8,497.7,576.3z"/>
				<path class="st35" d="M495.5,577.1L493,697.4l-198.6-97.9l3.2-121.5c0.1-5.5,4.3-8,9.2-5.5l179.9,90.1
					C491.6,565.1,495.6,571.6,495.5,577.1z"/>
				<g>
					<polygon class="st36" points="487.7,574.9 304.6,483.3 302.9,551.2 486.4,638.9 					"/>
					<polygon class="st37" points="302.9,551.2 301.7,595.7 485.5,686.2 486.4,638.9 					"/>
				</g>
			</g>
		</g>
		<path class="st38" d="M997.7,577c0,3-0.5,5.9-1.4,8.5l-6.2,2.8c0.7-2.3,1.1-4.8,1.1-7.3c0-6.1-2.1-11.7-5.5-15.8l7.1-3.3
			C995.8,566,997.7,571.3,997.7,577z"/>
		<path class="st38" d="M552.3,782.7c0,3-0.5,5.9-1.4,8.5l-6.2,2.8c0.7-2.3,1.1-4.8,1.1-7.3c0-6.1-2.1-11.7-5.5-15.8l7.1-3.3
			C550.5,771.7,552.3,777,552.3,782.7z"/>
		<g>
			<path class="st39" d="M632.6,632.4c-5.5-2.6-18.2-0.9-28.2,3.8L560,656.8c-10,4.6-13.6,10.4-8.1,12.8c5.5,2.4,18.2,0.6,28.2-3.9
				l44.3-20.2C634.4,640.8,638.1,635,632.6,632.4z"/>
		</g>
		<g>
			<path class="st39" d="M725.2,588.4c-5.5-2.6-18.2-0.9-28.2,3.8l-44.4,20.6c-10,4.6-13.6,10.4-8.1,12.8c5.5,2.4,18.2,0.6,28.2-3.9
				l44.3-20.2C727,596.7,730.7,590.9,725.2,588.4z"/>
		</g>
		<g>
			<path class="st39" d="M692.6,629.2c-5.5-2.6-18.2-0.9-28.2,3.8L620,653.6c-10,4.6-13.6,10.4-8.1,12.8c5.5,2.4,18.2,0.6,28.2-3.9
				l44.3-20.2C694.4,637.6,698.1,631.8,692.6,629.2z"/>
		</g>
		<g>
			<path class="st39" d="M601.9,671.2c-5.5-2.6-18.2-0.9-28.2,3.8l-44.4,20.6c-10,4.6-13.6,10.4-8.1,12.8c5.5,2.4,18.2,0.6,28.2-3.9
				l44.3-20.2C603.7,679.6,607.4,673.7,601.9,671.2z"/>
		</g>
		<g>
			<path class="st39" d="M780.8,588.4c-5.5-2.6-18.2-0.9-28.2,3.8l-44.4,20.6c-10,4.6-13.6,10.4-8.1,12.8c5.5,2.4,18.2,0.6,28.2-3.9
				l44.3-20.2C782.6,596.7,786.3,590.9,780.8,588.4z"/>
		</g>
		<g>
			<path class="st39" d="M840.8,585.2c-5.5-2.6-18.2-0.9-28.2,3.8l-44.4,20.6c-10,4.6-13.6,10.4-8.1,12.8c5.5,2.4,18.2,0.6,28.2-3.9
				l44.3-20.2C842.6,593.5,846.3,587.7,840.8,585.2z"/>
		</g>
		<g>
			<path class="st39" d="M750.1,627.1c-5.5-2.6-18.2-0.9-28.2,3.8l-44.4,20.6c-10,4.6-13.6,10.4-8.1,12.8s18.2,0.6,28.2-3.9
				l44.3-20.2C751.9,635.5,755.6,629.7,750.1,627.1z"/>
		</g>
		<path class="st40" d="M1204.2,666.1c37.2-17.5,37.4-45.9,0.5-63c-37-17.1-97.7-17-134.9,0.2c-37.2,17.3-37.4,45.6-0.5,63
			C1106.3,683.8,1167,683.7,1204.2,666.1z"/>
		<path class="st40" d="M228,957.1c37.2-17.5,37.4-45.9,0.5-63c-37-17.1-97.7-17-134.9,0.2c-37.2,17.3-37.4,45.6-0.5,63
			C130.1,974.8,190.8,974.7,228,957.1z"/>
		<path class="st41" d="M854.2,187.8c-0.3,0.2-0.5,0.4-0.9,0.5L854.2,187.8z"/>
		<g>
			<polygon class="st42" points="869.2,384.4 862.5,426.5 867.1,438.2 872,439.2 896.8,422.8 907.9,414.4 892.4,405.2 			"/>
			<path class="st31" d="M777.9,232.1c-1.2-9.1,4.7-13.5,13.1-9.7L963.5,301c8.4,3.8,16.2,14.4,17.4,23.6l14.4,113.1
				c1.2,9.1-4.7,13.5-13.1,9.7l-172.5-78.6c-8.4-3.8-16.2-14.4-17.4-23.6L777.9,232.1z"/>
			<path class="st22" d="M774.3,233.1c-1.2-9.1,4.7-13.5,13.1-9.7L959.9,302c8.4,3.8,16.2,14.4,17.4,23.6l14.4,113.1
				c1.2,9.1-4.7,13.5-13.1,9.7L806,369.7c-8.4-3.8-16.2-14.4-17.4-23.6L774.3,233.1z"/>
			<g>
				
					<ellipse transform="matrix(0.6083 -0.7937 0.7937 0.6083 92.0435 820.3306)" class="st43" cx="877.1" cy="316.9" rx="6" ry="12.4"/>
			</g>
			<path class="st44" d="M910.9,417.5l-3.2-1.3l-1.8-0.8l-28.7-13l12-38.1c0.5-1.5,1.5-2.6,2.9-3.2l5.8-2.5l11.8,54.5l0.3,1.6
				L910.9,417.5z"/>
			<path class="st44" d="M897.9,358.7l-5.8,2.5c-1.4,0.6-2.5,1.8-2.9,3.2l-12,38.1l-2.3-1l-11.2-5.1l15.5-44.1l15.6,4.4l0,0
				L897.9,358.7z"/>
			<g>
				<path class="st45" d="M852.7,335.7l-6.2,2.6c-1.3,0.6-2.3,1.6-2.7,3l-22,67.3l-1.1,3.3c-0.1,0.7-0.2,1.5-0.2,2.2
					c0,0.1,0,0.1,0,0.2c0,2.3,0.8,4.2,2.2,5.3l2.8,1.2l43.2,19.2c-0.1-0.2-0.7-1.4-2-3.5c-0.7-1.1-1.1-2.6-1.3-3.8l1.4-4.4
					l20.3-67.1c0.5-1.4,1.5-2.6,2.9-3.2l8-2.5L852.7,335.7z M855.8,396.6c-2.1,0.2-4.2-0.2-6.3-1.2c-6.9-3.2-10.6-11.6-8.4-18.7
					c1.8-5.6,6.7-8.7,12-8.3c1.5,0.1,3,0.5,4.5,1.2c6.8,3.2,10.6,11.6,8.4,18.7C864.5,393.2,860.4,396.3,855.8,396.6L855.8,396.6z"
					/>
				<path class="st42" d="M855.8,396.6c-2.1,0.2-4.2-0.2-6.3-1.2c-6.9-3.2-10.6-11.6-8.4-18.7c1.8-5.6,6.7-8.7,12-8.3
					c-4.6,0.4-8.6,3.4-10.1,8.3c-2.2,7.1,1.5,15.5,8.4,18.7C852.9,396.1,854.4,396.5,855.8,396.6z"/>
			</g>
			<g>
				<path class="st46" d="M907.9,416.3l-35.8,24.2c-0.3,0.1-0.7,0.1-1,0.1c-3,0-5.3-2.2-5.8-5.2c-0.5-3.3,1.3-6.9,2.3-10.1
					c0.8-2.8,1.7-5.5,2.5-8.3c1.6-5.2,3.2-10.5,4.8-15.7c0.9-3,1.8-6.1,2.8-9.1c2.4-7.8,4.7-15.6,7.1-23.4c0.8-2.5,1.5-5.1,2.3-7.6
					c0.5-1.4,1.5-2.6,2.9-3.2l4.9-1.5l0,0l3.1-0.9v3.1l-5.8,2.5c-1.4,0.6-2.5,1.8-2.9,3.2l-12,38.1l-9.2,29.4
					c-0.1,0.7-0.2,1.3-0.2,1.9c0,1.6,0.5,2.9,1.3,3.6c0.7,0.6,1.6,0.8,2.7,0.6l34.1-22.6L907.9,416.3z"/>
			</g>
			<polygon class="st47" points="953.7,422.8 956.3,424.1 957.3,430.7 954.6,429.3 			"/>
			<polygon class="st47" points="958,424.9 960.6,426.2 961.6,432.8 958.9,431.3 			"/>
			<polygon class="st47" points="962.3,426.9 964.9,428.2 965.9,434.8 963.2,433.4 			"/>
		</g>
		<g>
			<path class="st36" d="M1070.5,512.2c11.6-5.5,11.7-14.3,0.2-19.7c-11.5-5.4-30.5-5.3-42.1,0.1s-11.7,14.3-0.2,19.7
				C1039.9,517.7,1058.9,517.7,1070.5,512.2z"/>
			<path class="st22" d="M1078,469.6c0,0.7-0.3,1.3-0.7,1.8c-0.2,0.3-0.6,0.7-1.2,0.9l-49.4,22.9c-1.8,0.9-4.9,0.9-6.7,0l-27-12.5
				c-0.3-0.1-0.5-0.3-0.7-0.4l0,0c-0.8-0.5-1.3-1.3-1.3-2.3c0-1.5,1.2-2.7,2.7-2.7c0.8,0,1.6,0.4,2.1,1l46.6-21.6
				c1.8-0.9,4.9-0.9,6.7,0l23.8,11.1c0.5-0.6,1.3-1,2.2-1C1076.7,466.8,1078,468,1078,469.6z"/>
			<path class="st23" d="M1049.2,454.4c-1.8-0.9-4.9-0.9-6.7,0l-49.4,22.9c-1.8,0.9-1.8,2.3,0,3.1l27,12.5c1.8,0.9,4.9,0.9,6.7,0
				l49.4-22.9c1.8-0.9,1.8-2.3,0-3.1L1049.2,454.4z"/>
			<polygon class="st48" points="997.5,476.6 1028.4,490.8 1071.6,470.7 1040.8,456.5 			"/>
			<path class="st48" d="M1054.3,461.3c0.5-1.8,5.6-1.8,6.1,0C1059.9,463.1,1054.8,463.1,1054.3,461.3z"/>
		</g>
		<path class="st26" d="M757.1,407.6c-42.7-19.8-112.7-19.8-155.5,0s-42.8,52.3,0,72.1c42.8,19.8,112.7,19.8,155.5,0
			S799.9,427.4,757.1,407.6z"/>
		<path class="st27" d="M757.1,403.4c-42.7-19.8-112.7-19.8-155.5,0s-42.8,52.3,0,72.1c42.8,19.8,112.7,19.8,155.5,0
			S799.9,423.3,757.1,403.4z"/>
		<path class="st30" d="M750.8,406.2c-39.3-18.2-103.5-18.2-142.8,0s-39.3,48,0,66.2s103.5,18.2,142.8,0S790.1,424.4,750.8,406.2z"
			/>
		<path class="st30" d="M744.4,409.2c-35.7-16.6-94.2-16.6-129.9,0s-35.7,43.7,0,60.2c35.7,16.6,94.2,16.5,129.9,0
			C780.1,452.9,780.1,425.8,744.4,409.2z"/>
		<path class="st30" d="M738.2,412.5c-32.3-14.6-85.3-14.6-117.6,0c-32.4,14.6-32.4,38.6,0,53.2s85.3,14.6,117.6,0
			C770.6,451,770.6,427.1,738.2,412.5z"/>
		<path class="st30" d="M730.7,416c-28.2-12.5-74.4-12.5-102.7,0c-28.2,12.5-28.2,32.9,0,45.4s74.4,12.5,102.7,0
			S759,428.5,730.7,416z"/>
		<path class="st30" d="M724.1,419.3c-24.6-10.2-64.8-10.1-89.3,0c-24.6,10.2-24.6,26.8,0,36.9s64.8,10.1,89.3,0
			C748.6,446,748.6,429.4,724.1,419.3z"/>
		<path class="st30" d="M716.6,422.8c-20.4-8.2-53.9-8.2-74.3,0c-20.4,8.2-20.4,21.6,0,29.8c20.4,8.2,53.9,8.2,74.3,0
			C737,444.5,737,431,716.6,422.8z"/>
		<path class="st28" d="M702.1,429c-12.5-5.8-32.9-5.8-45.4,0s-12.5,15.3,0,21.1c12.5,5.8,32.9,5.8,45.4,0S714.6,434.7,702.1,429z"
			/>
		<path class="st29" d="M689.7,433.6c-5.7-2.6-15-2.6-20.7,0s-5.7,7,0,9.6s15,2.6,20.7,0C695.4,440.5,695.4,436.2,689.7,433.6z"/>
		<g>
			<path class="st49" d="M1104.9,571.4l2.5,4.9c0,0,10.2,1.6,20.4-4.9c10.2-6.5,17.6-14.3,18.4-24.2s0.8-20.1,2.1-21.9
				c1.3-1.8,2.9-3.4,5.5-8.8c2.6-5.4-2.4-13.3-2.4-13.3l-5.4-2.3l-24.2,65.5L1104.9,571.4z"/>
			<path class="st49" d="M1140.6,474.8c0,0,4.8,4,10.8,0.6c3.7-2.1,16.1-7.5,19.6-30.4c1.1-6.9,1.9-15.8,4.1-20.6
				c2.1-4.9,4-5.2,4.1-9.7c0.3-11.4-6-11.7-6-11.7s-2.9-0.5-4.2,2.8c-1.2,3-15.4,51.9-17.5,58.8c-0.2,0.5-0.5,1-0.9,1.4l-6.6,6.5
				C1142.9,473.7,1139.3,473.8,1140.6,474.8z"/>
			<polygon class="st50" points="1152.4,403.8 1158.1,405.3 1157.6,415.8 1152.4,422.6 1144.6,419.9 1143.3,410.3 			"/>
			<path class="st50" d="M1121.8,490.2l2.9,12.3c0,0,11.4-2.4,13.6-4.9s2.3-2.5,2.3-2.5l-3.1-9.3L1121.8,490.2z"/>
			<path class="st51" d="M1118.6,374.3c0,0,16.6,12.7,24.5,19.3c8,6.7,11,9.6,11,9.6s1.5,4.7,0,7.6s-4.5,5.7-4.5,5.7
				s-1.8-1.8-3.7-1.3c-1.9,0.5-2.6,2.4-2.6,2.4s0.6-3.4-1.3-4.2c-1.9-0.8-27.7-14.6-27.7-14.6s-4.4-16.1-1.7-19.3
				c2.8-3.2,5.2-5.2,5.2-5.2H1118.6z"/>
			<path class="st51" d="M1059.2,265.6c0,0,0.6,47.6,6,73.6s6.1,38.5,12.2,43.9s11.9,8.8,11.9,8.8l5.6-34.8l-1.2-35.7l6.4-2.3
				l19.1-28.3l-11.5-12.2l-29.2-5.1L1059.2,265.6z"/>
			<path class="st51" d="M1100.2,315.4c0,0-7.4,47.8-9.4,59c-1.9,11.2-3.7,20.2-1.6,27.5s13.5,39.2,18.6,53.6s11.5,34.6,11.5,34.6
				s4.1,3.9,11.2,2.2c7.1-1.7,7.6-3.2,7.6-5.8c0-2.7-5.8-29.7-6.3-35.6c-0.5-5.8-2.9-21.4-7.8-30.5c-4.9-9-7.6-23.1-7.1-30.7
				s9.5-38,12.7-48.2s9.7-26.3,10.5-35.3s-1.2-24.9-1.2-24.9L1100.2,315.4z"/>
			<path class="st36" d="M1095.8,326.5c0,0-7.9,12.3-29.8,16.5s-33.1-8.5-26.2-16.3s21.9-12.6,32.6-12.1
				C1083.2,315,1095.8,326.5,1095.8,326.5"/>
			<path class="st52" d="M1095.8,322.1c0,0-7.9,12.3-29.8,16.5s-33.1-8.5-26.2-16.3s21.9-12.6,32.6-12.1
				C1083.2,310.6,1095.8,322.1,1095.8,322.1"/>
			<path class="st50" d="M1087.7,313c-0.1,0-0.1,0-0.2,0c-0.6,0.1-3.7,0.5-6.4-0.5c-2.7-1.1-15.7-4.2-17.8-4.7c-0.2,0-0.4,0-0.5,0
				c-1.4,0.6-8.3,3.4-10.4,4.9c-2.4,1.6-3.1,5.2-2.8,6.5s2.6,7.4,3.4,8.3c0.9,0.9,1.7,1.6,1.7,1.6s-0.3,4,1.4,4.6
				c1.7,0.6,4,0.2,4.7-1.9s0.4-6.7,1.8-7.4c1-0.5,4.7-1.3,6.9-1.8c0.7-0.2,1.3,0.6,1,1.2c-0.5,1-1.2,2.4-2.1,3.7
				c-1.7,2.3-5,4.7-4.9,5.4s1.9,3.5,6.2,1s7.4-6.5,8.7-6.7c1.3-0.2,3.5,1.4,6.3,1.3s10.7-1.3,12-2.5c0.9-0.8,2.2-1.8,2.9-2.4
				c0.3-0.3,0.4-0.8,0.2-1.1l-4.6-8.4c-0.1-0.3-0.4-0.4-0.7-0.5L1087.7,313z"/>
			<path class="st53" d="M1109.5,175.2c0,0,36.2,26,39.6,29.4s7.5,10.1,3.2,35.3s-8.2,52.9-16.1,59.8s-40.4,26.8-40.4,26.8
				s2.8-6.9-1.3-9.4s-7-4.2-7-4.2l22-20.9c0,0-22.1-3.4-31.3-8.1c-9.2-4.7-19.6-12.5-21.1-16.2s-1.6-7.2-1.5-11.1s0-9.5,0-9.5
				s-6.5,12-13.3,15c-6.9,3-21.3,6-33.9,6.9c-12.6,0.9-31.9,1-31.9,1s6.7-4.6,6.5-8.6s-4.1-8-4.1-8s35.6-4.4,44.6-7.2
				s11.4-3,13.7-5.7c2.4-2.7,12.9-31.3,14.1-36.8s6-19.5,7.4-20.6s8.1-7,8.1-7s5.5,7.4,13.2,5.4s19.5-4.5,22.4-3.2
				S1109.5,175.2,1109.5,175.2z"/>
			<path class="st54" d="M1090.4,179.8c0,0,2.4,3.4,1.9,7.4s-0.9,7.6-0.9,7.6s7.6,3.5,13.5,0c10.9-6.4,9-10.1,9.1-11.5
				s-1.6-3-2.6-6.1s-1-14.2-0.6-16.1c0.4-1.9-3.6,1.2-3.6,1.2l-10.8,7.6L1090.4,179.8z"/>
			<path class="st55" d="M1108,161.1c0,0-2.9-13,1.7-15s10.7-2.6,11.1,3.4s-5.8,15.1-8.2,15.1C1110.1,164.6,1108,161.1,1108,161.1z"
				/>
			<path class="st56" d="M1062.5,153.3c0,0-3-0.9-3.8-4.9s0-6.3,0-6.3s-3.2-1.9-2.7-4.6c0.5-2.7,0.5-2.7,0.5-2.7s-3.8-1.7-4.7-6.8
				c-0.8-5,1.7-8.2,3.3-10.4s1.7-2.2,1.7-2.2s-3.3-6,0.3-10.5c3.6-4.5,6.3-6.4,9.7-7.2c4.4-0.9,5.8,0,5.8,0s2.1-4.8,6.6-6.5
				s10.3-0.8,14.1,1.5c3.8,2.3,3.8,4.2,5.8,4.3c2,0.2,10-2.7,16-0.2s8,6.3,8,6.3s9.5,2.8,10.6,8.2c1.2,5.3,0,8.8,0,8.8
				s3.2,0.8,3.3,6.3c0.1,5.5-2.8,8.4-2,10.9s3.2,7.4,1,11.1s-5.7,5.1-7,7.4c-1.3,2.3-0.8,6.4-4.2,9.3c-3.3,2.8-7.5,4-11,3.5
				s-4.3-2.5-4.3-2.5l0.8-2.5c0,0,9-5.3,8.9-10.4c0-1.2-0.5-5.1-2.8-5.9c-2.3-0.8-5.8-1.4-6.8,2.7c-1,4.1,0.5,10.9-0.7,12.9
				s-0.8,3.7-3.8,3.3s-4.7,1.8-4.8-1.9s0.8-6.7,0.8-6.7l-3.5-2.6l-0.7-8.7l-9.9-7l-10.5-4.8l-6-1.2l-3.8-0.5L1062.5,153.3z"/>
			<path class="st55" d="M1066.8,128c0,0-5.1,8.6-5,15.7c0.1,7.1-0.4,13.7,0,17c0.4,3.2,1.5,5,2.4,8.6s1.3,10.1,2.6,12.1
				c1.2,2,2.7,5.1,10.7,3.7c8-1.4,18.2-5.1,21.5-8.1c3.2-3,5-10.6,5-10.6s-2.4,0.4-2.5-2.1s1.5-6.5,0.9-7.6c-0.6-1-4.1-2-4.2-4.3
				c-0.1-2.2,0.2-9.1,0.2-9.1s-5.6,1-7.1-1.6s-2-4.2-2-4.2s-1.6,0.5-4.7,0.4s-4.7-2.7-4.7-2.7s-0.7-1.2-0.6-2.7s-3.4,1.1-5.1,0.7
				C1072.4,132.9,1066.8,128,1066.8,128z"/>
			<path class="st57" d="M1071.2,142.1c0,0,3.1,3.9,3.2,7s-0.1,5.9-1.1,7.4c-0.9,1.6-2.3,4-2.2,4.7c0.3,1.7,1.5,2.8,3.6,2.5
				s4.4-0.9,4.4-0.9s-8.3,4.9-9.3-1.9c-0.3-2.1,2.5-4.9,2.7-6.9s0.1-6.5-2-8.3c-2.1-1.9-4-3.4-4-3.4L1071.2,142.1z"/>
			<path class="st56" d="M1061,139.9c0,2.1,1.4,3.8,3.7,3.9c2.2,0.1,4.7,0.3,6.2,2.4c1.5,2.1,2.1-1.9,1.1-3.3
				c-0.9-1.4-1.8-3.3-4.9-4.7C1064.2,136.8,1061,137.6,1061,139.9z"/>
			<path class="st56" d="M1088.8,142.6c-3-0.4-6,0.6-6.7,1.1c-2.3,1.9-1.2,3.4,0,4.6c1.2,1.1,4.1,0.2,5.9,0.4c1.9,0.2,5.1,2.4,6.7,2
				s2.6-1.3,2-2.6C1096.2,146.7,1094.5,143.4,1088.8,142.6z"/>
			<path d="M1088.3,156c0,1.1-0.5,1.9-1.2,1.9s-1.2-0.9-1.2-1.9c0-1.1,0.5-1.9,1.2-1.9S1088.3,154.9,1088.3,156z"/>
			<ellipse cx="1068.7" cy="152.1" rx="1.2" ry="1.9"/>
			<path class="st58" d="M1072.8,171.3c1.5,1,4.9,0.4,5.8-0.2c1.7-1.3,2.8-0.2,2.3,0.7c-0.4,0.9-2.7,1.8-6.4,1.5s-4.7-1.7-5.1-2.3
				C1069.2,170.4,1070.2,169.5,1072.8,171.3z"/>
			<path class="st55" d="M971.4,265.5c0,0-5.3,0.9-8.3-2.1s-7.2-11.6-9.1-17.3s-3.2-6.5-5.5-6.1c-2.2,0.4-9.4-1.1-8.9-3.2
				c0.5-2.1,10-3.9,10-3.9s-2.4-5.7-3.2-7.8c-1.1-3.2,5.6-7.8,8.3-4c3.7,5.4,7.1,11.6,6.9,10.9c0,0-0.1-6.4-1-9s-1-5.6,0.7-5
				s4.2,3.4,5.9,8.6c1.6,5.2,1.9,14.4,1.9,14.4s0.7,0.7,1.5,2.5s4.9,8.7,5.7,11.6C979.8,267.1,971.4,265.5,971.4,265.5z"/>
			<path class="st50" d="M985.3,263.8c-1,4.6-8.9,6.2-8.9,6.2s-7.4-2.4-8.2-6.7c-0.9-4.4-0.9-9.6-1.2-12c-0.4-2.4-1.1-7.7,0.9-7.9
				c1.2-0.1,5,5.6,5.8,7.1c-3.2-5.9-7.8-17.2-8-18.5c-0.5-2.5-2.3-9.5-4.1-11.8c-1.3-1.7-0.7-2.9,1.3-1.4c6,4.4,5.6,12.8,9.4,20.9
				c2.9,6.1,5.6,10.4,7,12.7C980.8,253,986.2,259.1,985.3,263.8z"/>
			<path class="st59" d="M1126.2,498.6c0,0-6.3,0.5-7.1,9.5c-0.7,9-2.2,25.8-6.3,39.2s-9.5,21.2-8.5,23.4s11.2,4.4,21.9-2.7
				c10.7-7.1,17.5-16.6,18.8-31.2c1.2-14.6,3.2-21,4.4-23.1c1.2-2.2,4.1-5.1,0-11.7s-8-9.3-8-9.3s-2.4,4.2-5.4,4.9
				C1133,498.4,1126.2,498.6,1126.2,498.6z"/>
			<path class="st60" d="M1155.7,403c0,0,3.5,4.7-0.8,12.2c-3.4,5.8-6.8-4.2-11.4,1.6c-2.2,2.7,0.7,3.3,1.7,11.5
				c1,8.3,0.6,20.5-0.6,25.7c-1.3,5.2-4.2,15.4-4.2,17.5s0.6,5.5,7.7,1.1s14.1-10.9,17.3-20.8c2.3-7.1,4.5-25.7,7.7-31
				c5.4-9.2,2.3-14.9,1.4-15.4c-2.3-1.2-6.8-3.5-9.6-3.8C1160.8,401.4,1155.7,403,1155.7,403z"/>
		</g>
		<line class="st61" x1="808.3" y1="551.9" x2="872.8" y2="581.8"/>
		<line class="st61" x1="830.6" y1="542.1" x2="895.1" y2="572"/>
		<line class="st61" x1="849.9" y1="531.4" x2="914.3" y2="561.3"/>
		<g>
			<ellipse class="st62" cx="822.5" cy="558.1" rx="11.1" ry="5.2"/>
			<ellipse class="st61" cx="822.5" cy="558.1" rx="11.1" ry="5.2"/>
		</g>
		<g>
			<ellipse class="st62" cx="876.2" cy="563.4" rx="11.1" ry="5.2"/>
			<ellipse class="st61" cx="876.2" cy="563.4" rx="11.1" ry="5.2"/>
		</g>
		<g>
			<ellipse class="st62" cx="870.3" cy="540.4" rx="11.1" ry="5.2"/>
			<ellipse class="st61" cx="870.3" cy="540.4" rx="11.1" ry="5.2"/>
		</g>
		<g>
			<path class="st63" d="M180.5,545.3c0.3-1-0.7-2.2-1.6-3.9c-1-1.7-2.9-7.3-2.9-7.3s-4,1.4-4,1.6c0,0.2,2.8,15.1,2.8,15.1
				S180.2,546.3,180.5,545.3z"/>
			<path class="st64" d="M101.6,905.8c0,0-5.2,5.1-2,9s18.1,6.4,23.7,2.1c5.6-4.3,27-25.4,31.2-33.2c2.3-4.2-2.8-11.4-6.2-9.9
				s-3.6,4.2-3.6,4.2l-29.2,22.2L101.6,905.8z"/>
			<path class="st64" d="M212.9,905.8c0,0,11.4-2.3,13.7-0.5s3.8,4.1,1.6,9.8c-2.3,5.7-41.3,33.7-47.4,34.9
				c-13.5,2.7-21.1-0.2-24.3-2.4c-3.2-2.3,3.1-14.2,4.8-15.8s13.2,0.9,13.2,0.9l25.2-10.9L212.9,905.8z"/>
			<path class="st65" d="M106.8,873.8v7.7c0,0,3.3-0.7,4.3,0.9c1,1.6,1.7,5.9,1.7,5.9s9.5-0.4,10.5-2.9s0.7-9.9,0.7-9.9l-1.8-4
				L106.8,873.8z"/>
			<path class="st65" d="M166.7,895.2l-1.2,14.1c0,0,3.5-2,6.2,2.6s5.3,7.4,7.2,5.9s7.4-7.9,7.5-9.8c0.1-1.8-5.1-14.4-5.1-14.4
				L166.7,895.2z"/>
			<path class="st66" d="M175.5,525.7c0,0,3.4,2,3.4,4s-0.2,4.1-1.7,4.9s-3.6,0.6-3.6,0.6L175.5,525.7z"/>
			<path class="st67" d="M158,553.9c-0.7-0.5-7.7-5.5-7.7-5.5s-6.5,3.2-7.6,3.6c-1.1,0.3-10.8,4.4-10.8,4.4s-0.8,10.8-0.9,13.4
				c-0.1,2.7-1.5,7.5-1.8,9.6s2.1,2.6,6.7,5c4.6,2.4,13.6,2.2,15.8,1s1.5-8.3,3.1-14.3c1.2-4.5,5.3-7.7,7.3-9.1
				c-1-1.5-1.5-3.5-1.8-5.5C159.2,555.2,158.3,554.1,158,553.9z"/>
			<path class="st68" d="M163,560.2c0,0-1.5-2-2.9-3.8c0.3,2,0.8,4,1.8,5.5c0.6-0.4,1-0.7,1-0.7L163,560.2L163,560.2z"/>
			<path class="st69" d="M160.2,549.4c0,0,0.5-2.6,2.9,0.2c2.1,2.6,6.8,4.6,11.5,5.7c0.8-3.7,1.4-7.8,1.4-9.3c0-3.2-2.9-8.3-2.6-8.6
				c0.3-0.3,2.2-4.1,2.4-5c0.3-1,0.3-7.1-0.4-10c-0.8-2.9-3.5-11.1-3.5-11.1s-5.1,6.8-5.5,7.5c-0.3,0.7,0.3,5.7,0.1,8.1
				c-0.2,2.3-3.4,3.6-5.8,7.4c-2.4,3.7,0.3,8.6,0.3,8.6l0.2,2.3c0,0-2.2-1.8-4.5-3.1s-7.2,1.2-7.8,3.8s0.5,7.2,2.1,9.4
				s4.3,3.3,5.6,2.8s1.7,1,2.4,2.2c0.6,1,2.2,2.5,5,3.7C159.6,560.8,160.2,549.4,160.2,549.4z"/>
			<path class="st70" d="M172.6,562.6c0.5-0.8,1.3-4,2-7.3c-4.7-1.1-9.4-3.1-11.5-5.7c-2.3-2.9-3.1-0.3-3.1-0.3s-0.9,11.2,3.6,14.2
				c0.5,0.2,1.1,0.5,1.8,0.7C169.6,565.7,171.5,564.4,172.6,562.6z"/>
			<path class="st71" d="M159.9,549.4c0,0,0.6-2,2.3-0.6c0.2-2.6-1.1-8.2-0.9-10.2c0.3-2.2,4.9-6.4,5.9-8.3c0.9-2-0.3-8.2,0-9.2
				s1.9-2,2.9-3.1c2.5-2.8,1.8-6.5,1.8-6.5l-3.5-5.9l-52,34.1c0,0,1.3,5.4,2.5,7.4s4.6,5.1,7.2,6.6c2.6,1.6,4.4,4.2,4.4,4.2
				s0,3.9,2,6.9s4,3.8,7.4,3.8s7.3-3.4,8.2-5.6c0.9-2.2,2.5-12.2,2.5-12.2s0.3-5.3,1.7-6.9s4.4-1,6.2,1.1c1.6,1.8,1.2,6.9,1.5,7.9
				C159.8,550.8,159.9,549.4,159.9,549.4z"/>
			<path class="st71" d="M160.1,553c0.7-0.3,1.6-1.4,2.1-3.5c0-0.2,0.1-0.4,0.1-0.7c-1.7-1.4-2.3,0.6-2.3,0.6s-0.1,1.4-0.1,3.4
				C159.9,552.9,160,553,160.1,553z"/>
			<path class="st72" d="M164.5,519.7c-2.9,1.6-11.8,6.2-12.7,3.6c-0.9-2.6,5-6.4,9.9-9.5c4.9-3.1,12.6-7.4,11.3-19.1
				c-0.5-4.1-6.9-16.3-10.8-15.6c-3.8,0.7-4.5,5-9.2,5.9s-20.1,4.5-27.1,10.8c-6.9,6.2-18,22.6-14.2,35.2
				c3.8,12.7,6.4,14.6,6.4,14.6s6.2,4.9,12.7,1.7c6.4-3.1,21.9-10.6,26.9-16.7C162.8,524.6,167.5,518.1,164.5,519.7z"/>
			<path class="st73" d="M103.2,679c0,0-3.1,14.6-1.6,22.4c1.6,7.8,6.8,60.9,7,70.3s1.2,10.9,0.9,19.2c-0.1,3.8-6.1,16.4-5.8,25.5
				c0.3,9.1,0.5,31.7,1.7,41.1c1.2,9.4-1.7,16.1,0,17.4c1.7,1.3,10.5,1.3,14.2,0c3.6-1.3,6.5-1.8,5.5-3.6s-3.9-14.6-4.2-17.7
				c-0.3-3.1,1.7-24.7,4.4-33.3s3.9-25.3,3.9-25.3s2.9-21.5,4.3-27.8c1.3-6.2,4.2-51.8,6.5-52.3s7.5-0.5,9.6,9.6s7.8,59.3,8.6,66.9
				c0.8,7.5,0.3,20.6,1.7,34.1c0.7,6.5,0.1,11.4,1.1,18s3.1,38.5,2.3,43.2s1,10.7,5.2,11.4s15.6-0.3,16.7-2.1c1-1.8,0.8-12.8,0-21.6
				s-4.5-12.3-0.9-33c0.1-0.8,0.4-9,0.4-20.5c-0.1-11.5-1.8-17.3-1.1-27.5c0.8-10.1,0.5-89.8,0-93.4s-1.8-14.6-1.8-14.6
				s-4.3-0.5-21.9,0.5C142.2,687.1,103.2,679,103.2,679z"/>
			<path class="st69" d="M73.4,576.8c0.5-1.6,3.3-13.1,0-20.3c-3.3-7.3-7.1-11.4-10.2-14c-3.1-2.6-7.1-7.3-11.1-3.6
				s-1.7,18.3-1.7,18.3s-7.3-6.9-9.5-5.1c-2.3,1.7-0.7,9.5,3.3,12.9s16,8.6,17,11.9C62.2,580.1,73.4,576.8,73.4,576.8z"/>
			<path class="st63" d="M266.7,571.8c0,0-4.8-8.2-6.7-7.9c-2,0.3-1.5,0.7-1.5,3.5s5.7,9.8,5.7,9.8L266.7,571.8z"/>
			<path class="st69" d="M248,610.1c0,0,1.2-7.6,0-10.4s-4.5-16.5-4.9-20.5c-0.3-4,2.6-7,3.8-5.9c1.2,1.2,4.7,10.5,7.1,11.2
				s4.7-0.9,6.9-4.9c2.3-4,6.9-15.6,7.1-18.9c0.2-3.3-1.9-4,0-7.3s4.9,0.6,5.6,5.7s-1.2,18.4-1.4,23.6c-0.2,5.2-1.2,10.9-2.3,14.2
				c-1,3.3-13.2,20.1-13.2,20.1L248,610.1z"/>
			<path class="st74" d="M131.6,575.2c0,0-4.6,2.2-8.3,1.8s-18.2-2.9-21.5,0s-8.6,10.8-11.2,23.2c-2.6,12.5-6.5,25-6.5,25
				s-7.4-35.9-8.5-40.7c-1-4.8,1.3-7.7-1.7-9.4s-9.2-2.7-12.4-0.9c-3.1,1.8-1.4,2.5-1.3,5.5c0.1,3,0.8,60.9,2.6,67.5
				s2.9,15.7,10.7,18.9c7.8,3.1,13.4,1.4,18.2-4.6s5.9-8.2,5.9-8.2l5.6,25.6c0,0,13.4,8.2,28.4,12.2s24.3,7,36.7,3.5
				s14.7-5.1,14.7-5.1l4.2-38.5c0,0,24.6,27.1,29.3,30.8c4.7,3.8,15.4,6.9,19.8-1.8c4.4-8.7,23.8-65.4,23.8-65.4s-4.4-9.2-8.8-8.1
				c-4.4,1.2-6.1,0.9-6.5,3.1c-0.4,2.2-2.1,9.8-4.4,13.9c-2.3,4.2-19.8,30.8-19.8,30.8s-17.3-21.2-19.9-24.9
				c-2.6-3.6-8.1-11.4-10.1-15.2c-2.1-3.8-2.7-9.4-11.6-14.4c-8.8-5.1-20-9.9-20-9.9l-4.9-6.9c0,0-0.5-0.5-3.5-1.3
				C147.3,581.2,131.6,575.2,131.6,575.2z"/>
			<path class="st75" d="M104.5,881.1c-3.3,1.7-1,13.8-1.6,17.3c-0.5,3.5-1.3,7.4-1.3,7.4s4.7,1.7,9.4,2.5s8.3,2.1,10.1,0.8
				s5.2-7.5,8.5-9.4c3.3-1.8,6.2-1.6,9.5-4.3s10.5-13.2,10.5-15.5s-2.2-5-6.1-4.8c-3.9,0.3-19.5,0.4-19.5,0.4s-0.6,8-3.3,9.6
				C115.4,888.3,111.5,877.5,104.5,881.1z"/>
			<path class="st75" d="M185.9,905.3c0,0,28.6-0.1,31.2,0.5c2.6,0.6,6.9,4.3,5.7,7.4c-1.2,3.1-4.5,6.4-19,14.7
				s-22.3,13.4-25.1,13.2s-7.8-4.2-12.3-5.2s-7.8,0.3-6.9-2.1c0.9-2.4-0.3-11.3,2.3-18c2.6-6.8,3.5-9.9,6.6-8.7s2.7,6.2,7.7,7.1
				C185.9,916.1,185.9,905.3,185.9,905.3z"/>
		</g>
	</g>
</g>
</svg>
