<?xml version="1.0" encoding="utf-8"?>
<!-- Generator: Adobe Illustrator 22.0.1, SVG Export Plug-In . SVG Version: 6.00 Build 0)  -->
<svg version="1.1" id="Calque_1" xmlns="http://www.w3.org/2000/svg" xmlns:xlink="http://www.w3.org/1999/xlink" x="0px" y="0px"
	 viewBox="0 0 1468 1145" style="enable-background:new 0 0 1468 1145;" xml:space="preserve">
<style type="text/css">
	.st0{fill:url(#SVGID_1_);}
	.st1{opacity:0.45;fill:#19458C;enable-background:new    ;}
	.st2{fill:#FFFFFF;}
	.st3{fill:#F5F8F8;}
	.st4{fill:#ECEDEF;}
	.st5{fill:#FCFDFE;}
	.st6{fill:none;stroke:#FFFFFF;stroke-miterlimit:10;}
	.st7{fill:#E1E8EF;stroke:#FFFFFF;stroke-miterlimit:10;}
	.st8{fill:#B924FF;}
	.st9{opacity:0.44;}
	.st10{fill:#7B32ED;}
	.st11{fill:#F4F5F7;}
	.st12{fill:none;}
	.st13{fill:none;stroke:#E6EEF4;stroke-width:8;stroke-linecap:round;stroke-miterlimit:10;}
	.st14{fill:none;stroke:#FFFFFF;stroke-width:8;stroke-linecap:round;stroke-miterlimit:10;}
</style>
<g id="Calque_5">
	
		<linearGradient id="SVGID_1_" gradientUnits="userSpaceOnUse" x1="911.1161" y1="-787.4464" x2="2044.2023" y2="-787.4464" gradientTransform="matrix(0.9835 -0.1162 4.341970e-02 0.8954 36.9155 1392.4891)">
		<stop  offset="0" style="stop-color:#CF00D4"/>
		<stop  offset="0.5851" style="stop-color:#E200D6"/>
		<stop  offset="1" style="stop-color:#E900D7"/>
	</linearGradient>
	<path class="st0" d="M1230.1,919.9c-90.2,36.8-189.6,1.9-222.2-77.9L907.5,596.2c-32.6-79.8,14.1-174.4,104.2-211.2L1682,111.5
		c90.2-36.8,189.6-1.9,222.2,77.9l100.3,245.7c32.6,79.8-14.1,174.4-104.2,211.2"/>
</g>
<g id="Calque_4">
	<path class="st1" d="M938.9,626.4c-4.4-1.6-11.1-0.8-15,1.7l-128.3,82.7c-7.8,5.1-7.1,11.7,1.7,14.9l245.4,88.1
		c4.6,1.6,11.7,0.8,15.9-2l130.5-87.7c4.2-2.8,3.7-6.5-1-8.2L938.9,626.4z"/>
	<path class="st2" d="M1201.3,649.5c0.1,2.3-0.8,4-2.2,5.1l0,0l-0.2,0.1l-2.2,1.6l-0.1-0.7c-1,0.1-2-0.1-3.2-0.5l-253.1-92
		c-4.4-1.6-8.2-6.7-8.3-11.4l-7.2-184.9c-0.2-4.7,3.3-7.3,7.8-5.9L1189,443c4.4,1.4,8.2,6.4,8.3,11.1L1201.3,649.5z"/>
	<path class="st3" d="M1191.5,656.5c4.4,1.6,7.9-0.9,7.8-5.6l-4.1-195.6c-0.1-4.7-3.8-9.7-8.3-11.1l-256.3-81.8
		c-4.4-1.4-8,1.2-7.8,5.9l7.2,184.9c0.2,4.7,3.9,9.8,8.3,11.4L1191.5,656.5z"/>
	<path class="st3" d="M1182.4,555.3c2.1,0.8,3.8-0.5,3.8-2.7l-2-94.3c-0.1-2.2-1.8-4.6-4-5.4l-123.6-39.5c-2.2-0.7-3.9,0.6-3.7,2.9
		l3.5,89.1c0.1,2.2,1.9,4.7,4,5.5L1182.4,555.3z"/>
	<path class="st4" d="M938.9,565.2c-4.4-1.6-11.1-0.8-15,1.7l-128.3,82.7c-7.8,5.1-7.1,11.7,1.7,14.9l245.4,88.1
		c4.6,1.6,11.7,0.8,15.9-2l129.7-87.2c4.2-2.8,4.4-8.7-0.4-10.5L938.9,565.2z"/>
	<path class="st5" d="M938.1,563.3c-4.4-1.6-11.1-0.8-15,1.7l-128.3,82.6c-7.8,5.1-7.1,11.7,1.7,14.9l245.4,88.1
		c4.6,1.6,11.7,0.8,15.9-2l130.5-87.7c4.2-2.8,3.7-6.5-1-8.2L938.1,563.3z"/>
	<line class="st6" x1="1059.5" y1="619.7" x2="1063.6" y2="616.9"/>
	<path class="st7" d="M1059.5,619.7"/>
	<path class="st8" d="M1184.2,459.1c0-1.4-0.9-2.6-2.3-3L937,378.5c-2.2-0.7-4.3,1-4.2,3.2l3.1,76.9l250.4,79.4L1184.2,459.1z"/>
	<g class="st9">
		<path class="st10" d="M1077.7,451.8c-2.7-0.8-4.9,0.8-4.8,3.7l3.2,79.6c0.1,2.9,2.4,5.9,5.2,6.9l73.6,24.2
			c2.7,0.9,4.9-0.7,4.8-3.6l-2-80.2c-0.1-2.9-2.3-5.9-5.1-6.8L1077.7,451.8z"/>
	</g>
	<g>
		<path class="st2" d="M1065.9,458.6c-2.7-0.8-4.9,0.8-4.8,3.7l3.2,79.6c0.1,2.9,2.4,5.9,5.2,6.9l73.6,24.2c2.7,0.9,4.9-0.7,4.8-3.6
			l-2-80.2c-0.1-2.9-2.3-5.9-5.1-6.8L1065.9,458.6z"/>
	</g>
	<g>
		<g>
			<g>
				<g>
					<g>
						<g>
							<g>
								<g>
									<g>
										<g>
											<path class="st11" d="M1171.6,662.4c0.5,0.2,0.5,0.5,0.1,0.8l-5.5,3.5c-0.4,0.3-1.1,0.4-1.6,0.2l-24.9-8.8
												c-0.5-0.2-0.5-0.5-0.1-0.8l5.5-3.5c0.4-0.3,1.1-0.4,1.6-0.2L1171.6,662.4z"/>
										</g>
									</g>
								</g>
							</g>
						</g>
					</g>
				</g>
				<g>
					<g>
						<g>
							<g>
								<g>
									<g>
										<g>
											<path class="st11" d="M1128.7,647.9c0.4-0.3,1.1-0.4,1.6-0.2l12.8,4.6c0.5,0.2,0.5,0.5,0.1,0.8l-5.5,3.5
												c-0.4,0.3-1.1,0.4-1.6,0.2l-12.8-4.6c-0.5-0.2-0.5-0.5-0.1-0.8L1128.7,647.9z"/>
										</g>
									</g>
								</g>
							</g>
						</g>
					</g>
				</g>
				<g>
					<g>
						<g>
							<g>
								<g>
									<g>
										<g>
											<path class="st11" d="M1112,642c0.4-0.3,1.1-0.4,1.6-0.2l12.9,4.7c0.5,0.2,0.5,0.5,0.1,0.8l-5.5,3.5
												c-0.4,0.3-1.1,0.4-1.6,0.2l-12.9-4.7c-0.5-0.2-0.5-0.5-0.1-0.8L1112,642z"/>
										</g>
									</g>
								</g>
							</g>
						</g>
					</g>
				</g>
				<g>
					<g>
						<g>
							<g>
								<g>
									<g>
										<g>
											<path class="st11" d="M1098.5,637.1c0.4-0.3,1.1-0.4,1.6-0.2l10,3.6c0.5,0.2,0.5,0.5,0.1,0.8l-5.6,3.5
												c-0.4,0.3-1.1,0.4-1.6,0.2l-10-3.6c-0.5-0.2-0.5-0.5-0.1-0.8L1098.5,637.1z"/>
										</g>
									</g>
								</g>
							</g>
						</g>
					</g>
				</g>
				<g>
					<g>
						<g>
							<g>
								<g>
									<g>
										<g>
											<path class="st11" d="M1076.2,634.7l5.6-3.5c0.4-0.3,1.1-0.4,1.6-0.2l13.1,4.8c0.5,0.2,0.5,0.5,0.1,0.8l-5.6,3.5
												c-0.4,0.3-1.1,0.4-1.6,0.2l-7-2.5l-0.5-0.2l-5.5-2.1C1075.7,635.2,1075.7,634.9,1076.2,634.7z"/>
										</g>
									</g>
								</g>
							</g>
						</g>
					</g>
				</g>
				<g>
					<g>
						<g>
							<g>
								<g>
									<g>
										<g>
											<path class="st11" d="M1064.9,625.1c0.4-0.3,1.1-0.4,1.6-0.2l13.2,4.8c0.5,0.2,0.5,0.5,0.1,0.8l-5.6,3.5
												c-0.4,0.3-1.1,0.4-1.6,0.2l-13.2-4.8c-0.5-0.2-0.5-0.5-0.1-0.8L1064.9,625.1z"/>
										</g>
									</g>
								</g>
							</g>
						</g>
					</g>
				</g>
				<g>
					<g>
						<g>
							<g>
								<g>
									<g>
										<g>
											<path class="st11" d="M1048.3,619.1c0.4-0.3,1.1-0.4,1.6-0.2l13.1,4.8c0.5,0.2,0.5,0.5,0.1,0.8l-5.7,3.6
												c-0.4,0.3-1.1,0.4-1.6,0.2l-13.1-4.8c-0.5-0.2-0.5-0.5-0.1-0.8L1048.3,619.1z"/>
										</g>
									</g>
								</g>
							</g>
						</g>
					</g>
				</g>
				<g>
					<g>
						<g>
							<g>
								<g>
									<g>
										<g>
											<path class="st11" d="M1031.6,612.9c0.4-0.3,1.1-0.4,1.6-0.2l13.1,4.8c0.5,0.2,0.5,0.5,0.1,0.8l-5.7,3.6
												c-0.4,0.3-1.1,0.4-1.6,0.2l-13-4.7c-0.5-0.2-0.5-0.5-0.1-0.8L1031.6,612.9z"/>
										</g>
									</g>
								</g>
							</g>
						</g>
					</g>
				</g>
				<g>
					<g>
						<g>
							<g>
								<g>
									<g>
										<g>
											<path class="st11" d="M1014.8,607c0.4-0.3,1.1-0.4,1.6-0.2l13.1,4.8c0.5,0.2,0.5,0.5,0.1,0.8l-5.7,3.7
												c-0.4,0.3-1.1,0.4-1.6,0.2l-13.1-4.8c-0.5-0.2-0.5-0.5-0.1-0.8L1014.8,607z"/>
										</g>
									</g>
								</g>
							</g>
						</g>
					</g>
				</g>
				<g>
					<g>
						<g>
							<g>
								<g>
									<g>
										<g>
											<path class="st11" d="M1012.9,605.6c0.5,0.2,0.5,0.5,0.1,0.8l-5.7,3.7c-0.4,0.3-1.1,0.4-1.6,0.2l-12.9-4.7
												c-0.5-0.2-0.5-0.5-0.1-0.8l5.6-3.7c0.5-0.3,1.1-0.4,1.6-0.2L1012.9,605.6z"/>
										</g>
									</g>
								</g>
							</g>
						</g>
					</g>
				</g>
				<g>
					<g>
						<g>
							<g>
								<g>
									<g>
										<g>
											<path class="st11" d="M996.2,599.5c0.5,0.2,0.5,0.5,0.1,0.8l-5.6,3.7c-0.5,0.3-1.1,0.4-1.6,0.2l-15.4-5.4
												c-0.5-0.2-0.5-0.5-0.1-0.8l5.7-3.7c0.5-0.3,1.1-0.4,1.6-0.2L996.2,599.5z"/>
										</g>
									</g>
								</g>
							</g>
						</g>
					</g>
				</g>
				<g>
					<g>
						<g>
							<g>
								<g>
									<g>
										<g>
											<path class="st11" d="M960.3,587.4c0.5-0.3,1.1-0.4,1.6-0.2l15.5,5.5c0.5,0.2,0.5,0.5,0.1,0.8l-5.6,3.7
												c-0.5,0.3-1.1,0.4-1.6,0.2l-15.5-5.5c-0.5-0.2-0.5-0.5-0.1-0.8L960.3,587.4z"/>
										</g>
									</g>
								</g>
							</g>
						</g>
					</g>
				</g>
				<g>
					<g>
						<g>
							<g>
								<g>
									<g>
										<g>
											<path class="st11" d="M941.5,580.7c0.4-0.3,1.1-0.4,1.6-0.2l15.3,5.5c0.5,0.2,0.5,0.5,0.1,0.8l-5.7,3.7
												c-0.5,0.3-1.1,0.4-1.6,0.2l-15.5-5.5c-0.5-0.2-0.5-0.5-0.1-0.8L941.5,580.7z"/>
										</g>
									</g>
								</g>
							</g>
						</g>
					</g>
				</g>
				<g>
					<g>
						<g>
							<g>
								<g>
									<g>
										<g>
											<path class="st11" d="M921.5,573.4c0.5-0.3,1.1-0.4,1.6-0.2l16.3,5.9c0.5,0.2,0.5,0.5,0.1,0.8l-5.9,3.7
												c-0.4,0.3-1.1,0.4-1.6,0.2l-16.1-5.8c-0.5-0.2-0.5-0.5-0.1-0.8L921.5,573.4z"/>
										</g>
									</g>
								</g>
							</g>
						</g>
					</g>
				</g>
			</g>
			<g>
				<g>
					<g>
						<g>
							<g>
								<g>
									<g>
										<path class="st11" d="M1162.6,668.2c0.5,0.2,0.5,0.5,0.1,0.8l-10.2,6.3c-0.4,0.3-1.1,0.4-1.6,0.2l-13-4.7
											c-0.5-0.2-0.5-0.5-0.1-0.8l10.2-6.4c0.5-0.3,1.1-0.4,1.6-0.2L1162.6,668.2z"/>
									</g>
								</g>
							</g>
						</g>
					</g>
				</g>
				<g>
					<g>
						<g>
							<g>
								<g>
									<g>
										<path class="st11" d="M1131.2,657.8c0.4-0.3,1.1-0.4,1.6-0.2l13,4.7c0.5,0.2,0.5,0.5,0.1,0.8l-10.2,6.4
											c-0.5,0.3-1.1,0.4-1.6,0.2l-13-4.7c-0.5-0.2-0.5-0.5-0.1-0.8L1131.2,657.8z"/>
									</g>
								</g>
							</g>
						</g>
					</g>
				</g>
				<g>
					<g>
						<g>
							<g>
								<g>
									<g>
										<path class="st11" d="M1114.4,651.7c0.4-0.3,1.1-0.4,1.6-0.2l13.1,4.7c0.5,0.2,0.5,0.5,0.1,0.8l-10.2,6.4
											c-0.5,0.3-1.1,0.4-1.6,0.2l-13-4.7c-0.5-0.2-0.5-0.5-0.1-0.8L1114.4,651.7z"/>
									</g>
								</g>
							</g>
						</g>
					</g>
				</g>
				<g>
					<g>
						<g>
							<g>
								<g>
									<g>
										<path class="st11" d="M1097.9,645.8c0.5-0.3,1.1-0.4,1.6-0.2l12.9,4.8c0.5,0.2,0.5,0.5,0.1,0.8l-10.2,6.4
											c-0.4,0.3-1.1,0.4-1.6,0.2l-13.1-4.7c-0.5-0.2-0.5-0.5-0.1-0.8L1097.9,645.8z"/>
									</g>
								</g>
							</g>
						</g>
					</g>
				</g>
				<g>
					<g>
						<g>
							<g>
								<g>
									<g>
										<path class="st11" d="M1095.8,644.3c0.5,0.2,0.5,0.5,0.1,0.8l-10.2,6.4c-0.5,0.3-1.1,0.4-1.6,0.2l-13-4.7
											c-0.5-0.2-0.5-0.5-0.1-0.8l10.2-6.4c0.5-0.3,1.1-0.4,1.6-0.2L1095.8,644.3z"/>
									</g>
								</g>
							</g>
						</g>
					</g>
				</g>
				<g>
					<g>
						<g>
							<g>
								<g>
									<g>
										<path class="st11" d="M1064.6,633.9c0.5-0.3,1.1-0.4,1.6-0.2l13.1,4.7c0.5,0.2,0.5,0.5,0.1,0.8l-10.2,6.4
											c-0.5,0.3-1.1,0.4-1.6,0.2l-13.1-4.6c-0.5-0.2-0.5-0.5-0.1-0.8L1064.6,633.9z"/>
									</g>
								</g>
							</g>
						</g>
					</g>
				</g>
				<g>
					<g>
						<g>
							<g>
								<g>
									<g>
										<path class="st11" d="M1047.9,627.9c0.5-0.3,1.1-0.4,1.6-0.2l13,4.7c0.5,0.2,0.5,0.5,0.1,0.8l-10.2,6.4
											c-0.4,0.3-1.1,0.4-1.6,0.2l-13-4.7c-0.5-0.2-0.5-0.5-0.1-0.8L1047.9,627.9z"/>
									</g>
								</g>
							</g>
						</g>
					</g>
				</g>
				<g>
					<g>
						<g>
							<g>
								<g>
									<g>
										<path class="st11" d="M1031.3,621.9c0.4-0.3,1.1-0.4,1.6-0.2l13,4.7c0.5,0.2,0.5,0.5,0.1,0.8l-10.2,6.5
											c-0.4,0.3-1.1,0.4-1.6,0.2l-13-4.7c-0.5-0.2-0.5-0.5-0.1-0.8L1031.3,621.9z"/>
									</g>
								</g>
							</g>
						</g>
					</g>
				</g>
				<g>
					<g>
						<g>
							<g>
								<g>
									<g>
										<path class="st11" d="M1014.5,615.9c0.5-0.3,1.1-0.4,1.6-0.2l13,4.7c0.5,0.2,0.5,0.5,0.1,0.8l-10.2,6.4
											c-0.5,0.3-1.1,0.4-1.6,0.2l-13-4.7c-0.5-0.2-0.5-0.5-0.1-0.8L1014.5,615.9z"/>
									</g>
								</g>
							</g>
						</g>
					</g>
				</g>
				<g>
					<g>
						<g>
							<g>
								<g>
									<g>
										<path class="st11" d="M997.9,610c0.5-0.3,1.1-0.4,1.6-0.2l13.1,4.8c0.5,0.2,0.5,0.5,0.1,0.8l-10.2,6.4
											c-0.5,0.3-1.1,0.4-1.6,0.2l-13.1-4.8c-0.5-0.2-0.5-0.5-0.1-0.8L997.9,610z"/>
									</g>
								</g>
							</g>
						</g>
					</g>
				</g>
				<g>
					<g>
						<g>
							<g>
								<g>
									<g>
										<path class="st11" d="M981,604.3c0.4-0.3,1.1-0.4,1.6-0.2l13.3,4.6c0.5,0.2,0.5,0.5,0.1,0.8l-10.2,6.3
											c-0.4,0.3-1.1,0.4-1.6,0.2l-13-4.7c-0.5-0.2-0.5-0.5-0.1-0.8L981,604.3z"/>
									</g>
								</g>
							</g>
						</g>
					</g>
				</g>
				<g>
					<g>
						<g>
							<g>
								<g>
									<g>
										<path class="st11" d="M964.6,598.2c0.4-0.3,1.1-0.4,1.6-0.2l13,4.7c0.5,0.2,0.5,0.5,0.1,0.8l-10.2,6.3
											c-0.4,0.3-1.1,0.4-1.6,0.2l-13.1-4.8c-0.5-0.2-0.5-0.5-0.1-0.8L964.6,598.2z"/>
									</g>
								</g>
							</g>
						</g>
					</g>
				</g>
				<g>
					<g>
						<g>
							<g>
								<g>
									<g>
										<path class="st11" d="M947.8,592.2c0.4-0.3,1.1-0.4,1.6-0.2l13.1,4.7c0.5,0.2,0.5,0.5,0.1,0.8l-10.2,6.3
											c-0.4,0.3-1.1,0.4-1.6,0.2l-13-4.7c-0.5-0.2-0.5-0.5-0.1-0.8L947.8,592.2z"/>
									</g>
								</g>
							</g>
						</g>
					</g>
				</g>
				<g>
					<g>
						<g>
							<g>
								<g>
									<g>
										<path class="st11" d="M931.2,586.3c0.4-0.3,1.1-0.4,1.6-0.2l13,4.7c0.5,0.2,0.5,0.5,0.1,0.8l-10.2,6.3
											c-0.4,0.3-1.1,0.4-1.6,0.2l-13.1-4.8c-0.5-0.2-0.5-0.5-0.1-0.8L931.2,586.3z"/>
									</g>
								</g>
							</g>
						</g>
					</g>
				</g>
				<g>
					<g>
						<g>
							<g>
								<g>
									<g>
										<path class="st11" d="M912.6,579.4c0.5-0.3,1.1-0.4,1.6-0.2l15.2,5.4c0.5,0.2,0.5,0.5,0.1,0.8l-10.2,6.3
											c-0.4,0.3-1.1,0.4-1.6,0.2l-14.9-5.3c-0.5-0.2-0.5-0.5-0.1-0.8L912.6,579.4z"/>
									</g>
								</g>
							</g>
						</g>
					</g>
				</g>
			</g>
			<g>
				<g>
					<g>
						<g>
							<g>
								<g>
									<g>
										<g>
											<path class="st11" d="M1122.3,667.8c0.4-0.3,1.1-0.4,1.6-0.2l25,9c0.5,0.2,0.5,0.5,0.1,0.8l-11.3,7
												c-0.4,0.3-1.1,0.4-1.6,0.2l-25-9c-0.5-0.2-0.5-0.5-0.1-0.8L1122.3,667.8z"/>
										</g>
									</g>
								</g>
							</g>
						</g>
						<g>
							<g>
								<g>
									<g>
										<g>
											<path class="st11" d="M1120.2,666.5c0.5,0.2,0.5,0.5,0.1,0.8l-11.3,7c-0.4,0.3-1.1,0.4-1.6,0.2l-12.5-4.5
												c-0.5-0.2-0.5-0.5-0.1-0.8l11.3-7c0.4-0.3,1.1-0.4,1.6-0.2L1120.2,666.5z"/>
										</g>
									</g>
								</g>
							</g>
						</g>
						<g>
							<g>
								<g>
									<g>
										<g>
											<path class="st11" d="M1104.1,660.7c0.5,0.2,0.5,0.5,0.1,0.8l-11.3,7c-0.4,0.3-1.1,0.4-1.6,0.2l-12.5-4.5
												c-0.5-0.2-0.5-0.5-0.1-0.8l11.2-7c0.4-0.3,1.1-0.4,1.6-0.2L1104.1,660.7z"/>
										</g>
									</g>
								</g>
							</g>
						</g>
						<g>
							<g>
								<g>
									<g>
										<g>
											<path class="st11" d="M1075.6,651.2c0.4-0.3,1.1-0.4,1.6-0.2l10.7,3.9c0.5,0.2,0.5,0.5,0.1,0.8l-11.3,7
												c-0.4,0.3-1.1,0.4-1.6,0.2l-10.7-3.9c-0.5-0.2-0.5-0.5-0.1-0.8L1075.6,651.2z"/>
										</g>
									</g>
								</g>
							</g>
						</g>
						<g>
							<g>
								<g>
									<g>
										<g>
											<path class="st11" d="M1067.3,647.6c0.5,0.2,0.8,0.3,1,0.4c0.1,0.1,0.5,0.2,1,0.4l4.4,1.6c0.5,0.2,0.5,0.5,0.1,0.8
												l-11.3,7.1c-0.4,0.3-1.1,0.4-1.6,0.2l-13.4-4.9c-0.5-0.2-0.5-0.5-0.1-0.8l11.4-7c0.4-0.3,1.1-0.4,1.6-0.2L1067.3,647.6z"
												/>
										</g>
									</g>
								</g>
							</g>
						</g>
						<g>
							<g>
								<g>
									<g>
										<g>
											<path class="st11" d="M1041.9,639.2c0.4-0.3,1.1-0.4,1.6-0.2l13.1,4.7c0.5,0.2,0.5,0.5,0.1,0.8l-11.4,7
												c-0.4,0.3-1.1,0.4-1.6,0.2l-13.1-4.7c-0.5-0.2-0.5-0.5-0.1-0.8L1041.9,639.2z"/>
										</g>
									</g>
								</g>
							</g>
						</g>
						<g>
							<g>
								<g>
									<g>
										<g>
											<path class="st11" d="M1040,637.8c0.5,0.2,0.5,0.5,0.1,0.8l-11.4,7c-0.4,0.3-1.1,0.4-1.6,0.2l-13.5-4.9
												c-0.5-0.2-0.5-0.5-0.1-0.8l11.4-7c0.4-0.3,1.1-0.4,1.6-0.2L1040,637.8z"/>
										</g>
									</g>
								</g>
							</g>
						</g>
						<g>
							<g>
								<g>
									<g>
										<g>
											<path class="st11" d="M1008.5,627.2c0.4-0.3,1.1-0.4,1.6-0.2l12.8,4.6c0.5,0.2,0.5,0.5,0.1,0.8l-11.4,7
												c-0.4,0.3-1.1,0.4-1.6,0.2l-12.8-4.6c-0.5-0.2-0.5-0.5-0.1-0.8L1008.5,627.2z"/>
										</g>
									</g>
								</g>
							</g>
						</g>
						<g>
							<g>
								<g>
									<g>
										<g>
											<path class="st11" d="M1006.6,625.7c0.5,0.2,0.5,0.5,0.1,0.8l-11.4,7c-0.4,0.3-1.1,0.4-1.6,0.2l-13.4-4.8
												c-0.5-0.2-0.5-0.5-0.1-0.8l11.4-7c0.4-0.3,1.1-0.4,1.6-0.2L1006.6,625.7z"/>
										</g>
									</g>
								</g>
							</g>
						</g>
						<g>
							<g>
								<g>
									<g>
										<g>
											<path class="st11" d="M989.6,619.7c0.5,0.2,0.5,0.5,0.1,0.8l-11.4,7c-0.4,0.3-1.1,0.4-1.6,0.2l-12.5-4.6
												c-0.5-0.2-0.5-0.5-0.1-0.8l11.4-7c0.4-0.3,1.1-0.4,1.6-0.2L989.6,619.7z"/>
										</g>
									</g>
								</g>
							</g>
						</g>
						<g>
							<g>
								<g>
									<g>
										<g>
											<path class="st11" d="M973.4,614c0.5,0.2,0.5,0.5,0.1,0.8l-11.4,7c-0.4,0.3-1.1,0.4-1.6,0.2l-15.5-5.5
												c-0.5-0.2-0.5-0.5-0.1-0.8l11.5-7c0.4-0.3,1.1-0.4,1.6-0.2L973.4,614z"/>
										</g>
									</g>
								</g>
							</g>
						</g>
						<g>
							<g>
								<g>
									<g>
										<g>
											<path class="st11" d="M954.5,607c0.5,0.2,0.5,0.5,0.1,0.8l-11.3,6.9c-0.5,0.3-0.7,0.6-0.7,0.7s-0.3,0.1-0.7-0.1
												l-15.5-5.5c-0.5-0.2-0.5-0.5-0.1-0.8l11.3-7c0.4-0.3,1.1-0.4,1.6-0.2L954.5,607z"/>
										</g>
									</g>
								</g>
							</g>
						</g>
						<g>
							<g>
								<g>
									<g>
										<g>
											<path class="st11" d="M918.2,595c0.4-0.3,1.1-0.4,1.6-0.2l13.9,5c0.5,0.1,0.9,0.3,1,0.3c0.1,0.1,0.5,0.3,0.8,0.4
												c0.4,0.1,0.3,0.5-0.1,0.7l-11.4,7c-0.4,0.3-1.1,0.4-1.6,0.2l-15.7-5.5c-0.5-0.2-0.5-0.5-0.1-0.8L918.2,595z"/>
										</g>
									</g>
								</g>
							</g>
						</g>
						<g>
							<g>
								<g>
									<g>
										<g>
											<path class="st11" d="M899,588.1c0.5-0.3,1.1-0.4,1.6-0.2l15.6,5.5c0.5,0.2,0.5,0.5,0.1,0.8l-11.2,7
												c-0.4,0.3-1.1,0.4-1.6,0.2l-15.2-5.4c-0.5-0.2-0.5-0.5-0.1-0.8L899,588.1z"/>
										</g>
									</g>
								</g>
							</g>
						</g>
					</g>
				</g>
			</g>
			<g>
				<g>
					<g>
						<g>
							<g>
								<path class="st11" d="M1134.2,685.9c0.5,0.2,0.5,0.5,0.1,0.8l-11.3,7c-0.4,0.3-1.1,0.4-1.6,0.2l-33.5-11.9
									c-0.5-0.2-0.5-0.5-0.1-0.8l11.2-7c0.4-0.3,1.1-0.4,1.6-0.2L1134.2,685.9z"/>
							</g>
						</g>
					</g>
				</g>
				<g>
					<g>
						<g>
							<g>
								<path class="st11" d="M1075.1,665.5c0.4-0.3,1.1-0.4,1.6-0.2l20.4,7.2c0.5,0.2,0.5,0.5,0.1,0.8l-11.2,7
									c-0.4,0.3-1.1,0.4-1.6,0.2l-20.4-7.2c-0.5-0.2-0.5-0.5-0.1-0.8L1075.1,665.5z"/>
							</g>
						</g>
					</g>
				</g>
				<g>
					<g>
						<g>
							<g>
								<path class="st11" d="M1073.2,664.1c0.5,0.2,0.5,0.5,0.1,0.8l-11,6.9c-0.4,0.3-1.1,0.4-1.6,0.2l-20.5-7.2
									c-0.5-0.2-0.5-0.5-0.1-0.8l11.2-7c0.4-0.3,1.1-0.4,1.6-0.2L1073.2,664.1z"/>
							</g>
						</g>
					</g>
				</g>
				<g>
					<g>
						<g>
							<g>
								<path class="st11" d="M1049.3,655.6c0.5,0.2,0.5,0.5,0.1,0.8l-11.2,7c-0.4,0.3-1.1,0.4-1.6,0.2l-20.4-7.2
									c-0.5-0.2-0.5-0.5-0.1-0.8l11.2-7c0.4-0.3,1.1-0.4,1.6-0.2L1049.3,655.6z"/>
							</g>
						</g>
					</g>
				</g>
				<g>
					<g>
						<g>
							<g>
								<path class="st11" d="M1025.3,646.9c0.5,0.2,0.5,0.5,0.1,0.8l-11.2,7c-0.4,0.3-1.1,0.4-1.6,0.2l-20.4-7.2
									c-0.5-0.2-0.5-0.5-0.1-0.8l11.2-7c0.4-0.3,1.1-0.4,1.6-0.2L1025.3,646.9z"/>
							</g>
						</g>
					</g>
				</g>
				<g>
					<g>
						<g>
							<g>
								<path class="st11" d="M1001.5,638.4c0.5,0.2,0.5,0.5,0.1,0.8l-11.2,7c-0.4,0.3-1.1,0.4-1.6,0.2l-20.4-7.2
									c-0.5-0.2-0.5-0.5-0.1-0.8l11.2-7c0.4-0.3,1.1-0.4,1.6-0.2L1001.5,638.4z"/>
							</g>
						</g>
					</g>
				</g>
				<g>
					<g>
						<g>
							<g>
								<path class="st11" d="M977.5,629.9c0.5,0.2,0.5,0.5,0.1,0.8l-11.2,7c-0.4,0.3-1.1,0.4-1.6,0.2l-20.3-7.2
									c-0.5-0.2-0.5-0.5-0.1-0.8l11.2-7c0.4-0.3,1.1-0.4,1.6-0.2L977.5,629.9z"/>
							</g>
						</g>
					</g>
				</g>
				<g>
					<g>
						<g>
							<g>
								<path class="st11" d="M953.6,621.2c0.5,0.2,0.5,0.5,0.1,0.8l-11.2,7c-0.4,0.3-1.1,0.4-1.6,0.2l-19.7-7
									c-0.5-0.2-0.5-0.5-0.1-0.8l10.9-7.1c0.5-0.3,1.1-0.4,1.6-0.2L953.6,621.2z"/>
							</g>
						</g>
					</g>
				</g>
				<g>
					<g>
						<g>
							<g>
								<path class="st11" d="M930.1,613c0.5,0.2,0.5,0.5,0.1,0.8l-10.9,7.1c-0.5,0.3-1.1,0.4-1.6,0.2l-20.2-7.2
									c-0.5-0.1-0.5-0.5-0.1-0.8l10.9-7.2c0.5-0.3,1.1-0.4,1.6-0.2L930.1,613z"/>
							</g>
						</g>
					</g>
				</g>
				<g>
					<g>
						<g>
							<g>
								<path class="st11" d="M884.7,597.4c0.5-0.3,1.1-0.4,1.6-0.2l20,7.2c0.5,0.1,0.5,0.5,0.1,0.8l-10.9,7.2
									c-0.5,0.3-1.1,0.4-1.6,0.2l-20.1-7.2c-0.5-0.2-0.5-0.5-0.1-0.8L884.7,597.4z"/>
							</g>
						</g>
					</g>
				</g>
			</g>
			<g>
				<g>
					<g>
						<g>
							<path class="st11" d="M1075.2,680c0.5-0.3,1.1-0.4,1.6-0.2l42.5,15.2c0.5,0.2,0.5,0.5,0.1,0.8l-11.3,7
								c-0.4,0.3-1.1,0.4-1.6,0.2l-42.2-15.1c-0.5-0.2-0.5-0.5-0.1-0.8L1075.2,680z"/>
						</g>
					</g>
				</g>
				<g>
					<g>
						<g>
							<path class="st11" d="M1073.3,678.6c0.5,0.2,0.5,0.5,0.1,0.8l-11,7.1c-0.5,0.3-1.1,0.4-1.6,0.2l-20.5-7.4
								c-0.5-0.2-0.5-0.5-0.1-0.8l11-7.1c0.5-0.3,1.1-0.4,1.6-0.2L1073.3,678.6z"/>
						</g>
					</g>
				</g>
				<g>
					<g>
						<g>
							<path class="st11" d="M1049.3,670c0.5,0.2,0.5,0.5,0.1,0.8l-11,7.1c-0.5,0.3-1.1,0.4-1.6,0.2l-18.7-6.7
								c-0.5-0.2-0.5-0.5-0.1-0.8l11.3-7c0.4-0.3,1.1-0.4,1.6-0.2L1049.3,670z"/>
						</g>
					</g>
				</g>
				<g>
					<g>
						<g>
							<path class="st11" d="M1007.1,655.5c0.4-0.3,1.1-0.4,1.6-0.2l18.7,6.7c0.5,0.2,0.5,0.5,0.1,0.8l-11.3,7
								c-0.4,0.3-1.1,0.4-1.6,0.2l-18.7-6.7c-0.5-0.2-0.5-0.5-0.1-0.8L1007.1,655.5z"/>
						</g>
					</g>
				</g>
				<g>
					<g>
						<g>
							<path class="st11" d="M1005,654.1c0.5,0.2,0.5,0.5,0.1,0.8l-11.3,7c-0.4,0.3-1.1,0.4-1.6,0.2l-18.7-6.7
								c-0.5-0.2-0.5-0.5-0.1-0.8l11.2-7c0.4-0.3,1.1-0.4,1.6-0.2L1005,654.1z"/>
						</g>
					</g>
				</g>
				<g>
					<g>
						<g>
							<path class="st11" d="M964.8,639.8c0.4,0.1,0.8,0.3,0.8,0.3s0.4,0.1,0.8,0.3l16.3,5.8c0.5,0.2,0.5,0.5,0.1,0.8l-11.1,7
								c-0.4,0.3-1.1,0.4-1.6,0.2l-18.7-6.7c-0.5-0.2-0.5-0.5-0.1-0.8l11.2-7c0.4-0.3,1.1-0.4,1.6-0.2L964.8,639.8z"/>
						</g>
					</g>
				</g>
				<g>
					<g>
						<g>
							<path class="st11" d="M960.5,638.2c0.5,0.2,0.5,0.5,0.1,0.8l-11.2,7c-0.4,0.3-1.1,0.4-1.6,0.2l-18.7-6.7
								c-0.5-0.2-0.5-0.5-0.1-0.8l11.2-7c0.4-0.3,1.1-0.4,1.6-0.2L960.5,638.2z"/>
						</g>
					</g>
				</g>
				<g>
					<g>
						<g>
							<path class="st11" d="M938.1,630.2c0.5,0.2,0.5,0.5,0.1,0.8l-11.2,7c-0.4,0.3-1.1,0.4-1.6,0.2l-18.7-6.7
								c-0.5-0.2-0.5-0.5-0.1-0.8l11.2-7c0.4-0.3,1.1-0.4,1.6-0.2L938.1,630.2z"/>
						</g>
					</g>
				</g>
				<g>
					<g>
						<g>
							<path class="st11" d="M915.8,622.2c0.5,0.2,0.5,0.5,0.1,0.8l-11.2,7c-0.4,0.3-1.1,0.4-1.6,0.2l-18.7-6.7
								c-0.5-0.2-0.5-0.5-0.1-0.8l11.2-7c0.4-0.3,1.1-0.4,1.6-0.2L915.8,622.2z"/>
						</g>
					</g>
				</g>
				<g>
					<g>
						<g>
							<path class="st11" d="M870.4,606.7c0.5-0.3,1.1-0.4,1.6-0.2l21.6,7.8c0.5,0.2,0.5,0.5,0.1,0.8l-11.2,7
								c-0.4,0.3-1.1,0.4-1.6,0.2l-21.3-7.6c-0.5-0.2-0.5-0.5-0.1-0.8L870.4,606.7z"/>
						</g>
					</g>
				</g>
			</g>
			<g>
				<g>
					<g>
						<path class="st11" d="M1104.7,704.4c0.5,0.2,0.5,0.5,0.1,0.8l-11.3,7c-0.4,0.3-1.1,0.4-1.6,0.2l-13.1-4.8
							c-0.5-0.2-0.5-0.5-0.1-0.8l11.3-7c0.4-0.3,1.1-0.4,1.6-0.2L1104.7,704.4z"/>
					</g>
				</g>
				<g>
					<g>
						<path class="st11" d="M1087.9,698.2c0.5,0.2,0.5,0.5,0.1,0.8l-11.2,7.1c-0.4,0.3-1.1,0.4-1.6,0.2l-15.3-5.5
							c-0.5-0.2-0.5-0.5-0.1-0.8l11.2-7c0.4-0.3,1.1-0.4,1.6-0.2L1087.9,698.2z"/>
					</g>
				</g>
				<g>
					<g>
						<path class="st11" d="M1069.1,691.5c0.5,0.2,0.5,0.5,0.1,0.8l-11.3,7c-0.4,0.3-1.1,0.4-1.6,0.2L1041,694
							c-0.5-0.2-0.5-0.5-0.1-0.8l11.3-7c0.4-0.3,1.1-0.4,1.6-0.2L1069.1,691.5z"/>
					</g>
				</g>
				<g>
					<g>
						<path class="st11" d="M1050.2,684.7c0.5,0.2,0.5,0.5,0.1,0.8l-11.3,7c-0.4,0.3-1.1,0.4-1.6,0.2l-15.3-5.4
							c-0.5-0.2-0.5-0.5-0.1-0.8l11.3-7c0.4-0.3,1.1-0.4,1.6-0.2L1050.2,684.7z"/>
					</g>
				</g>
				<g>
					<g>
						<path class="st11" d="M1031.3,678c0.5,0.2,0.5,0.5,0.1,0.8l-11.3,7c-0.4,0.3-1.1,0.4-1.6,0.2l-81.3-29.1
							c-0.5-0.2-0.5-0.5-0.1-0.8l11.3-7c0.4-0.3,1.1-0.4,1.6-0.2L1031.3,678z"/>
					</g>
				</g>
				<g>
					<g>
						<path class="st11" d="M1000.2,682.4c0.5,0.2,0.5,0.5,0.1,0.8l-46.5,29.9c-0.4,0.3-1.1,0.4-1.6,0.2L872.1,683
							c-0.5-0.2-0.5-0.5-0.1-0.8l45.2-28.7c0.4-0.3,1.1-0.4,1.6-0.2L1000.2,682.4z"/>
					</g>
				</g>
				<g>
					<g>
						<path class="st11" d="M946.4,647.7c0.5,0.2,0.5,0.5,0.1,0.8l-11.3,7c-0.4,0.3-1.1,0.4-1.6,0.2l-15.3-5.5
							c-0.5-0.2-0.5-0.5-0.1-0.8l11.3-7c0.4-0.3,1.1-0.4,1.6-0.2L946.4,647.7z"/>
					</g>
				</g>
				<g>
					<g>
						<path class="st11" d="M927.5,640.8c0.5,0.2,0.5,0.5,0.1,0.8l-11.4,7c-0.4,0.3-1.1,0.4-1.6,0.2l-14.8-5.2
							c-0.5-0.2-0.5-0.5-0.1-0.8l11.3-7c0.4-0.3,1.1-0.4,1.6-0.2L927.5,640.8z"/>
					</g>
				</g>
				<g>
					<g>
						<path class="st11" d="M909.2,634.2c0.5,0.2,0.5,0.5,0.1,0.8l-11.3,7c-0.4,0.3-1.1,0.4-1.6,0.2l-14.8-5.2
							c-0.5-0.2-0.5-0.5-0.1-0.8l11.3-7c0.4-0.3,1.1-0.4,1.6-0.2L909.2,634.2z"/>
					</g>
				</g>
				<g>
					<g>
						<path class="st11" d="M874.3,622.6c0.4-0.3,1.1-0.4,1.6-0.2l14.8,5.2c0.5,0.2,0.5,0.5,0.1,0.8l-4.4,2.9l-16.4-5.9L874.3,622.6
							z"/>
						<path class="st11" d="M863.3,629.7l5-3.1l16.4,5.9l-5,3.1c-0.5,0.3-0.8,0.5-0.8,0.5s-0.4-0.1-0.8-0.3l-14.8-5.3
							C862.7,630.4,862.7,629.9,863.3,629.7z"/>
					</g>
				</g>
				<g>
					<g>
						<path class="st11" d="M856.1,616.1c0.5-0.3,1.1-0.4,1.6-0.2l14.6,5.2c0.5,0.2,0.5,0.5,0.1,0.8l-11.3,7
							c-0.4,0.3-1.1,0.4-1.6,0.2l-14.4-5.1c-0.5-0.2-0.5-0.5-0.1-0.8L856.1,616.1z"/>
					</g>
				</g>
			</g>
		</g>
		<g>
			<g>
				<g>
					<g>
						<line class="st12" x1="1076.4" y1="650.7" x2="1074.4" y2="650.1"/>
					</g>
				</g>
			</g>
		</g>
		<g>
			<g>
				<g>
					<g>
						<line class="st12" x1="1059.6" y1="644.7" x2="1057.6" y2="644"/>
					</g>
				</g>
			</g>
		</g>
		<g>
			<g>
				<g>
					<g>
						<path class="st11" d="M918.5,593.9"/>
					</g>
				</g>
			</g>
		</g>
		<g>
			<g>
				<g>
					<g>
						<path class="st11" d="M941,580"/>
					</g>
				</g>
			</g>
		</g>
		<g>
			<g>
				<g>
					<polygon class="st11" points="965.7,640.1 965.6,640.1 965.5,640 					"/>
				</g>
			</g>
		</g>
		<g>
			<g>
				<path class="st11" d="M868.4,609.9"/>
			</g>
		</g>
		<g>
			<g>
				<path class="st11" d="M887.4,598"/>
			</g>
		</g>
		<g>
			<line class="st12" x1="1053" y1="685.7" x2="1051.1" y2="685.1"/>
		</g>
	</g>
	<g>
		<line class="st13" x1="1139" y1="495.5" x2="1068.9" y2="473.3"/>
	</g>
	<g>
		<line class="st14" x1="1022.7" y1="435.6" x2="952.6" y2="413.3"/>
	</g>
	<g>
		<line class="st14" x1="1022.7" y1="446.7" x2="952.6" y2="424.4"/>
	</g>
	<g>
		<line class="st14" x1="1022.7" y1="457.8" x2="952.6" y2="435.6"/>
	</g>
	<g>
		<line class="st13" x1="1139" y1="506.7" x2="1078.4" y2="487.5"/>
	</g>
</g>
</svg>
