<?xml version="1.0" encoding="utf-8"?>
<!-- Generator: Adobe Illustrator 22.0.1, SVG Export Plug-In . SVG Version: 6.00 Build 0)  -->
<svg version="1.1" id="Calque_1" xmlns="http://www.w3.org/2000/svg" xmlns:xlink="http://www.w3.org/1999/xlink" x="0px" y="0px"
	 viewBox="0 0 768 768" style="enable-background:new 0 0 768 768;" xml:space="preserve">
<style type="text/css">
	.st0{fill:url(#SVGID_1_);}
	.st1{fill:url(#SVGID_2_);}
	.st2{fill:url(#SVGID_3_);stroke:#000000;stroke-width:0.25;stroke-linecap:round;stroke-miterlimit:10;}
	.st3{fill:url(#SVGID_4_);stroke:#000000;stroke-width:0.25;stroke-linecap:round;stroke-miterlimit:10;}
	.st4{fill:url(#SVGID_5_);}
	.st5{fill:url(#SVGID_6_);stroke:#000000;stroke-width:0.25;stroke-linecap:round;stroke-miterlimit:10;}
	.st6{fill:url(#SVGID_7_);}
</style>
<g>
	<g>
		<g>
			<linearGradient id="SVGID_1_" gradientUnits="userSpaceOnUse" x1="250.08" y1="172.565" x2="264.85" y2="172.565">
				<stop  offset="0" style="stop-color:#7B15FF"/>
				<stop  offset="0.995" style="stop-color:#C100E9"/>
			</linearGradient>
			<path class="st0" d="M264.8,167.6c-3.4,1.1-6.4,2.7-8.6,4.4l-3.6,2.8l-0.9,2.6h-1.8C252.5,173.1,258.5,169.3,264.8,167.6z"/>
		</g>
		<g>
			<g>
				<linearGradient id="SVGID_2_" gradientUnits="userSpaceOnUse" x1="250.08" y1="172.565" x2="264.85" y2="172.565">
					<stop  offset="0" style="stop-color:#7B15FF"/>
					<stop  offset="0.995" style="stop-color:#C100E9"/>
				</linearGradient>
				<path class="st1" d="M264.8,167.6c-3.4,1.1-6.4,2.7-8.6,4.4l-3.6,2.8l-0.9,2.6h-1.8C252.5,173.1,258.5,169.3,264.8,167.6z"/>
			</g>
		</g>
		<g>
			<linearGradient id="SVGID_3_" gradientUnits="userSpaceOnUse" x1="187.4123" y1="371.6" x2="187.4123" y2="371.6">
				<stop  offset="0" style="stop-color:#7B15FF"/>
				<stop  offset="0.995" style="stop-color:#C100E9"/>
			</linearGradient>
			<path class="st2" d="M187.4,371.6"/>
		</g>
	</g>
	<g>
		<g>
			<linearGradient id="SVGID_4_" gradientUnits="userSpaceOnUse" x1="529.4" y1="426.8" x2="529.4" y2="426.8">
				<stop  offset="0" style="stop-color:#7B15FF"/>
				<stop  offset="0.995" style="stop-color:#C100E9"/>
			</linearGradient>
			<path class="st3" d="M529.4,426.8"/>
		</g>
	</g>
	<g>
		<g>
			<linearGradient id="SVGID_5_" gradientUnits="userSpaceOnUse" x1="-113.0334" y1="43.0334" x2="772.4269" y2="928.4937">
				<stop  offset="0" style="stop-color:#7B15FF"/>
				<stop  offset="0.995" style="stop-color:#C100E9"/>
			</linearGradient>
			<path class="st4" d="M550,297c0,13.5-8.4,25-20.2,29.5L335.3,327L271,532.5c-7.4,23.6-19.8,58-41.8,85.5
				c-25,31.1-57.2,47-95.6,47c-32.3,0-63.1-13.8-84.5-37.8c-21.5-24-31.8-56.3-28.2-88.4c5.7-51.2,46.7-93.1,97.7-99.6
				c17.3-2.3,34.6-0.6,51.2,5c7.6,2.5,13.7,7.9,17.2,15c3.5,7.1,4,15.2,1.5,22.7c-2.5,7.6-7.9,13.7-15.1,17.3
				c-7.1,3.5-15.2,4-22.7,1.5c-7.9-2.7-16.1-3.5-24.5-2.4c-24.1,3.1-43.5,22.9-46.1,47.1c-1.7,15.6,3,30.6,13.4,42.2
				c10.1,11.4,24.7,17.9,40.1,17.9c17.9,0,32.1-6.2,44.7-19.6c13.8-14.7,25.5-37.9,35.9-71l69.7-222.1l0.5-1
				c6.9-14.2,23.2-24.2,39.7-24.2h205.8C541.7,272.1,550,283.6,550,297z"/>
		</g>
	</g>
	<g>
		<g>
			<linearGradient id="SVGID_6_" gradientUnits="userSpaceOnUse" x1="726.1" y1="463.6" x2="726.1" y2="463.6">
				<stop  offset="0" style="stop-color:#7B15FF"/>
				<stop  offset="0.995" style="stop-color:#C100E9"/>
			</linearGradient>
			<path class="st5" d="M726.1,463.6"/>
		</g>
	</g>
</g>
<linearGradient id="SVGID_7_" gradientUnits="userSpaceOnUse" x1="49.5271" y1="-119.5271" x2="934.9874" y2="765.9333">
	<stop  offset="0" style="stop-color:#7B15FF"/>
	<stop  offset="0.995" style="stop-color:#C100E9"/>
</linearGradient>
<path class="st6" d="M722.5,187.9L615.1,525.8c-7.4,23.6-19.7,58-41.8,85.5c-25,31.1-57.2,47-95.6,47c-32.3,0-63.1-13.8-84.5-37.8
	c-21.5-24-31.8-56.3-28.2-88.4c5.7-51.2,46.7-93.1,97.7-99.6c17.3-2.3,34.6-0.6,51.2,5c7.6,2.5,13.7,7.9,17.2,15
	c3.5,7.1,4,15.2,1.5,22.7c-2.5,7.6-7.9,13.7-15,17.3c-7.1,3.5-15.2,4-22.7,1.5c-7.9-2.7-16.1-3.5-24.5-2.4
	c-24.1,3.1-43.5,22.9-46.1,47.1c-1.7,15.6,3,30.6,13.4,42.2c10.1,11.4,24.7,17.9,40.1,17.9c17.9,0,32.1-6.2,44.7-19.6
	c13.8-14.7,25.5-37.9,35.9-71l94.8-311.6H277.3l-59.4,184.2c-4.2,12.4-16.4,20.7-30.4,20.7c-2.7,0-5.5-0.3-8.3-1l-0.3-0.1
	c-8.7-2.2-16-7.9-20-15.4c-3.7-7-4.4-14.9-1.8-22.3l63.5-196.3l1.4-2.6c8.8-15.8,29.5-26.9,50.1-26.9h411.1
	c15.3,0,28.5,6.1,36.2,16.8l0.1,0.1C726.3,163.8,727.5,176.5,722.5,187.9z"/>
</svg>
