<?xml version="1.0" encoding="utf-8"?>
<!-- Generator: Adobe Illustrator 22.0.1, SVG Export Plug-In . SVG Version: 6.00 Build 0)  -->
<svg version="1.1" id="Calque_1" xmlns="http://www.w3.org/2000/svg" xmlns:xlink="http://www.w3.org/1999/xlink" x="0px" y="0px"
	 viewBox="0 0 768 768" style="enable-background:new 0 0 768 768;" xml:space="preserve">
<style type="text/css">
	.st0{fill:url(#SVGID_1_);stroke:#000000;stroke-width:30;stroke-miterlimit:10;}
	.st1{fill:url(#SVGID_2_);stroke:#000000;stroke-width:30;stroke-miterlimit:10;}
	.st2{fill:url(#SVGID_3_);}
</style>
<g>
	<g>
		<g>
			<linearGradient id="SVGID_1_" gradientUnits="userSpaceOnUse" x1="513.4146" y1="443.4478" x2="513.4146" y2="443.4478">
				<stop  offset="0" style="stop-color:#7B15FF"/>
				<stop  offset="1" style="stop-color:#C100E9"/>
			</linearGradient>
			<path class="st0" d="M513.4,443.4"/>
		</g>
	</g>
	<g>
		<g>
			<linearGradient id="SVGID_2_" gradientUnits="userSpaceOnUse" x1="449.883" y1="523.9462" x2="449.883" y2="523.9462">
				<stop  offset="0" style="stop-color:#7B15FF"/>
				<stop  offset="1" style="stop-color:#C100E9"/>
			</linearGradient>
			<path class="st1" d="M449.9,523.9"/>
		</g>
	</g>
	<g>
		<g>
			<linearGradient id="SVGID_3_" gradientUnits="userSpaceOnUse" x1="-100.7669" y1="-59.2331" x2="838.6255" y2="880.1592">
				<stop  offset="0" style="stop-color:#7B15FF"/>
				<stop  offset="1" style="stop-color:#C100E9"/>
			</linearGradient>
			<path class="st2" d="M736.8,685.9c-14,17.4-34.8,27.4-57.1,27.4c-16.5,0-32.7-5.7-45.6-16l-98.5-77.6c-6.5-5.3-10.6-12.7-11.5-21
				c-0.9-8.3,1.5-16.5,6.7-23c10.8-13.4,30.5-15.6,43.9-4.8l98.5,77.7c2.7,2.2,5.8,2.4,7.8,2.3c2.8-0.4,5.3-1.7,7.1-3.9
				c1.8-2.3,2.6-4.9,2.3-7.8c-0.3-2.9-1.7-5.4-3.9-7.2l-143.8-115l-35-27.5c-21-16.6-28.3-45.1-17.6-69.4
				c41-94,9.3-204.6-75.4-263.1c-90.7-62.7-217-45.3-287.4,39.7c-37.9,45.6-55,103-48.3,161.7C85.5,417,115,469.2,162,505.1
				c81.1,62,195.7,58.3,272.3-8.9c12.9-11.3,32.7-10.1,44.1,2.9c5.5,6.3,8.2,14.3,7.7,22.7c-0.6,8.3-4.3,15.9-10.5,21.4
				c-51.9,45.5-117.3,68.5-182.8,68.5c-59.4,0-118.9-18.9-168.6-56.9C63.6,508.5,25.5,441.2,16.9,365.4
				c-8.6-75.7,13.5-149.8,62.3-208.7c90.9-109.6,253.8-132.1,371-51.2c108.3,74.8,149.4,215.9,98.4,336.6l33.1,26l143.8,115.1
				c15.2,12.1,24.8,29.5,27,48.9C754.5,651.7,749,670.7,736.8,685.9z"/>
		</g>
	</g>
</g>
</svg>
