<?xml version="1.0" encoding="utf-8"?>
<!-- Generator: Adobe Illustrator 22.0.1, SVG Export Plug-In . SVG Version: 6.00 Build 0)  -->
<svg version="1.1" id="Calque_1" xmlns="http://www.w3.org/2000/svg" xmlns:xlink="http://www.w3.org/1999/xlink" x="0px" y="0px"
	 viewBox="0 0 1280 1024" style="enable-background:new 0 0 1280 1024;" xml:space="preserve">
<style type="text/css">
	.st0{fill:#DFE6E9;}
	.st1{opacity:0.92;fill:#D31DFF;enable-background:new    ;}
	.st2{fill:#D31DFF;}
	.st3{filter:url(#Adobe_OpacityMaskFilter);}
	.st4{fill:url(#SVGID_2_);}
	.st5{mask:url(#SVGID_1_);}
	.st6{fill:#F7D7FF;}
	.st7{filter:url(#Adobe_OpacityMaskFilter_1_);}
	.st8{fill:url(#SVGID_4_);}
	.st9{mask:url(#SVGID_3_);}
	.st10{filter:url(#Adobe_OpacityMaskFilter_2_);}
	.st11{fill:url(#SVGID_6_);}
	.st12{mask:url(#SVGID_5_);}
	.st13{filter:url(#Adobe_OpacityMaskFilter_3_);}
	.st14{fill:url(#SVGID_8_);}
	.st15{mask:url(#SVGID_7_);}
	.st16{filter:url(#Adobe_OpacityMaskFilter_4_);}
	.st17{fill:url(#SVGID_10_);}
	.st18{mask:url(#SVGID_9_);}
</style>
<path class="st0" d="M-358,304.1l0.2,0.5C-357.9,304.3-357.9,304.2-358,304.1z"/>
<path class="st1" d="M1505.6,473c-33.4-3.7-73.4-3.9-121,0.1c-207.2,17.5-361,64.9-508.9,116.4C614,680.7,371.4,784.9-114.4,759.3
	c-16.9-0.9-32.8-2-47.5-3.3l-84.5-183.9l-97.3-211.7l-28.1-61.2c1.3,2.1,5.8,8,18,15.3c26,15.6,87.1,38,227.6,45.3
	c537.6,28.4,784.1-116.4,1082-203.6c105.8-8.5,220.3-8,355.1,12.5C1561.4,206.9,1570.9,346.2,1505.6,473z"/>
<path class="st2" d="M1505.6,473c-31.1,60.4-79.1,117.9-126.1,160.3c-33.6-13.5-76.6-24.7-130.3-32.9
	c-142.7-21.7-262.5-20.9-373.5-10.9c-330,29.8-581.5,141-1122.1-17.4c-3-0.9-5.9-1.7-8.9-2.6c-16.3-4.8-31.4-9.6-45.5-14.3
	l-42.9-194.7l-10.1-45.9l-64.5-292.9c2.5,7.5,26.6,57.6,224.7,116.2C363.3,303,614.8,183.5,955.8,156.3
	c105.8-8.5,220.3-8,355.1,12.5C1561.4,206.9,1570.9,346.2,1505.6,473z"/>
<path class="st0" d="M-354,660.1l0.2,0.5C-353.9,660.3-353.9,660.2-354,660.1z"/>
<defs>
	<filter id="Adobe_OpacityMaskFilter" filterUnits="userSpaceOnUse" x="833.1" y="188.9" width="387.1" height="387.1">
		
			<feColorMatrix  type="matrix" values="-1 0 0 0 1  0 -1 0 0 1  0 0 -1 0 1  0 0 0 1 0" color-interpolation-filters="sRGB" result="source"/>
	</filter>
</defs>
<mask maskUnits="userSpaceOnUse" x="833.1" y="188.9" width="387.1" height="387.1" id="SVGID_1_">
	<g class="st3">
		
			<linearGradient id="SVGID_2_" gradientUnits="userSpaceOnUse" x1="659.4332" y1="-1287.5709" x2="659.4332" y2="-635.1552" gradientTransform="matrix(0.3289 0.9443 -0.9443 0.3289 -193.0842 113.758)">
			<stop  offset="0" style="stop-color:#FFFFFF"/>
			<stop  offset="8.525472e-02" style="stop-color:#F7F7F7"/>
			<stop  offset="0.2199" style="stop-color:#E0E0E0"/>
			<stop  offset="0.3872" style="stop-color:#BBBBBB"/>
			<stop  offset="0.5804" style="stop-color:#878787"/>
			<stop  offset="0.7926" style="stop-color:#464646"/>
			<stop  offset="1" style="stop-color:#000000"/>
		</linearGradient>
		<polygon class="st4" points="753.6,741.5 592.6,279.2 1148.8,85.4 1309.9,547.7 		"/>
	</g>
</mask>
<g class="st5">
	<path class="st6" d="M1126.8,542.6l87.6-181.2c6.9-14.2,7.8-30.3,2.6-45.2c-5.2-14.9-15.9-26.9-30.1-33.8l-181.2-87.6
		c-14.2-6.9-30.3-7.8-45.2-2.6c-14.9,5.2-26.9,15.9-33.8,30.1l-87.6,181.2c-6.9,14.2-7.8,30.3-2.6,45.2
		c5.2,14.9,15.9,26.9,30.1,33.8l181.2,87.6c14.2,6.9,30.3,7.8,45.2,2.6C1107.9,567.5,1119.9,556.8,1126.8,542.6z M1053.9,525.2
		L898,449.8c-15-7.2-21.2-25.2-14-40.2l75.4-155.9c7.2-15,25.2-21.2,40.2-14l155.9,75.4c15,7.2,21.2,25.2,14,40.2l-75.4,155.9
		C1086.8,526.2,1068.9,532.4,1053.9,525.2z"/>
</g>
<defs>
	<filter id="Adobe_OpacityMaskFilter_1_" filterUnits="userSpaceOnUse" x="231.2" y="325.3" width="338.8" height="338.8">
		
			<feColorMatrix  type="matrix" values="-1 0 0 0 1  0 -1 0 0 1  0 0 -1 0 1  0 0 0 1 0" color-interpolation-filters="sRGB" result="source"/>
	</filter>
</defs>
<mask maskUnits="userSpaceOnUse" x="231.2" y="325.3" width="338.8" height="338.8" id="SVGID_3_">
	<g class="st7">
		
			<linearGradient id="SVGID_4_" gradientUnits="userSpaceOnUse" x1="125.9394" y1="-893.2139" x2="125.9394" y2="-339.6359" gradientTransform="matrix(0.9874 -0.1585 0.1585 0.9874 391.4515 1208.3035)">
			<stop  offset="0" style="stop-color:#FFFFFF"/>
			<stop  offset="8.525472e-02" style="stop-color:#F7F7F7"/>
			<stop  offset="0.2199" style="stop-color:#E0E0E0"/>
			<stop  offset="0.3872" style="stop-color:#BBBBBB"/>
			<stop  offset="0.5804" style="stop-color:#878787"/>
			<stop  offset="0.7926" style="stop-color:#464646"/>
			<stop  offset="1" style="stop-color:#000000"/>
		</linearGradient>
		<polygon class="st8" points="660,776.2 249.8,842.1 170.6,348.6 580.8,282.7 		"/>
	</g>
</mask>
<g class="st9">
	<path class="st6" d="M549.3,434.9L410.9,334.8c-10.9-7.9-24.1-11-37.4-8.9c-13.2,2.1-24.8,9.3-32.7,20.1L240.8,484.5
		c-7.9,10.9-11,24.1-8.9,37.4c2.1,13.2,9.3,24.8,20.1,32.7l138.4,100.1c10.9,7.9,24.1,11,37.4,8.9c13.2-2.1,24.8-9.3,32.7-20.1
		L560.5,505c7.9-10.9,11-24.1,8.9-37.4S560.2,442.8,549.3,434.9z M523.9,493.2l-86.1,119.1c-8.3,11.4-24.2,14-35.6,5.7l-119.1-86.1
		c-11.4-8.3-14-24.2-5.7-35.6l86.1-119.1c8.3-11.4,24.2-14,35.6-5.7l119.1,86.1C529.6,465.8,532.2,481.8,523.9,493.2z"/>
</g>
<defs>
	<filter id="Adobe_OpacityMaskFilter_2_" filterUnits="userSpaceOnUse" x="613" y="224.4" width="181.6" height="181.6">
		
			<feColorMatrix  type="matrix" values="-1 0 0 0 1  0 -1 0 0 1  0 0 -1 0 1  0 0 0 1 0" color-interpolation-filters="sRGB" result="source"/>
	</filter>
</defs>
<mask maskUnits="userSpaceOnUse" x="613" y="224.4" width="181.6" height="181.6" id="SVGID_5_">
	<g class="st10">
		
			<linearGradient id="SVGID_6_" gradientUnits="userSpaceOnUse" x1="-188.6631" y1="-726.903" x2="-188.6631" y2="-410.4332" gradientTransform="matrix(-0.8997 -0.4365 0.4365 -0.8997 801.9702 -324.2857)">
			<stop  offset="0" style="stop-color:#FFFFFF"/>
			<stop  offset="8.525472e-02" style="stop-color:#F7F7F7"/>
			<stop  offset="0.2199" style="stop-color:#E0E0E0"/>
			<stop  offset="0.3872" style="stop-color:#BBBBBB"/>
			<stop  offset="0.5804" style="stop-color:#878787"/>
			<stop  offset="0.7926" style="stop-color:#464646"/>
			<stop  offset="1" style="stop-color:#000000"/>
		</linearGradient>
		<polygon class="st11" points="674.6,98.4 888.3,202 763.6,459.1 549.9,355.4 		"/>
	</g>
</mask>
<g class="st12">
	<path class="st6" d="M614.6,294.5l32,92.3c2.5,7.2,7.7,13.1,14.6,16.4s14.7,3.8,21.9,1.3l92.3-32c7.2-2.5,13.1-7.7,16.4-14.6
		c3.3-6.9,3.8-14.7,1.3-21.9l-32-92.3c-2.5-7.2-7.7-13.1-14.6-16.4s-14.7-3.8-21.9-1.3l-92.3,32c-7.2,2.5-13.1,7.7-16.4,14.6
		C612.5,279.5,612.1,287.2,614.6,294.5z M645.6,275.5L725,248c7.6-2.6,15.9,1.4,18.6,9l27.5,79.4c2.6,7.6-1.4,15.9-9,18.6
		l-79.4,27.5c-7.6,2.6-15.9-1.4-18.6-9l-27.5-79.4C633.9,286.5,638,278.1,645.6,275.5z"/>
</g>
<defs>
	<filter id="Adobe_OpacityMaskFilter_3_" filterUnits="userSpaceOnUse" x="-136.4" y="217.5" width="270" height="270">
		
			<feColorMatrix  type="matrix" values="-1 0 0 0 1  0 -1 0 0 1  0 0 -1 0 1  0 0 0 1 0" color-interpolation-filters="sRGB" result="source"/>
	</filter>
</defs>
<mask maskUnits="userSpaceOnUse" x="-136.4" y="217.5" width="270" height="270" id="SVGID_7_">
	<g class="st13">
		
			<linearGradient id="SVGID_8_" gradientUnits="userSpaceOnUse" x1="517.3396" y1="-805.6445" x2="517.3396" y2="-368.4421" gradientTransform="matrix(-1 0 0 -1 513 -303)">
			<stop  offset="0" style="stop-color:#FFFFFF"/>
			<stop  offset="8.525472e-02" style="stop-color:#F7F7F7"/>
			<stop  offset="0.2199" style="stop-color:#E0E0E0"/>
			<stop  offset="0.3872" style="stop-color:#BBBBBB"/>
			<stop  offset="0.5804" style="stop-color:#878787"/>
			<stop  offset="0.7926" style="stop-color:#464646"/>
			<stop  offset="1" style="stop-color:#000000"/>
		</linearGradient>
		<polygon class="st14" points="-168.4,100.5 159.7,100.5 159.7,495.3 -168.4,495.3 		"/>
	</g>
</mask>
<g class="st15">
	<path class="st6" d="M-124.8,380.5l95.4,95.4c7.5,7.5,17.4,11.6,28,11.6s20.5-4.1,28-11.6l95.4-95.4c7.5-7.5,11.6-17.4,11.6-28
		c0-10.6-4.1-20.5-11.6-28l-95.4-95.4c-7.5-7.5-17.4-11.6-28-11.6s-20.5,4.1-28,11.6l-95.4,95.4c-7.5,7.5-11.6,17.4-11.6,28
		C-136.4,363.1-132.3,373-124.8,380.5z M-97.7,338.2l82.1-82.1c7.9-7.9,20.6-7.9,28.5,0l82.1,82.1c7.9,7.9,7.9,20.6,0,28.5
		l-82.1,82.1c-7.9,7.9-20.6,7.9-28.5,0l-82.1-82.1C-105.6,358.9-105.6,346.1-97.7,338.2z"/>
</g>
<defs>
	<filter id="Adobe_OpacityMaskFilter_4_" filterUnits="userSpaceOnUse" x="145.5" y="234.4" width="93.7" height="93.7">
		
			<feColorMatrix  type="matrix" values="-1 0 0 0 1  0 -1 0 0 1  0 0 -1 0 1  0 0 0 1 0" color-interpolation-filters="sRGB" result="source"/>
	</filter>
</defs>
<mask maskUnits="userSpaceOnUse" x="145.5" y="234.4" width="93.7" height="93.7" id="SVGID_9_">
	<g class="st16">
		
			<linearGradient id="SVGID_10_" gradientUnits="userSpaceOnUse" x1="545.5685" y1="-615.8032" x2="545.5685" y2="-438.7987" gradientTransform="matrix(-0.7982 -0.6023 0.6023 -0.7982 961.1967 166.0797)">
			<stop  offset="0" style="stop-color:#FFFFFF"/>
			<stop  offset="8.525472e-02" style="stop-color:#F7F7F7"/>
			<stop  offset="0.2199" style="stop-color:#E0E0E0"/>
			<stop  offset="0.3872" style="stop-color:#BBBBBB"/>
			<stop  offset="0.5804" style="stop-color:#878787"/>
			<stop  offset="0.7926" style="stop-color:#464646"/>
			<stop  offset="1" style="stop-color:#000000"/>
		</linearGradient>
		<polygon class="st17" points="199.8,159.1 305.9,239.1 209.6,366.6 103.6,286.6 		"/>
	</g>
</mask>
<g class="st18">
	<path class="st6" d="M145.6,260.2l7.6,54.1c0.6,4.2,2.8,8,6.2,10.6c3.4,2.6,7.6,3.7,11.9,3.1l54.1-7.6c4.2-0.6,8-2.8,10.6-6.2
		c2.6-3.4,3.7-7.6,3.1-11.9l-7.6-54.1c-0.6-4.2-2.8-8-6.2-10.6c-3.4-2.6-7.6-3.7-11.9-3.1l-54.1,7.6c-4.2,0.6-8,2.8-10.6,6.2
		C146.1,251.7,145.1,255.9,145.6,260.2z M164.7,253.1l46.5-6.5c4.5-0.6,8.6,2.5,9.2,6.9l6.5,46.5c0.6,4.5-2.5,8.6-6.9,9.2l-46.5,6.5
		c-4.5,0.6-8.6-2.5-9.2-6.9l-6.5-46.5C157.1,257.9,160.2,253.8,164.7,253.1z"/>
</g>
</svg>
